<svg width="354" height="456" viewBox="0 0 354 456" fill="none" xmlns="http://www.w3.org/2000/svg">
<circle cx="24" cy="330" r="24" fill="#78A671"/>
<circle cx="177" cy="330" r="24" fill="#78A671"/>
<circle cx="75" cy="330" r="24" fill="#78A671"/>
<circle cx="279" cy="75" r="23.5" stroke="#78A671"/>
<circle cx="279" cy="24" r="24" fill="#78A671"/>
<circle cx="279" cy="126" r="24" fill="#78A671"/>
<circle cx="228" cy="126" r="24" fill="#78A671"/>
<circle cx="126" cy="330" r="24" fill="#78A671"/>
<circle cx="330" cy="330" r="24" fill="#78A671"/>
<circle cx="24" cy="381" r="23.5" stroke="#78A671"/>
<circle cx="177" cy="381" r="23.5" stroke="#78A671"/>
<circle cx="75" cy="381" r="23.5" stroke="#78A671"/>
<circle cx="126" cy="381" r="23.5" stroke="#78A671"/>
<circle cx="330" cy="381" r="23.5" stroke="#78A671"/>
<circle cx="24" cy="432" r="24" fill="#78A671"/>
<circle cx="177" cy="432" r="24" fill="#78A671"/>
<circle cx="75" cy="432" r="24" fill="#78A671"/>
<circle cx="228" cy="75" r="23.5" stroke="#78A671"/>
<circle cx="228" cy="24" r="24" fill="#78A671"/>
<circle cx="126" cy="432" r="24" fill="#78A671"/>
<circle cx="330" cy="432" r="24" fill="#78A671"/>
</svg>
