<?xml version="1.0" encoding="UTF-8"?> <svg xmlns="http://www.w3.org/2000/svg" width="326" height="65" viewBox="0 0 326 65" fill="none"><path d="M0 20C0 8.95431 8.95431 0 20 0H305.5C316.546 0 325.5 8.95431 325.5 20V20C325.5 31.0457 316.546 40 305.5 40H155C148.096 40 142.5 45.5964 142.5 52.5V52.5C142.5 59.4036 136.904 65 130 65H20C8.95431 65 0 56.0457 0 45V25V20Z" fill="white"></path><path d="M14.4 27V12.6H20.01C20.87 12.6 21.6033 12.7767 22.21 13.13C22.8233 13.4833 23.29 13.95 23.61 14.53C23.9367 15.1033 24.1 15.7233 24.1 16.39C24.1 17.17 23.9 17.8533 23.5 18.44C23.1 19.0267 22.56 19.43 21.88 19.65L21.86 19.16C22.7867 19.4067 23.5067 19.86 24.02 20.52C24.5333 21.18 24.79 21.9667 24.79 22.88C24.79 23.72 24.6167 24.4467 24.27 25.06C23.93 25.6733 23.4367 26.15 22.79 26.49C22.15 26.83 21.39 27 20.51 27H14.4ZM16.2 25.3H20.17C20.7033 25.3 21.18 25.2033 21.6 25.01C22.02 24.81 22.35 24.53 22.59 24.17C22.8367 23.81 22.96 23.3767 22.96 22.87C22.96 22.3833 22.85 21.9467 22.63 21.56C22.4167 21.1733 22.1133 20.8667 21.72 20.64C21.3333 20.4067 20.8833 20.29 20.37 20.29H16.2V25.3ZM16.2 18.61H19.99C20.4167 18.61 20.8 18.52 21.14 18.34C21.4867 18.1533 21.76 17.8933 21.96 17.56C22.1667 17.2267 22.27 16.8367 22.27 16.39C22.27 15.77 22.06 15.2633 21.64 14.87C21.22 14.4767 20.67 14.28 19.99 14.28H16.2V18.61ZM31.4628 27.3C30.4028 27.3 29.4761 27.0667 28.6828 26.6C27.8961 26.1267 27.2828 25.47 26.8428 24.63C26.4028 23.7833 26.1828 22.7967 26.1828 21.67C26.1828 20.49 26.3995 19.47 26.8328 18.61C27.2661 17.7433 27.8695 17.0767 28.6428 16.61C29.4228 16.1367 30.3361 15.9 31.3828 15.9C32.4695 15.9 33.3928 16.15 34.1528 16.65C34.9195 17.15 35.4928 17.8633 35.8728 18.79C36.2595 19.7167 36.4261 20.82 36.3728 22.1H34.5728V21.46C34.5528 20.1333 34.2828 19.1433 33.7628 18.49C33.2428 17.83 32.4695 17.5 31.4428 17.5C30.3428 17.5 29.5061 17.8533 28.9328 18.56C28.3595 19.2667 28.0728 20.28 28.0728 21.6C28.0728 22.8733 28.3595 23.86 28.9328 24.56C29.5061 25.26 30.3228 25.61 31.3828 25.61C32.0961 25.61 32.7161 25.4467 33.2428 25.12C33.7695 24.7933 34.1828 24.3233 34.4828 23.71L36.1928 24.3C35.7728 25.2533 35.1395 25.9933 34.2928 26.52C33.4528 27.04 32.5095 27.3 31.4628 27.3ZM27.4728 22.1V20.67H35.4528V22.1H27.4728ZM37.7992 29.4V25.53C38.4059 25.53 38.8392 25.3333 39.0992 24.94C39.3592 24.54 39.5692 23.8833 39.7292 22.97C39.8359 22.3967 39.9226 21.7833 39.9892 21.13C40.0559 20.4767 40.1126 19.75 40.1592 18.95C40.2126 18.1433 40.2626 17.2267 40.3092 16.2H47.7492V25.53H48.7992V29.4H47.0992V27H39.4992V29.4H37.7992ZM40.5392 25.53H45.9692V17.67H41.9192C41.8992 18.1433 41.8726 18.64 41.8392 19.16C41.8059 19.6733 41.7659 20.1867 41.7192 20.7C41.6792 21.2133 41.6292 21.7 41.5692 22.16C41.5159 22.6133 41.4526 23.02 41.3792 23.38C41.2926 23.88 41.1926 24.3033 41.0792 24.65C40.9659 24.9967 40.7859 25.29 40.5392 25.53ZM52.3063 31.8L54.3963 26.12L54.4263 27.8L49.7063 16.2H51.5763L55.2763 25.53H54.6363L58.1063 16.2H59.9162L54.0363 31.8H52.3063ZM69.9619 27.31C68.9419 27.3033 68.0719 27.0833 67.3519 26.65C66.6319 26.21 66.0719 25.5667 65.6719 24.72C65.2719 23.8733 65.0485 22.8367 65.0019 21.61C64.9752 21.0433 64.9819 20.42 65.0219 19.74C65.0685 19.06 65.1419 18.4067 65.2419 17.78C65.3485 17.1533 65.4819 16.6367 65.6419 16.23C65.8219 15.7433 66.0752 15.2933 66.4019 14.88C66.7352 14.46 67.1085 14.1133 67.5219 13.84C67.9419 13.5533 68.4119 13.33 68.9319 13.17C69.4519 13.01 69.9952 12.8867 70.5619 12.8C71.1352 12.7067 71.7085 12.6267 72.2819 12.56C72.8552 12.4867 73.4019 12.4 73.9219 12.3L74.1019 13.9C73.7352 13.98 73.3019 14.05 72.8019 14.11C72.3019 14.1633 71.7819 14.2267 71.2419 14.3C70.7085 14.3733 70.1952 14.4767 69.7019 14.61C69.2152 14.7367 68.7952 14.9133 68.4419 15.14C67.9219 15.4533 67.5219 15.9233 67.2419 16.55C66.9685 17.17 66.8019 17.8667 66.7419 18.64C67.1552 18 67.6919 17.53 68.3519 17.23C69.0119 16.93 69.7152 16.78 70.4619 16.78C71.4285 16.78 72.2619 17.0067 72.9619 17.46C73.6619 17.9067 74.1985 18.5233 74.5719 19.31C74.9519 20.0967 75.1419 20.9933 75.1419 22C75.1419 23.0667 74.9285 24 74.5019 24.8C74.0752 25.6 73.4719 26.22 72.6919 26.66C71.9185 27.1 71.0085 27.3167 69.9619 27.31ZM70.0719 25.62C71.1185 25.62 71.9119 25.2967 72.4519 24.65C72.9919 23.9967 73.2619 23.13 73.2619 22.05C73.2619 20.9433 72.9819 20.0733 72.4219 19.44C71.8619 18.8 71.0752 18.48 70.0619 18.48C69.0352 18.48 68.2485 18.8 67.7019 19.44C67.1619 20.0733 66.8919 20.9433 66.8919 22.05C66.8919 23.1633 67.1652 24.0367 67.7119 24.67C68.2585 25.3033 69.0452 25.62 70.0719 25.62ZM76.3492 27V25.47C76.7492 25.5433 77.0526 25.53 77.2592 25.43C77.4726 25.3233 77.6292 25.14 77.7292 24.88C77.8359 24.6133 77.9226 24.28 77.9892 23.88C78.1026 23.2467 78.1992 22.54 78.2792 21.76C78.3659 20.98 78.4426 20.1267 78.5092 19.2C78.5826 18.2667 78.6492 17.2667 78.7092 16.2H86.2592V27H84.4792V17.89H80.3292C80.2892 18.5033 80.2392 19.1333 80.1792 19.78C80.1259 20.4267 80.0692 21.0567 80.0092 21.67C79.9492 22.2767 79.8826 22.8433 79.8092 23.37C79.7426 23.89 79.6692 24.34 79.5892 24.72C79.4626 25.3733 79.2859 25.8967 79.0592 26.29C78.8326 26.6767 78.5059 26.9267 78.0792 27.04C77.6526 27.16 77.0759 27.1467 76.3492 27ZM93.668 27.3C92.5946 27.3 91.668 27.0567 90.888 26.57C90.1146 26.0833 89.518 25.41 89.098 24.55C88.678 23.69 88.468 22.7033 88.468 21.59C88.468 20.4567 88.6813 19.4633 89.108 18.61C89.5346 17.7567 90.138 17.0933 90.918 16.62C91.698 16.14 92.6146 15.9 93.668 15.9C94.748 15.9 95.678 16.1433 96.458 16.63C97.238 17.11 97.8346 17.78 98.248 18.64C98.668 19.4933 98.878 20.4767 98.878 21.59C98.878 22.7167 98.668 23.71 98.248 24.57C97.828 25.4233 97.228 26.0933 96.448 26.58C95.668 27.06 94.7413 27.3 93.668 27.3ZM93.668 25.61C94.788 25.61 95.6213 25.2367 96.168 24.49C96.7146 23.7433 96.988 22.7767 96.988 21.59C96.988 20.37 96.7113 19.4 96.158 18.68C95.6046 17.9533 94.7746 17.59 93.668 17.59C92.9146 17.59 92.2946 17.76 91.808 18.1C91.3213 18.44 90.958 18.91 90.718 19.51C90.478 20.11 90.358 20.8033 90.358 21.59C90.358 22.8033 90.638 23.7767 91.198 24.51C91.758 25.2433 92.5813 25.61 93.668 25.61ZM101.08 27V16.2H108.58V17.89H102.86V27H101.08ZM122.158 29.1C121.085 29.1 120.091 28.9167 119.178 28.55C118.271 28.1833 117.481 27.67 116.808 27.01C116.135 26.35 115.611 25.5733 115.238 24.68C114.865 23.7867 114.678 22.8167 114.678 21.77C114.678 20.5833 114.865 19.52 115.238 18.58C115.618 17.6333 116.145 16.8267 116.818 16.16C117.498 15.4933 118.291 14.9833 119.198 14.63C120.111 14.2767 121.101 14.1 122.168 14.1C123.435 14.1 124.541 14.3 125.488 14.7C126.435 15.0933 127.218 15.6333 127.838 16.32C128.465 17 128.925 17.77 129.218 18.63C129.518 19.49 129.648 20.3867 129.608 21.32C129.561 22.5933 129.278 23.5633 128.758 24.23C128.238 24.8967 127.475 25.23 126.468 25.23C125.881 25.23 125.355 25.0933 124.888 24.82C124.421 24.5467 124.105 24.1533 123.938 23.64L124.468 23.68C124.215 24.1733 123.855 24.5267 123.388 24.74C122.921 24.9467 122.438 25.05 121.938 25.05C121.298 25.05 120.735 24.9133 120.248 24.64C119.768 24.36 119.388 23.9733 119.108 23.48C118.835 22.98 118.698 22.4033 118.698 21.75C118.698 21.07 118.841 20.4833 119.128 19.99C119.415 19.4967 119.805 19.1167 120.298 18.85C120.791 18.5767 121.348 18.44 121.968 18.44C122.401 18.44 122.851 18.53 123.318 18.71C123.785 18.89 124.145 19.1633 124.398 19.53L123.998 20.01V18.72H125.198L125.178 22.14C125.178 22.64 125.285 23.0333 125.498 23.32C125.718 23.6067 126.058 23.75 126.518 23.75C126.871 23.75 127.155 23.65 127.368 23.45C127.588 23.25 127.751 22.9767 127.858 22.63C127.965 22.2767 128.025 21.8667 128.038 21.4C128.071 20.3733 127.931 19.4933 127.618 18.76C127.305 18.0267 126.868 17.4233 126.308 16.95C125.755 16.4767 125.128 16.13 124.428 15.91C123.735 15.6833 123.015 15.57 122.268 15.57C121.301 15.57 120.441 15.7267 119.688 16.04C118.941 16.3533 118.308 16.7933 117.788 17.36C117.275 17.92 116.885 18.5733 116.618 19.32C116.358 20.0667 116.235 20.8733 116.248 21.74C116.268 22.6133 116.428 23.4133 116.728 24.14C117.028 24.86 117.445 25.48 117.978 26C118.518 26.52 119.148 26.92 119.868 27.2C120.595 27.4867 121.385 27.63 122.238 27.63C122.758 27.63 123.275 27.5667 123.788 27.44C124.308 27.3133 124.775 27.14 125.188 26.92L125.708 28.26C125.161 28.54 124.588 28.75 123.988 28.89C123.388 29.03 122.778 29.1 122.158 29.1ZM122.038 23.56C122.538 23.56 122.948 23.4167 123.268 23.13C123.595 22.8433 123.758 22.38 123.758 21.74C123.758 21.1333 123.608 20.6767 123.308 20.37C123.008 20.0633 122.598 19.91 122.078 19.91C121.478 19.91 121.021 20.0733 120.708 20.4C120.401 20.72 120.248 21.1667 120.248 21.74C120.248 22.32 120.408 22.77 120.728 23.09C121.048 23.4033 121.485 23.56 122.038 23.56ZM137.583 27.3C136.569 27.3 135.716 27.05 135.023 26.55C134.329 26.0433 133.803 25.36 133.443 24.5C133.089 23.6333 132.913 22.6633 132.913 21.59C132.913 20.5033 133.089 19.53 133.443 18.67C133.803 17.81 134.329 17.1333 135.023 16.64C135.723 16.1467 136.579 15.9 137.593 15.9C138.593 15.9 139.453 16.15 140.173 16.65C140.899 17.1433 141.456 17.82 141.843 18.68C142.229 19.54 142.423 20.51 142.423 21.59C142.423 22.67 142.229 23.64 141.843 24.5C141.456 25.36 140.899 26.0433 140.173 26.55C139.453 27.05 138.589 27.3 137.583 27.3ZM132.613 31.8V16.2H134.203V24.15H134.403V31.8H132.613ZM137.363 25.67C138.076 25.67 138.666 25.49 139.133 25.13C139.599 24.77 139.949 24.2833 140.183 23.67C140.416 23.05 140.533 22.3567 140.533 21.59C140.533 20.83 140.416 20.1433 140.183 19.53C139.956 18.9167 139.603 18.43 139.123 18.07C138.649 17.71 138.046 17.53 137.313 17.53C136.613 17.53 136.033 17.7033 135.573 18.05C135.113 18.39 134.769 18.8667 134.543 19.48C134.316 20.0867 134.203 20.79 134.203 21.59C134.203 22.3767 134.313 23.08 134.533 23.7C134.759 24.3133 135.106 24.7967 135.573 25.15C136.039 25.4967 136.636 25.67 137.363 25.67ZM147.685 27.3C146.878 27.3 146.202 27.1533 145.655 26.86C145.115 26.56 144.705 26.1667 144.425 25.68C144.152 25.1933 144.015 24.66 144.015 24.08C144.015 23.5133 144.122 23.0233 144.335 22.61C144.555 22.19 144.862 21.8433 145.255 21.57C145.648 21.29 146.118 21.07 146.665 20.91C147.178 20.77 147.752 20.65 148.385 20.55C149.025 20.4433 149.672 20.3467 150.325 20.26C150.978 20.1733 151.588 20.09 152.155 20.01L151.515 20.38C151.535 19.42 151.342 18.71 150.935 18.25C150.535 17.79 149.842 17.56 148.855 17.56C148.202 17.56 147.628 17.71 147.135 18.01C146.648 18.3033 146.305 18.7833 146.105 19.45L144.415 18.94C144.675 17.9933 145.178 17.25 145.925 16.71C146.672 16.17 147.655 15.9 148.875 15.9C149.855 15.9 150.695 16.0767 151.395 16.43C152.102 16.7767 152.608 17.3033 152.915 18.01C153.068 18.3433 153.165 18.7067 153.205 19.1C153.245 19.4867 153.265 19.8933 153.265 20.32V27H151.685V24.41L152.055 24.65C151.648 25.5233 151.078 26.1833 150.345 26.63C149.618 27.0767 148.732 27.3 147.685 27.3ZM147.955 25.81C148.595 25.81 149.148 25.6967 149.615 25.47C150.088 25.2367 150.468 24.9333 150.755 24.56C151.042 24.18 151.228 23.7667 151.315 23.32C151.415 22.9867 151.468 22.6167 151.475 22.21C151.488 21.7967 151.495 21.48 151.495 21.26L152.115 21.53C151.535 21.61 150.965 21.6867 150.405 21.76C149.845 21.8333 149.315 21.9133 148.815 22C148.315 22.08 147.865 22.1767 147.465 22.29C147.172 22.3833 146.895 22.5033 146.635 22.65C146.382 22.7967 146.175 22.9867 146.015 23.22C145.862 23.4467 145.785 23.73 145.785 24.07C145.785 24.3633 145.858 24.6433 146.005 24.91C146.158 25.1767 146.392 25.3933 146.705 25.56C147.025 25.7267 147.442 25.81 147.955 25.81ZM160.825 27.3C159.812 27.3 158.958 27.05 158.265 26.55C157.572 26.0433 157.045 25.36 156.685 24.5C156.332 23.6333 156.155 22.6633 156.155 21.59C156.155 20.5033 156.332 19.53 156.685 18.67C157.045 17.81 157.572 17.1333 158.265 16.64C158.965 16.1467 159.822 15.9 160.835 15.9C161.835 15.9 162.695 16.15 163.415 16.65C164.142 17.1433 164.698 17.82 165.085 18.68C165.472 19.54 165.665 20.51 165.665 21.59C165.665 22.67 165.472 23.64 165.085 24.5C164.698 25.36 164.142 26.0433 163.415 26.55C162.695 27.05 161.832 27.3 160.825 27.3ZM155.855 31.8V16.2H157.445V24.15H157.645V31.8H155.855ZM160.605 25.67C161.318 25.67 161.908 25.49 162.375 25.13C162.842 24.77 163.192 24.2833 163.425 23.67C163.658 23.05 163.775 22.3567 163.775 21.59C163.775 20.83 163.658 20.1433 163.425 19.53C163.198 18.9167 162.845 18.43 162.365 18.07C161.892 17.71 161.288 17.53 160.555 17.53C159.855 17.53 159.275 17.7033 158.815 18.05C158.355 18.39 158.012 18.8667 157.785 19.48C157.558 20.0867 157.445 20.79 157.445 21.59C157.445 22.3767 157.555 23.08 157.775 23.7C158.002 24.3133 158.348 24.7967 158.815 25.15C159.282 25.4967 159.878 25.67 160.605 25.67ZM170.927 27.3C170.12 27.3 169.444 27.1533 168.897 26.86C168.357 26.56 167.947 26.1667 167.667 25.68C167.394 25.1933 167.257 24.66 167.257 24.08C167.257 23.5133 167.364 23.0233 167.577 22.61C167.797 22.19 168.104 21.8433 168.497 21.57C168.89 21.29 169.36 21.07 169.907 20.91C170.42 20.77 170.994 20.65 171.627 20.55C172.267 20.4433 172.914 20.3467 173.567 20.26C174.22 20.1733 174.83 20.09 175.397 20.01L174.757 20.38C174.777 19.42 174.584 18.71 174.177 18.25C173.777 17.79 173.084 17.56 172.097 17.56C171.444 17.56 170.87 17.71 170.377 18.01C169.89 18.3033 169.547 18.7833 169.347 19.45L167.657 18.94C167.917 17.9933 168.42 17.25 169.167 16.71C169.914 16.17 170.897 15.9 172.117 15.9C173.097 15.9 173.937 16.0767 174.637 16.43C175.344 16.7767 175.85 17.3033 176.157 18.01C176.31 18.3433 176.407 18.7067 176.447 19.1C176.487 19.4867 176.507 19.8933 176.507 20.32V27H174.927V24.41L175.297 24.65C174.89 25.5233 174.32 26.1833 173.587 26.63C172.86 27.0767 171.974 27.3 170.927 27.3ZM171.197 25.81C171.837 25.81 172.39 25.6967 172.857 25.47C173.33 25.2367 173.71 24.9333 173.997 24.56C174.284 24.18 174.47 23.7667 174.557 23.32C174.657 22.9867 174.71 22.6167 174.717 22.21C174.73 21.7967 174.737 21.48 174.737 21.26L175.357 21.53C174.777 21.61 174.207 21.6867 173.647 21.76C173.087 21.8333 172.557 21.9133 172.057 22C171.557 22.08 171.107 22.1767 170.707 22.29C170.414 22.3833 170.137 22.5033 169.877 22.65C169.624 22.7967 169.417 22.9867 169.257 23.22C169.104 23.4467 169.027 23.73 169.027 24.07C169.027 24.3633 169.1 24.6433 169.247 24.91C169.4 25.1767 169.634 25.3933 169.947 25.56C170.267 25.7267 170.684 25.81 171.197 25.81ZM177.707 29.23V27.76H190.907V29.23H177.707ZM197.27 27.3C196.257 27.3 195.403 27.05 194.71 26.55C194.017 26.0433 193.49 25.36 193.13 24.5C192.777 23.6333 192.6 22.6633 192.6 21.59C192.6 20.5033 192.777 19.53 193.13 18.67C193.49 17.81 194.017 17.1333 194.71 16.64C195.41 16.1467 196.267 15.9 197.28 15.9C198.28 15.9 199.14 16.15 199.86 16.65C200.587 17.1433 201.143 17.82 201.53 18.68C201.917 19.54 202.11 20.51 202.11 21.59C202.11 22.67 201.917 23.64 201.53 24.5C201.143 25.36 200.587 26.0433 199.86 26.55C199.14 27.05 198.277 27.3 197.27 27.3ZM192.3 31.8V16.2H193.89V24.15H194.09V31.8H192.3ZM197.05 25.67C197.763 25.67 198.353 25.49 198.82 25.13C199.287 24.77 199.637 24.2833 199.87 23.67C200.103 23.05 200.22 22.3567 200.22 21.59C200.22 20.83 200.103 20.1433 199.87 19.53C199.643 18.9167 199.29 18.43 198.81 18.07C198.337 17.71 197.733 17.53 197 17.53C196.3 17.53 195.72 17.7033 195.26 18.05C194.8 18.39 194.457 18.8667 194.23 19.48C194.003 20.0867 193.89 20.79 193.89 21.59C193.89 22.3767 194 23.08 194.22 23.7C194.447 24.3133 194.793 24.7967 195.26 25.15C195.727 25.4967 196.323 25.67 197.05 25.67ZM208.226 27.29C206.939 27.29 205.883 27.01 205.056 26.45C204.236 25.8833 203.733 25.0933 203.546 24.08L205.366 23.79C205.513 24.3767 205.849 24.8433 206.376 25.19C206.903 25.53 207.556 25.7 208.336 25.7C209.076 25.7 209.656 25.5467 210.076 25.24C210.496 24.9333 210.706 24.5167 210.706 23.99C210.706 23.6833 210.636 23.4367 210.496 23.25C210.356 23.0567 210.066 22.8767 209.626 22.71C209.193 22.5433 208.536 22.3433 207.656 22.11C206.703 21.8567 205.953 21.5933 205.406 21.32C204.859 21.0467 204.469 20.73 204.236 20.37C204.003 20.01 203.886 19.5733 203.886 19.06C203.886 18.4267 204.059 17.8733 204.406 17.4C204.753 16.92 205.236 16.55 205.856 16.29C206.483 16.03 207.209 15.9 208.036 15.9C208.856 15.9 209.589 16.03 210.236 16.29C210.883 16.55 211.403 16.92 211.796 17.4C212.196 17.8733 212.433 18.4267 212.506 19.06L210.686 19.39C210.599 18.81 210.319 18.3533 209.846 18.02C209.379 17.6867 208.776 17.51 208.036 17.49C207.336 17.4633 206.766 17.5867 206.326 17.86C205.893 18.1333 205.676 18.5033 205.676 18.97C205.676 19.23 205.756 19.4533 205.916 19.64C206.083 19.8267 206.386 20.0033 206.826 20.17C207.273 20.3367 207.919 20.5267 208.766 20.74C209.719 20.98 210.469 21.2433 211.016 21.53C211.569 21.81 211.963 22.1433 212.196 22.53C212.429 22.91 212.546 23.38 212.546 23.94C212.546 24.98 212.163 25.8 211.396 26.4C210.629 26.9933 209.573 27.29 208.226 27.29ZM215.861 31.8L217.951 26.12L217.981 27.8L213.261 16.2H215.131L218.831 25.53H218.191L221.661 16.2H223.471L217.591 31.8H215.861ZM234.257 30.06C233.477 29.16 232.807 28.15 232.247 27.03C231.687 25.91 231.257 24.7333 230.957 23.5C230.657 22.2667 230.513 21.0333 230.527 19.8C230.513 18.56 230.657 17.3233 230.957 16.09C231.257 14.8567 231.687 13.6833 232.247 12.57C232.807 11.45 233.477 10.44 234.257 9.54L235.577 10.54C234.79 11.4733 234.143 12.4433 233.637 13.45C233.137 14.4567 232.767 15.4933 232.527 16.56C232.287 17.62 232.163 18.7 232.157 19.8C232.163 20.8867 232.287 21.9667 232.527 23.04C232.773 24.1067 233.147 25.1467 233.647 26.16C234.153 27.1667 234.797 28.13 235.577 29.05L234.257 30.06ZM242.078 27.3C241.338 27.3 240.648 27.1467 240.008 26.84C239.375 26.5333 238.831 26.1133 238.378 25.58C237.931 25.04 237.611 24.42 237.418 23.72L239.128 23.26C239.248 23.7333 239.461 24.1433 239.768 24.49C240.075 24.83 240.431 25.0967 240.838 25.29C241.251 25.4767 241.681 25.57 242.128 25.57C242.715 25.57 243.241 25.43 243.708 25.15C244.181 24.8633 244.555 24.4867 244.828 24.02C245.101 23.5467 245.238 23.03 245.238 22.47C245.238 21.89 245.095 21.3667 244.808 20.9C244.528 20.4267 244.151 20.0533 243.678 19.78C243.205 19.5067 242.688 19.37 242.128 19.37C241.495 19.37 240.951 19.5033 240.498 19.77C240.051 20.03 239.698 20.35 239.438 20.73L237.858 20.13L238.298 12.6H246.028V14.29H239.158L239.948 13.55L239.578 19.58L239.188 19.07C239.588 18.6433 240.065 18.3133 240.618 18.08C241.178 17.8467 241.748 17.73 242.328 17.73C243.221 17.73 244.021 17.94 244.728 18.36C245.435 18.7733 245.995 19.34 246.408 20.06C246.821 20.7733 247.028 21.5767 247.028 22.47C247.028 23.3567 246.801 24.1667 246.348 24.9C245.895 25.6267 245.291 26.21 244.538 26.65C243.791 27.0833 242.971 27.3 242.078 27.3ZM254.28 27.3C253.346 27.3 252.513 27.09 251.78 26.67C251.053 26.2433 250.476 25.6667 250.05 24.94C249.63 24.2067 249.42 23.3733 249.42 22.44V17.16C249.42 16.2267 249.63 15.3933 250.05 14.66C250.476 13.9267 251.053 13.35 251.78 12.93C252.513 12.51 253.346 12.3 254.28 12.3C255.213 12.3 256.046 12.51 256.78 12.93C257.513 13.35 258.09 13.9267 258.51 14.66C258.93 15.3933 259.14 16.2267 259.14 17.16V22.44C259.14 23.3733 258.93 24.2067 258.51 24.94C258.09 25.6667 257.513 26.2433 256.78 26.67C256.046 27.09 255.213 27.3 254.28 27.3ZM254.28 25.59C254.846 25.59 255.36 25.4533 255.82 25.18C256.28 24.9067 256.646 24.54 256.92 24.08C257.193 23.6133 257.33 23.1 257.33 22.54V17.05C257.33 16.4833 257.193 15.97 256.92 15.51C256.646 15.05 256.28 14.6833 255.82 14.41C255.36 14.1367 254.846 14 254.28 14C253.72 14 253.206 14.1367 252.74 14.41C252.28 14.6833 251.913 15.05 251.64 15.51C251.366 15.97 251.23 16.4833 251.23 17.05V22.54C251.23 23.1 251.366 23.6133 251.64 24.08C251.913 24.54 252.28 24.9067 252.74 25.18C253.206 25.4533 253.72 25.59 254.28 25.59ZM270.803 27.3C269.87 27.3 269.036 27.09 268.303 26.67C267.576 26.2433 267 25.6667 266.573 24.94C266.153 24.2067 265.943 23.3733 265.943 22.44V17.16C265.943 16.2267 266.153 15.3933 266.573 14.66C267 13.9267 267.576 13.35 268.303 12.93C269.036 12.51 269.87 12.3 270.803 12.3C271.736 12.3 272.57 12.51 273.303 12.93C274.036 13.35 274.613 13.9267 275.033 14.66C275.453 15.3933 275.663 16.2267 275.663 17.16V22.44C275.663 23.3733 275.453 24.2067 275.033 24.94C274.613 25.6667 274.036 26.2433 273.303 26.67C272.57 27.09 271.736 27.3 270.803 27.3ZM270.803 25.59C271.37 25.59 271.883 25.4533 272.343 25.18C272.803 24.9067 273.17 24.54 273.443 24.08C273.716 23.6133 273.853 23.1 273.853 22.54V17.05C273.853 16.4833 273.716 15.97 273.443 15.51C273.17 15.05 272.803 14.6833 272.343 14.41C271.883 14.1367 271.37 14 270.803 14C270.243 14 269.73 14.1367 269.263 14.41C268.803 14.6833 268.436 15.05 268.163 15.51C267.89 15.97 267.753 16.4833 267.753 17.05V22.54C267.753 23.1 267.89 23.6133 268.163 24.08C268.436 24.54 268.803 24.9067 269.263 25.18C269.73 25.4533 270.243 25.59 270.803 25.59ZM283.323 27.3C282.389 27.3 281.556 27.09 280.823 26.67C280.096 26.2433 279.519 25.6667 279.093 24.94C278.673 24.2067 278.463 23.3733 278.463 22.44V17.16C278.463 16.2267 278.673 15.3933 279.093 14.66C279.519 13.9267 280.096 13.35 280.823 12.93C281.556 12.51 282.389 12.3 283.323 12.3C284.256 12.3 285.089 12.51 285.823 12.93C286.556 13.35 287.133 13.9267 287.553 14.66C287.973 15.3933 288.183 16.2267 288.183 17.16V22.44C288.183 23.3733 287.973 24.2067 287.553 24.94C287.133 25.6667 286.556 26.2433 285.823 26.67C285.089 27.09 284.256 27.3 283.323 27.3ZM283.323 25.59C283.889 25.59 284.403 25.4533 284.863 25.18C285.323 24.9067 285.689 24.54 285.963 24.08C286.236 23.6133 286.373 23.1 286.373 22.54V17.05C286.373 16.4833 286.236 15.97 285.963 15.51C285.689 15.05 285.323 14.6833 284.863 14.41C284.403 14.1367 283.889 14 283.323 14C282.763 14 282.249 14.1367 281.783 14.41C281.323 14.6833 280.956 15.05 280.683 15.51C280.409 15.97 280.273 16.4833 280.273 17.05V22.54C280.273 23.1 280.409 23.6133 280.683 24.08C280.956 24.54 281.323 24.9067 281.783 25.18C282.249 25.4533 282.763 25.59 283.323 25.59ZM295.842 27.3C294.909 27.3 294.075 27.09 293.342 26.67C292.615 26.2433 292.039 25.6667 291.612 24.94C291.192 24.2067 290.982 23.3733 290.982 22.44V17.16C290.982 16.2267 291.192 15.3933 291.612 14.66C292.039 13.9267 292.615 13.35 293.342 12.93C294.075 12.51 294.909 12.3 295.842 12.3C296.775 12.3 297.609 12.51 298.342 12.93C299.075 13.35 299.652 13.9267 300.072 14.66C300.492 15.3933 300.702 16.2267 300.702 17.16V22.44C300.702 23.3733 300.492 24.2067 300.072 24.94C299.652 25.6667 299.075 26.2433 298.342 26.67C297.609 27.09 296.775 27.3 295.842 27.3ZM295.842 25.59C296.409 25.59 296.922 25.4533 297.382 25.18C297.842 24.9067 298.209 24.54 298.482 24.08C298.755 23.6133 298.892 23.1 298.892 22.54V17.05C298.892 16.4833 298.755 15.97 298.482 15.51C298.209 15.05 297.842 14.6833 297.382 14.41C296.922 14.1367 296.409 14 295.842 14C295.282 14 294.769 14.1367 294.302 14.41C293.842 14.6833 293.475 15.05 293.202 15.51C292.929 15.97 292.792 16.4833 292.792 17.05V22.54C292.792 23.1 292.929 23.6133 293.202 24.08C293.475 24.54 293.842 24.9067 294.302 25.18C294.769 25.4533 295.282 25.59 295.842 25.59ZM307.122 24.35V20.53H303.302V19.06H307.122V15.25H308.592V19.06H312.402V20.53H308.592V24.35H307.122ZM19.36 54.3C18.3467 54.3 17.4933 54.05 16.8 53.55C16.1067 53.0433 15.58 52.36 15.22 51.5C14.8667 50.6333 14.69 49.6633 14.69 48.59C14.69 47.5033 14.8667 46.53 15.22 45.67C15.58 44.81 16.1067 44.1333 16.8 43.64C17.5 43.1467 18.3567 42.9 19.37 42.9C20.37 42.9 21.23 43.15 21.95 43.65C22.6767 44.1433 23.2333 44.82 23.62 45.68C24.0067 46.54 24.2 47.51 24.2 48.59C24.2 49.67 24.0067 50.64 23.62 51.5C23.2333 52.36 22.6767 53.0433 21.95 53.55C21.23 54.05 20.3667 54.3 19.36 54.3ZM14.39 58.8V43.2H15.98V51.15H16.18V58.8H14.39ZM19.14 52.67C19.8533 52.67 20.4433 52.49 20.91 52.13C21.3767 51.77 21.7267 51.2833 21.96 50.67C22.1933 50.05 22.31 49.3567 22.31 48.59C22.31 47.83 22.1933 47.1433 21.96 46.53C21.7333 45.9167 21.38 45.43 20.9 45.07C20.4267 44.71 19.8233 44.53 19.09 44.53C18.39 44.53 17.81 44.7033 17.35 45.05C16.89 45.39 16.5467 45.8667 16.32 46.48C16.0933 47.0867 15.98 47.79 15.98 48.59C15.98 49.3767 16.09 50.08 16.31 50.7C16.5367 51.3133 16.8833 51.7967 17.35 52.15C17.8167 52.4967 18.4133 52.67 19.14 52.67ZM30.9922 54.3C29.9189 54.3 28.9922 54.0567 28.2122 53.57C27.4389 53.0833 26.8422 52.41 26.4222 51.55C26.0022 50.69 25.7922 49.7033 25.7922 48.59C25.7922 47.4567 26.0055 46.4633 26.4322 45.61C26.8589 44.7567 27.4622 44.0933 28.2422 43.62C29.0222 43.14 29.9389 42.9 30.9922 42.9C32.0722 42.9 33.0022 43.1433 33.7822 43.63C34.5622 44.11 35.1589 44.78 35.5722 45.64C35.9922 46.4933 36.2022 47.4767 36.2022 48.59C36.2022 49.7167 35.9922 50.71 35.5722 51.57C35.1522 52.4233 34.5522 53.0933 33.7722 53.58C32.9922 54.06 32.0655 54.3 30.9922 54.3ZM30.9922 52.61C32.1122 52.61 32.9455 52.2367 33.4922 51.49C34.0389 50.7433 34.3122 49.7767 34.3122 48.59C34.3122 47.37 34.0355 46.4 33.4822 45.68C32.9289 44.9533 32.0989 44.59 30.9922 44.59C30.2389 44.59 29.6189 44.76 29.1322 45.1C28.6455 45.44 28.2822 45.91 28.0422 46.51C27.8022 47.11 27.6822 47.8033 27.6822 48.59C27.6822 49.8033 27.9622 50.7767 28.5222 51.51C29.0822 52.2433 29.9055 52.61 30.9922 52.61ZM37.6039 56.4V52.53C38.2106 52.53 38.6439 52.3333 38.9039 51.94C39.1639 51.54 39.3739 50.8833 39.5339 49.97C39.6406 49.3967 39.7272 48.7833 39.7939 48.13C39.8606 47.4767 39.9172 46.75 39.9639 45.95C40.0172 45.1433 40.0672 44.2267 40.1139 43.2H47.5539V52.53H48.6039V56.4H46.9039V54H39.3039V56.4H37.6039ZM40.3439 52.53H45.7739V44.67H41.7239C41.7039 45.1433 41.6772 45.64 41.6439 46.16C41.6106 46.6733 41.5706 47.1867 41.5239 47.7C41.4839 48.2133 41.4339 48.7 41.3739 49.16C41.3206 49.6133 41.2572 50.02 41.1839 50.38C41.0972 50.88 40.9972 51.3033 40.8839 51.65C40.7706 51.9967 40.5906 52.29 40.3439 52.53ZM59.4509 43.2V54H57.7309V46.04L52.0709 54H50.6009V43.2H52.3209V51.05L57.9909 43.2H59.4509ZM65.1116 54V44.82H61.3516V43.2H70.6516V44.82H66.8916V54H65.1116ZM77.2245 54.3C76.1645 54.3 75.2379 54.0667 74.4445 53.6C73.6579 53.1267 73.0445 52.47 72.6045 51.63C72.1645 50.7833 71.9445 49.7967 71.9445 48.67C71.9445 47.49 72.1612 46.47 72.5945 45.61C73.0279 44.7433 73.6312 44.0767 74.4045 43.61C75.1845 43.1367 76.0979 42.9 77.1445 42.9C78.2312 42.9 79.1545 43.15 79.9145 43.65C80.6812 44.15 81.2545 44.8633 81.6345 45.79C82.0212 46.7167 82.1879 47.82 82.1345 49.1H80.3345V48.46C80.3145 47.1333 80.0445 46.1433 79.5245 45.49C79.0045 44.83 78.2312 44.5 77.2045 44.5C76.1045 44.5 75.2679 44.8533 74.6945 45.56C74.1212 46.2667 73.8345 47.28 73.8345 48.6C73.8345 49.8733 74.1212 50.86 74.6945 51.56C75.2679 52.26 76.0845 52.61 77.1445 52.61C77.8579 52.61 78.4779 52.4467 79.0045 52.12C79.5312 51.7933 79.9445 51.3233 80.2445 50.71L81.9545 51.3C81.5345 52.2533 80.9012 52.9933 80.0545 53.52C79.2145 54.04 78.2712 54.3 77.2245 54.3ZM73.2345 49.1V47.67H81.2145V49.1H73.2345ZM83.3609 54V52.47C83.7609 52.5433 84.0643 52.53 84.2709 52.43C84.4843 52.3233 84.6409 52.14 84.7409 51.88C84.8476 51.6133 84.9343 51.28 85.0009 50.88C85.1143 50.2467 85.2109 49.54 85.2909 48.76C85.3776 47.98 85.4543 47.1267 85.5209 46.2C85.5943 45.2667 85.6609 44.2667 85.7209 43.2H93.2709V54H91.4909V44.89H87.3409C87.3009 45.5033 87.2509 46.1333 87.1909 46.78C87.1376 47.4267 87.0809 48.0567 87.0209 48.67C86.9609 49.2767 86.8943 49.8433 86.8209 50.37C86.7543 50.89 86.6809 51.34 86.6009 51.72C86.4743 52.3733 86.2976 52.8967 86.0709 53.29C85.8443 53.6767 85.5176 53.9267 85.0909 54.04C84.6643 54.16 84.0876 54.1467 83.3609 54ZM100.76 54.3C99.6997 54.3 98.773 54.0667 97.9797 53.6C97.193 53.1267 96.5797 52.47 96.1397 51.63C95.6997 50.7833 95.4797 49.7967 95.4797 48.67C95.4797 47.49 95.6964 46.47 96.1297 45.61C96.563 44.7433 97.1664 44.0767 97.9397 43.61C98.7197 43.1367 99.633 42.9 100.68 42.9C101.766 42.9 102.69 43.15 103.45 43.65C104.216 44.15 104.79 44.8633 105.17 45.79C105.556 46.7167 105.723 47.82 105.67 49.1H103.87V48.46C103.85 47.1333 103.58 46.1433 103.06 45.49C102.54 44.83 101.766 44.5 100.74 44.5C99.6397 44.5 98.803 44.8533 98.2297 45.56C97.6564 46.2667 97.3697 47.28 97.3697 48.6C97.3697 49.8733 97.6564 50.86 98.2297 51.56C98.803 52.26 99.6197 52.61 100.68 52.61C101.393 52.61 102.013 52.4467 102.54 52.12C103.066 51.7933 103.48 51.3233 103.78 50.71L105.49 51.3C105.07 52.2533 104.436 52.9933 103.59 53.52C102.75 54.04 101.806 54.3 100.76 54.3ZM96.7697 49.1V47.67H104.75V49.1H96.7697ZM112.546 41.94C112.046 41.94 111.589 41.8167 111.176 41.57C110.763 41.3233 110.433 40.9967 110.186 40.59C109.939 40.1767 109.816 39.7167 109.816 39.21H111.256C111.256 39.5633 111.383 39.8667 111.636 40.12C111.889 40.3733 112.193 40.5 112.546 40.5C112.906 40.5 113.209 40.3733 113.456 40.12C113.709 39.8667 113.836 39.5633 113.836 39.21H115.276C115.276 39.7167 115.153 40.1767 114.906 40.59C114.666 40.9967 114.336 41.3233 113.916 41.57C113.503 41.8167 113.046 41.94 112.546 41.94ZM116.736 43.2V54H115.016V46.04L109.356 54H107.886V43.2H109.606V51.05L115.276 43.2H116.736ZM120.307 57.66L118.987 56.65C119.767 55.73 120.407 54.7667 120.907 53.76C121.413 52.7467 121.79 51.7067 122.037 50.64C122.283 49.5667 122.407 48.4867 122.407 47.4C122.407 46.3 122.283 45.22 122.037 44.16C121.797 43.0933 121.423 42.0567 120.917 41.05C120.417 40.0433 119.773 39.0733 118.987 38.14L120.307 37.14C121.087 38.04 121.757 39.05 122.317 40.17C122.883 41.2833 123.313 42.4567 123.607 43.69C123.907 44.9233 124.05 46.16 124.037 47.4C124.05 48.6333 123.907 49.8667 123.607 51.1C123.313 52.3333 122.883 53.51 122.317 54.63C121.757 55.75 121.087 56.76 120.307 57.66Z" fill="#130531"></path></svg> 