<?xml version="1.0" encoding="UTF-8"?> <svg xmlns="http://www.w3.org/2000/svg" width="331" height="55" viewBox="0 0 331 55" fill="none"><path d="M0 16C0 7.16344 7.16344 0 16 0H314.5C323.337 0 330.5 7.16344 330.5 16V16C330.5 24.8366 323.337 32 314.5 32H284.5C278.149 32 273 37.1487 273 43.5V43.5C273 49.8513 267.851 55 261.5 55H78C71.6487 55 66.5 49.8513 66.5 43.5V43.5C66.5 37.1487 61.3513 32 55 32H16C7.16344 32 0 24.8366 0 16V16Z" fill="white"></path><path d="M16.5738 21V8.76H21.3423C22.0733 8.76 22.6966 8.91017 23.2123 9.2105C23.7336 9.51083 24.1303 9.9075 24.4023 10.4005C24.68 10.8878 24.8188 11.4148 24.8188 11.9815C24.8188 12.6445 24.6488 13.2253 24.3088 13.724C23.9688 14.2227 23.5098 14.5655 22.9318 14.7525L22.9148 14.336C23.7025 14.5457 24.3145 14.931 24.7508 15.492C25.1871 16.053 25.4053 16.7217 25.4053 17.498C25.4053 18.212 25.258 18.8297 24.9633 19.351C24.6743 19.8723 24.255 20.2775 23.7053 20.5665C23.1613 20.8555 22.5153 21 21.7673 21H16.5738ZM18.1038 19.555H21.4783C21.9316 19.555 22.3368 19.4728 22.6938 19.3085C23.0508 19.1385 23.3313 18.9005 23.5353 18.5945C23.745 18.2885 23.8498 17.9202 23.8498 17.4895C23.8498 17.0758 23.7563 16.7047 23.5693 16.376C23.388 16.0473 23.1301 15.7867 22.7958 15.594C22.4671 15.3957 22.0846 15.2965 21.6483 15.2965H18.1038V19.555ZM18.1038 13.8685H21.3253C21.688 13.8685 22.0138 13.792 22.3028 13.639C22.5975 13.4803 22.8298 13.2593 22.9998 12.976C23.1755 12.6927 23.2633 12.3612 23.2633 11.9815C23.2633 11.4545 23.0848 11.0238 22.7278 10.6895C22.3708 10.3552 21.9033 10.188 21.3253 10.188H18.1038V13.8685ZM31.0772 21.255C30.1762 21.255 29.3885 21.0567 28.7142 20.66C28.0455 20.2577 27.5242 19.6995 27.1502 18.9855C26.7762 18.2658 26.5892 17.4272 26.5892 16.4695C26.5892 15.4665 26.7733 14.5995 27.1417 13.8685C27.51 13.1318 28.0228 12.5652 28.6802 12.1685C29.3432 11.7662 30.1195 11.565 31.0092 11.565C31.9328 11.565 32.7177 11.7775 33.3637 12.2025C34.0153 12.6275 34.5027 13.2338 34.8257 14.0215C35.1543 14.8092 35.296 15.747 35.2507 16.835H33.7207V16.291C33.7037 15.1633 33.4742 14.3218 33.0322 13.7665C32.5902 13.2055 31.9328 12.925 31.0602 12.925C30.1252 12.925 29.414 13.2253 28.9267 13.826C28.4393 14.4267 28.1957 15.288 28.1957 16.41C28.1957 17.4923 28.4393 18.331 28.9267 18.926C29.414 19.521 30.1082 19.8185 31.0092 19.8185C31.6155 19.8185 32.1425 19.6797 32.5902 19.402C33.0378 19.1243 33.3892 18.7248 33.6442 18.2035L35.0977 18.705C34.7407 19.5153 34.2023 20.1443 33.4827 20.592C32.7687 21.034 31.9668 21.255 31.0772 21.255ZM27.6857 16.835V15.6195H34.4687V16.835H27.6857ZM36.4631 23.04V19.7505C36.9788 19.7505 37.3471 19.5833 37.5681 19.249C37.7891 18.909 37.9676 18.3508 38.1036 17.5745C38.1943 17.0872 38.268 16.5658 38.3246 16.0105C38.3813 15.4552 38.4295 14.8375 38.4691 14.1575C38.5145 13.4718 38.557 12.6927 38.5966 11.82H44.9206V19.7505H45.8131V23.04H44.3681V21H37.9081V23.04H36.4631ZM38.7921 19.7505H43.4076V13.0695H39.9651C39.9481 13.4718 39.9255 13.894 39.8971 14.336C39.8688 14.7723 39.8348 15.2087 39.7951 15.645C39.7611 16.0813 39.7186 16.495 39.6676 16.886C39.6223 17.2713 39.5685 17.617 39.5061 17.923C39.4325 18.348 39.3475 18.7078 39.2511 19.0025C39.1548 19.2972 39.0018 19.5465 38.7921 19.7505ZM48.7941 25.08L50.5706 20.252L50.5961 21.68L46.5841 11.82H48.1736L51.3186 19.7505H50.7746L53.7241 11.82H55.2626L50.2646 25.08H48.7941ZM60.0614 21L60.0699 11.82H61.5999V16.24L65.4504 11.82H67.4139L63.3594 16.41L67.8899 21H65.7734L61.5999 16.58V21H60.0614ZM71.3454 21.255C70.6597 21.255 70.0846 21.1303 69.6199 20.881C69.1609 20.626 68.8124 20.2917 68.5744 19.878C68.3421 19.4643 68.2259 19.011 68.2259 18.518C68.2259 18.0363 68.3166 17.6198 68.4979 17.2685C68.6849 16.9115 68.9456 16.6168 69.2799 16.3845C69.6142 16.1465 70.0137 15.9595 70.4784 15.8235C70.9147 15.7045 71.4021 15.6025 71.9404 15.5175C72.4844 15.4268 73.0341 15.3447 73.5894 15.271C74.1447 15.1973 74.6632 15.1265 75.1449 15.0585L74.6009 15.373C74.6179 14.557 74.4536 13.9535 74.1079 13.5625C73.7679 13.1715 73.1786 12.976 72.3399 12.976C71.7846 12.976 71.2972 13.1035 70.8779 13.3585C70.4642 13.6078 70.1724 14.0158 70.0024 14.5825L68.5659 14.149C68.7869 13.3443 69.2147 12.7125 69.8494 12.2535C70.4841 11.7945 71.3199 11.565 72.3569 11.565C73.1899 11.565 73.9039 11.7152 74.4989 12.0155C75.0996 12.3102 75.5302 12.7578 75.7909 13.3585C75.9212 13.6418 76.0034 13.9507 76.0374 14.285C76.0714 14.6137 76.0884 14.9593 76.0884 15.322V21H74.7454V18.7985L75.0599 19.0025C74.7142 19.7448 74.2297 20.3058 73.6064 20.6855C72.9887 21.0652 72.2351 21.255 71.3454 21.255ZM71.5749 19.9885C72.1189 19.9885 72.5892 19.8922 72.9859 19.6995C73.3882 19.5012 73.7112 19.2433 73.9549 18.926C74.1986 18.603 74.3572 18.2517 74.4309 17.872C74.5159 17.5887 74.5612 17.2742 74.5669 16.9285C74.5782 16.5772 74.5839 16.308 74.5839 16.121L75.1109 16.3505C74.6179 16.4185 74.1334 16.4837 73.6574 16.546C73.1814 16.6083 72.7309 16.6763 72.3059 16.75C71.8809 16.818 71.4984 16.9002 71.1584 16.9965C70.9091 17.0758 70.6739 17.1778 70.4529 17.3025C70.2376 17.4272 70.0619 17.5887 69.9259 17.787C69.7956 17.9797 69.7304 18.2205 69.7304 18.5095C69.7304 18.7588 69.7927 18.9968 69.9174 19.2235C70.0477 19.4502 70.2461 19.6343 70.5124 19.776C70.7844 19.9177 71.1386 19.9885 71.5749 19.9885ZM78.2899 21V11.82H79.8029V15.6875H84.6309V11.82H86.1439V21H84.6309V17.124H79.8029V21H78.2899ZM91.1345 21.255C90.4488 21.255 89.8736 21.1303 89.409 20.881C88.95 20.626 88.6015 20.2917 88.3635 19.878C88.1311 19.4643 88.015 19.011 88.015 18.518C88.015 18.0363 88.1056 17.6198 88.287 17.2685C88.474 16.9115 88.7346 16.6168 89.069 16.3845C89.4033 16.1465 89.8028 15.9595 90.2675 15.8235C90.7038 15.7045 91.1911 15.6025 91.7295 15.5175C92.2735 15.4268 92.8231 15.3447 93.3785 15.271C93.9338 15.1973 94.4523 15.1265 94.934 15.0585L94.39 15.373C94.407 14.557 94.2426 13.9535 93.897 13.5625C93.557 13.1715 92.9676 12.976 92.129 12.976C91.5736 12.976 91.0863 13.1035 90.667 13.3585C90.2533 13.6078 89.9615 14.0158 89.7915 14.5825L88.355 14.149C88.576 13.3443 89.0038 12.7125 89.6385 12.2535C90.2731 11.7945 91.109 11.565 92.146 11.565C92.979 11.565 93.693 11.7152 94.288 12.0155C94.8886 12.3102 95.3193 12.7578 95.58 13.3585C95.7103 13.6418 95.7925 13.9507 95.8265 14.285C95.8605 14.6137 95.8775 14.9593 95.8775 15.322V21H94.5345V18.7985L94.849 19.0025C94.5033 19.7448 94.0188 20.3058 93.3955 20.6855C92.7778 21.0652 92.0241 21.255 91.1345 21.255ZM91.364 19.9885C91.908 19.9885 92.3783 19.8922 92.775 19.6995C93.1773 19.5012 93.5003 19.2433 93.744 18.926C93.9876 18.603 94.1463 18.2517 94.22 17.872C94.305 17.5887 94.3503 17.2742 94.356 16.9285C94.3673 16.5772 94.373 16.308 94.373 16.121L94.9 16.3505C94.407 16.4185 93.9225 16.4837 93.4465 16.546C92.9705 16.6083 92.52 16.6763 92.095 16.75C91.67 16.818 91.2875 16.9002 90.9475 16.9965C90.6981 17.0758 90.463 17.1778 90.242 17.3025C90.0266 17.4272 89.851 17.5887 89.715 17.787C89.5846 17.9797 89.5195 18.2205 89.5195 18.5095C89.5195 18.7588 89.5818 18.9968 89.7065 19.2235C89.8368 19.4502 90.0351 19.6343 90.3015 19.776C90.5735 19.9177 90.9276 19.9885 91.364 19.9885ZM97.2375 21V19.6995C97.5775 19.7618 97.8353 19.7505 98.011 19.6655C98.1923 19.5748 98.3255 19.419 98.4105 19.198C98.5011 18.9713 98.5748 18.688 98.6315 18.348C98.7278 17.8097 98.81 17.209 98.878 16.546C98.9516 15.883 99.0168 15.1577 99.0735 14.37C99.1358 13.5767 99.1925 12.7267 99.2435 11.82H105.661V21H104.148V13.2565H100.62C100.586 13.7778 100.544 14.3133 100.493 14.863C100.448 15.4127 100.399 15.9482 100.348 16.4695C100.297 16.9852 100.241 17.4668 100.178 17.9145C100.122 18.3565 100.059 18.739 99.9915 19.062C99.8838 19.6173 99.7336 20.0622 99.541 20.3965C99.3483 20.7252 99.0706 20.9377 98.708 21.034C98.3453 21.136 97.8551 21.1247 97.2375 21ZM111.443 21V11.82H115.353C115.586 11.82 115.835 11.8342 116.101 11.8625C116.373 11.8852 116.62 11.9277 116.841 11.99C117.334 12.1203 117.739 12.3895 118.056 12.7975C118.379 13.1998 118.541 13.7098 118.541 14.3275C118.541 14.6732 118.487 14.9735 118.379 15.2285C118.277 15.4835 118.13 15.7045 117.937 15.8915C117.852 15.9765 117.759 16.053 117.657 16.121C117.555 16.189 117.453 16.2428 117.351 16.2825C117.549 16.3165 117.75 16.393 117.954 16.512C118.277 16.6877 118.529 16.9342 118.711 17.2515C118.898 17.5688 118.991 17.974 118.991 18.467C118.991 19.0903 118.841 19.606 118.541 20.014C118.24 20.4163 117.827 20.694 117.3 20.847C117.079 20.9093 116.835 20.9518 116.569 20.9745C116.302 20.9915 116.045 21 115.795 21H111.443ZM112.973 19.7675H115.71C115.829 19.7675 115.971 19.7562 116.135 19.7335C116.305 19.7108 116.455 19.6825 116.586 19.6485C116.88 19.5635 117.093 19.4048 117.223 19.1725C117.359 18.9402 117.427 18.688 117.427 18.416C117.427 18.0533 117.325 17.7587 117.121 17.532C116.923 17.3053 116.659 17.1637 116.331 17.107C116.212 17.073 116.081 17.0532 115.94 17.0475C115.804 17.0418 115.682 17.039 115.574 17.039H112.973V19.7675ZM112.973 15.7895H115.251C115.41 15.7895 115.577 15.781 115.753 15.764C115.928 15.7413 116.081 15.7045 116.212 15.6535C116.472 15.5572 116.662 15.3985 116.781 15.1775C116.906 14.9508 116.968 14.7043 116.968 14.438C116.968 14.1433 116.9 13.8855 116.764 13.6645C116.634 13.4378 116.433 13.282 116.161 13.197C115.979 13.129 115.775 13.0922 115.549 13.0865C115.328 13.0752 115.186 13.0695 115.124 13.0695H112.973V15.7895ZM127.256 21V10.1965H123.082V8.76H132.942V10.1965H128.769V21H127.256ZM134.295 21V8.76H142.03V10.1965H135.808V21H134.295ZM148.492 20.9915L149.444 17.43H146.112L146.494 15.985H149.835L150.489 13.503H147.157L147.548 12.0665H150.88L151.764 8.76H153.26L152.368 12.0665H154.96L155.844 8.76H157.34L156.448 12.0665H159.78L159.397 13.503H156.065L155.394 15.985H158.726L158.343 17.43H155.011L154.059 20.9915H152.572L153.515 17.43H150.931L149.979 20.9915H148.492ZM151.322 15.985H153.906L154.569 13.503H151.985L151.322 15.985ZM169.246 21V15.356L169.586 15.8915C169.218 16.1692 168.747 16.393 168.175 16.563C167.608 16.7273 166.979 16.8095 166.288 16.8095C165.24 16.8095 164.401 16.6112 163.772 16.2145C163.143 15.8178 162.687 15.2738 162.403 14.5825C162.126 13.8855 161.987 13.0865 161.987 12.1855V8.76H163.517V11.684C163.517 12.1997 163.559 12.6813 163.644 13.129C163.735 13.571 163.891 13.9592 164.112 14.2935C164.333 14.6278 164.639 14.8885 165.03 15.0755C165.421 15.2568 165.917 15.3475 166.517 15.3475C167.243 15.3475 167.863 15.2342 168.379 15.0075C168.9 14.7808 169.277 14.5372 169.509 14.2765L169.246 15.288V8.76H170.767V21H169.246ZM177.954 10.154V8.624H179.484V10.154H177.954ZM174.622 10.154V8.624H176.152V10.154H174.622ZM177.121 21.255C176.22 21.255 175.432 21.0567 174.758 20.66C174.089 20.2577 173.568 19.6995 173.194 18.9855C172.82 18.2658 172.633 17.4272 172.633 16.4695C172.633 15.4665 172.817 14.5995 173.186 13.8685C173.554 13.1318 174.067 12.5652 174.724 12.1685C175.387 11.7662 176.163 11.565 177.053 11.565C177.977 11.565 178.762 11.7775 179.408 12.2025C180.059 12.6275 180.547 13.2338 180.87 14.0215C181.198 14.8092 181.34 15.747 181.295 16.835H179.765V16.291C179.748 15.1633 179.518 14.3218 179.076 13.7665C178.634 13.2055 177.977 12.925 177.104 12.925C176.169 12.925 175.458 13.2253 174.971 13.826C174.483 14.4267 174.24 15.288 174.24 16.41C174.24 17.4923 174.483 18.331 174.971 18.926C175.458 19.521 176.152 19.8185 177.053 19.8185C177.659 19.8185 178.186 19.6797 178.634 19.402C179.082 19.1243 179.433 18.7248 179.688 18.2035L181.142 18.705C180.785 19.5153 180.246 20.1443 179.527 20.592C178.813 21.034 178.011 21.255 177.121 21.255ZM173.73 16.835V15.6195H180.513V16.835H173.73ZM187.403 21.255C186.542 21.255 185.816 21.0425 185.227 20.6175C184.638 20.1868 184.19 19.606 183.884 18.875C183.584 18.1383 183.434 17.3138 183.434 16.4015C183.434 15.4778 183.584 14.6505 183.884 13.9195C184.19 13.1885 184.638 12.6133 185.227 12.194C185.822 11.7747 186.55 11.565 187.412 11.565C188.262 11.565 188.993 11.7775 189.605 12.2025C190.222 12.6218 190.695 13.197 191.024 13.928C191.353 14.659 191.517 15.4835 191.517 16.4015C191.517 17.3195 191.353 18.144 191.024 18.875C190.695 19.606 190.222 20.1868 189.605 20.6175C188.993 21.0425 188.259 21.255 187.403 21.255ZM183.179 25.08V11.82H184.53V18.5775H184.7V25.08H183.179ZM187.216 19.8695C187.822 19.8695 188.324 19.7165 188.721 19.4105C189.117 19.1045 189.415 18.6908 189.613 18.1695C189.811 17.6425 189.911 17.0532 189.911 16.4015C189.911 15.7555 189.811 15.1718 189.613 14.6505C189.42 14.1292 189.12 13.7155 188.712 13.4095C188.31 13.1035 187.797 12.9505 187.174 12.9505C186.579 12.9505 186.086 13.0978 185.695 13.3925C185.304 13.6815 185.012 14.0867 184.819 14.608C184.626 15.1237 184.53 15.7215 184.53 16.4015C184.53 17.0702 184.624 17.668 184.811 18.195C185.003 18.7163 185.298 19.1272 185.695 19.4275C186.091 19.7222 186.598 19.8695 187.216 19.8695ZM195.811 21V13.197H192.615V11.82H200.52V13.197H197.324V21H195.811ZM205.873 21.255C204.961 21.255 204.173 21.0482 203.51 20.6345C202.853 20.2208 202.346 19.6485 201.989 18.9175C201.632 18.1865 201.453 17.3478 201.453 16.4015C201.453 15.4382 201.635 14.5938 201.997 13.8685C202.36 13.1432 202.873 12.5793 203.536 12.177C204.199 11.769 204.978 11.565 205.873 11.565C206.791 11.565 207.582 11.7718 208.245 12.1855C208.908 12.5935 209.415 13.163 209.766 13.894C210.123 14.6193 210.302 15.4552 210.302 16.4015C210.302 17.3592 210.123 18.2035 209.766 18.9345C209.409 19.6598 208.899 20.2293 208.236 20.643C207.573 21.051 206.786 21.255 205.873 21.255ZM205.873 19.8185C206.825 19.8185 207.534 19.5012 207.998 18.8665C208.463 18.2318 208.695 17.4102 208.695 16.4015C208.695 15.3645 208.46 14.54 207.99 13.928C207.52 13.3103 206.814 13.0015 205.873 13.0015C205.233 13.0015 204.706 13.146 204.292 13.435C203.879 13.724 203.57 14.1235 203.366 14.6335C203.162 15.1435 203.06 15.7328 203.06 16.4015C203.06 17.4328 203.298 18.2602 203.774 18.8835C204.25 19.5068 204.95 19.8185 205.873 19.8185ZM212.165 21V11.82H216.075C216.307 11.82 216.557 11.8342 216.823 11.8625C217.095 11.8852 217.341 11.9277 217.562 11.99C218.055 12.1203 218.461 12.3895 218.778 12.7975C219.101 13.1998 219.262 13.7098 219.262 14.3275C219.262 14.6732 219.209 14.9735 219.101 15.2285C218.999 15.4835 218.852 15.7045 218.659 15.8915C218.574 15.9765 218.48 16.053 218.378 16.121C218.276 16.189 218.174 16.2428 218.072 16.2825C218.271 16.3165 218.472 16.393 218.676 16.512C218.999 16.6877 219.251 16.9342 219.432 17.2515C219.619 17.5688 219.713 17.974 219.713 18.467C219.713 19.0903 219.563 19.606 219.262 20.014C218.962 20.4163 218.548 20.694 218.021 20.847C217.8 20.9093 217.557 20.9518 217.29 20.9745C217.024 20.9915 216.766 21 216.517 21H212.165ZM213.695 19.7675H216.432C216.551 19.7675 216.693 19.7562 216.857 19.7335C217.027 19.7108 217.177 19.6825 217.307 19.6485C217.602 19.5635 217.815 19.4048 217.945 19.1725C218.081 18.9402 218.149 18.688 218.149 18.416C218.149 18.0533 218.047 17.7587 217.843 17.532C217.645 17.3053 217.381 17.1637 217.052 17.107C216.933 17.073 216.803 17.0532 216.661 17.0475C216.525 17.0418 216.404 17.039 216.296 17.039H213.695V19.7675ZM213.695 15.7895H215.973C216.132 15.7895 216.299 15.781 216.474 15.764C216.65 15.7413 216.803 15.7045 216.933 15.6535C217.194 15.5572 217.384 15.3985 217.503 15.1775C217.628 14.9508 217.69 14.7043 217.69 14.438C217.69 14.1433 217.622 13.8855 217.486 13.6645C217.356 13.4378 217.154 13.282 216.882 13.197C216.701 13.129 216.497 13.0922 216.27 13.0865C216.049 13.0752 215.908 13.0695 215.845 13.0695H213.695V15.7895ZM221.42 21L221.412 11.82H222.933V15.1435H224.336C224.602 15.1435 224.874 15.1492 225.152 15.1605C225.43 15.1718 225.67 15.1973 225.874 15.237C226.35 15.3333 226.767 15.4948 227.124 15.7215C227.481 15.9482 227.759 16.2542 227.957 16.6395C228.155 17.0248 228.254 17.5037 228.254 18.076C228.254 18.8693 228.048 19.4983 227.634 19.963C227.226 20.422 226.69 20.728 226.027 20.881C225.801 20.932 225.54 20.966 225.245 20.983C224.956 20.9943 224.682 21 224.421 21H221.42ZM222.933 19.7505H224.446C224.616 19.7505 224.806 19.7448 225.016 19.7335C225.226 19.7222 225.413 19.6938 225.577 19.6485C225.866 19.5635 226.124 19.3963 226.35 19.147C226.583 18.8977 226.699 18.5407 226.699 18.076C226.699 17.6057 226.586 17.243 226.359 16.988C226.138 16.733 225.846 16.5658 225.483 16.4865C225.319 16.4468 225.146 16.4213 224.965 16.41C224.784 16.3987 224.611 16.393 224.446 16.393H222.933V19.7505ZM229.308 21V11.82H230.821V21H229.308ZM233.208 21V8.76H242.762V21H241.249V10.1965H234.721V21H233.208ZM249.054 21.255C248.142 21.255 247.354 21.0482 246.691 20.6345C246.034 20.2208 245.527 19.6485 245.17 18.9175C244.813 18.1865 244.634 17.3478 244.634 16.4015C244.634 15.4382 244.815 14.5938 245.178 13.8685C245.541 13.1432 246.054 12.5793 246.717 12.177C247.38 11.769 248.159 11.565 249.054 11.565C249.972 11.565 250.763 11.7718 251.426 12.1855C252.089 12.5935 252.596 13.163 252.947 13.894C253.304 14.6193 253.483 15.4552 253.483 16.4015C253.483 17.3592 253.304 18.2035 252.947 18.9345C252.59 19.6598 252.08 20.2293 251.417 20.643C250.754 21.051 249.966 21.255 249.054 21.255ZM249.054 19.8185C250.006 19.8185 250.714 19.5012 251.179 18.8665C251.644 18.2318 251.876 17.4102 251.876 16.4015C251.876 15.3645 251.641 14.54 251.171 13.928C250.7 13.3103 249.995 13.0015 249.054 13.0015C248.414 13.0015 247.887 13.146 247.473 13.435C247.059 13.724 246.751 14.1235 246.547 14.6335C246.343 15.1435 246.241 15.7328 246.241 16.4015C246.241 17.4328 246.479 18.2602 246.955 18.8835C247.431 19.5068 248.13 19.8185 249.054 19.8185ZM254.674 23.04V19.7505C255.19 19.7505 255.558 19.5833 255.779 19.249C256 18.909 256.179 18.3508 256.315 17.5745C256.405 17.0872 256.479 16.5658 256.536 16.0105C256.592 15.4552 256.64 14.8375 256.68 14.1575C256.725 13.4718 256.768 12.6927 256.808 11.82H263.132V19.7505H264.024V23.04H262.579V21H256.119V23.04H254.674ZM257.003 19.7505H261.619V13.0695H258.176C258.159 13.4718 258.136 13.894 258.108 14.336C258.08 14.7723 258.046 15.2087 258.006 15.645C257.972 16.0813 257.93 16.495 257.879 16.886C257.833 17.2713 257.779 17.617 257.717 17.923C257.643 18.348 257.558 18.7078 257.462 19.0025C257.366 19.2972 257.213 19.5465 257.003 19.7505ZM269.946 21.255C269.085 21.255 268.359 21.0425 267.77 20.6175C267.181 20.1868 266.733 19.606 266.427 18.875C266.127 18.1383 265.977 17.3138 265.977 16.4015C265.977 15.4778 266.127 14.6505 266.427 13.9195C266.733 13.1885 267.181 12.6133 267.77 12.194C268.365 11.7747 269.093 11.565 269.955 11.565C270.805 11.565 271.536 11.7775 272.148 12.2025C272.765 12.6218 273.238 13.197 273.567 13.928C273.896 14.659 274.06 15.4835 274.06 16.4015C274.06 17.3195 273.896 18.144 273.567 18.875C273.238 19.606 272.765 20.1868 272.148 20.6175C271.536 21.0425 270.802 21.255 269.946 21.255ZM265.722 25.08V11.82H267.073V18.5775H267.243V25.08H265.722ZM269.759 19.8695C270.365 19.8695 270.867 19.7165 271.264 19.4105C271.66 19.1045 271.958 18.6908 272.156 18.1695C272.354 17.6425 272.454 17.0532 272.454 16.4015C272.454 15.7555 272.354 15.1718 272.156 14.6505C271.963 14.1292 271.663 13.7155 271.255 13.4095C270.853 13.1035 270.34 12.9505 269.717 12.9505C269.122 12.9505 268.629 13.0978 268.238 13.3925C267.847 13.6815 267.555 14.0867 267.362 14.608C267.169 15.1237 267.073 15.7215 267.073 16.4015C267.073 17.0702 267.167 17.668 267.354 18.195C267.546 18.7163 267.841 19.1272 268.238 19.4275C268.634 19.7222 269.141 19.8695 269.759 19.8695ZM279.833 21.255C278.921 21.255 278.133 21.0482 277.47 20.6345C276.813 20.2208 276.306 19.6485 275.949 18.9175C275.592 18.1865 275.413 17.3478 275.413 16.4015C275.413 15.4382 275.595 14.5938 275.957 13.8685C276.32 13.1432 276.833 12.5793 277.496 12.177C278.159 11.769 278.938 11.565 279.833 11.565C280.751 11.565 281.542 11.7718 282.205 12.1855C282.868 12.5935 283.375 13.163 283.726 13.894C284.083 14.6193 284.262 15.4552 284.262 16.4015C284.262 17.3592 284.083 18.2035 283.726 18.9345C283.369 19.6598 282.859 20.2293 282.196 20.643C281.533 21.051 280.746 21.255 279.833 21.255ZM279.833 19.8185C280.785 19.8185 281.494 19.5012 281.958 18.8665C282.423 18.2318 282.655 17.4102 282.655 16.4015C282.655 15.3645 282.42 14.54 281.95 13.928C281.48 13.3103 280.774 13.0015 279.833 13.0015C279.193 13.0015 278.666 13.146 278.252 13.435C277.839 13.724 277.53 14.1235 277.326 14.6335C277.122 15.1435 277.02 15.7328 277.02 16.4015C277.02 17.4328 277.258 18.2602 277.734 18.8835C278.21 19.5068 278.91 19.8185 279.833 19.8185ZM290.001 21.255C289.072 21.255 288.281 21.0482 287.629 20.6345C286.983 20.2152 286.49 19.64 286.15 18.909C285.81 18.178 285.635 17.345 285.623 16.41C285.635 15.4523 285.813 14.6108 286.159 13.8855C286.51 13.1545 287.012 12.585 287.663 12.177C288.315 11.769 289.1 11.565 290.018 11.565C290.987 11.565 291.82 11.803 292.517 12.279C293.22 12.755 293.69 13.4067 293.928 14.234L292.432 14.6845C292.239 14.1518 291.925 13.7382 291.488 13.4435C291.058 13.1488 290.562 13.0015 290.001 13.0015C289.372 13.0015 288.853 13.1488 288.445 13.4435C288.037 13.7325 287.734 14.1348 287.536 14.6505C287.338 15.1605 287.236 15.747 287.23 16.41C287.241 17.43 287.476 18.2545 287.935 18.8835C288.4 19.5068 289.089 19.8185 290.001 19.8185C290.602 19.8185 291.1 19.6825 291.497 19.4105C291.894 19.1328 292.194 18.7333 292.398 18.212L293.928 18.6115C293.611 19.4672 293.115 20.1217 292.44 20.575C291.766 21.0283 290.953 21.255 290.001 21.255ZM297.928 21V13.197H294.732V11.82H302.637V13.197H299.441V21H297.928ZM304.237 21L304.246 11.82H305.776V16.24L309.626 11.82H311.59L307.535 16.41L312.066 21H309.949L305.776 16.58V21H304.237ZM320.426 11.82V21H318.964V14.234L314.153 21H312.903V11.82H314.365V18.4925L319.185 11.82H320.426ZM79.0232 46.601C78.3602 45.836 77.7907 44.9775 77.3147 44.0255C76.8387 43.0735 76.4732 42.0733 76.2182 41.025C75.9632 39.9767 75.8413 38.9283 75.8527 37.88C75.8413 36.826 75.9632 35.7748 76.2182 34.7265C76.4732 33.6782 76.8387 32.6808 77.3147 31.7345C77.7907 30.7825 78.3602 29.924 79.0232 29.159L80.1452 30.009C79.4765 30.8023 78.9268 31.6268 78.4962 32.4825C78.0712 33.3382 77.7567 34.2193 77.5527 35.126C77.3487 36.027 77.2438 36.945 77.2382 37.88C77.2438 38.8037 77.3487 39.7217 77.5527 40.634C77.7623 41.5407 78.0797 42.4247 78.5047 43.286C78.9353 44.1417 79.4822 44.9605 80.1452 45.7425L79.0232 46.601ZM81.7104 43.9915L81.7189 42.6315L87.1504 37.744C87.6037 37.336 87.9069 36.9507 88.0599 36.588C88.2185 36.2197 88.2979 35.8428 88.2979 35.4575C88.2979 34.9872 88.1902 34.5622 87.9749 34.1825C87.7595 33.8028 87.4649 33.5025 87.0909 33.2815C86.7225 33.0605 86.3032 32.95 85.8329 32.95C85.3455 32.95 84.912 33.0662 84.5324 33.2985C84.1527 33.5252 83.8524 33.8283 83.6314 34.208C83.416 34.5877 83.3112 35.0013 83.3169 35.449H81.7699C81.7699 34.6783 81.9484 33.9983 82.3054 33.409C82.6624 32.814 83.1469 32.3493 83.7589 32.015C84.3765 31.675 85.0764 31.505 85.8584 31.505C86.6177 31.505 87.2977 31.6807 87.8984 32.032C88.499 32.3777 88.9722 32.8508 89.3179 33.4515C89.6692 34.0465 89.8449 34.7208 89.8449 35.4745C89.8449 36.0072 89.7769 36.469 89.6409 36.86C89.5105 37.251 89.3065 37.6137 89.0289 37.948C88.7512 38.2767 88.4027 38.628 87.9834 39.002L83.4699 43.0565L83.2744 42.5465H89.8449V43.9915H81.7104ZM95.4995 44.255C94.8705 44.255 94.284 44.1247 93.74 43.864C93.2016 43.6033 92.7398 43.2463 92.3545 42.793C91.9748 42.334 91.7028 41.807 91.5385 41.212L92.992 40.821C93.094 41.2233 93.2753 41.5718 93.536 41.8665C93.7966 42.1555 94.0998 42.3822 94.4455 42.5465C94.7968 42.7052 95.1623 42.7845 95.542 42.7845C96.0406 42.7845 96.4883 42.6655 96.885 42.4275C97.2873 42.1838 97.6046 41.8637 97.837 41.467C98.0693 41.0647 98.1855 40.6255 98.1855 40.1495C98.1855 39.6565 98.0636 39.2117 97.82 38.815C97.582 38.4127 97.2618 38.0953 96.8595 37.863C96.4571 37.6307 96.018 37.5145 95.542 37.5145C95.0036 37.5145 94.5418 37.6278 94.1565 37.8545C93.7768 38.0755 93.4765 38.3475 93.2555 38.6705L91.9125 38.1605L92.2865 31.76H98.857V33.1965H93.0175L93.689 32.5675L93.3745 37.693L93.043 37.2595C93.383 36.8968 93.7881 36.6163 94.2585 36.418C94.7345 36.2197 95.219 36.1205 95.712 36.1205C96.4713 36.1205 97.1513 36.299 97.752 36.656C98.3526 37.0073 98.8286 37.489 99.18 38.101C99.5313 38.7073 99.707 39.3902 99.707 40.1495C99.707 40.9032 99.5143 41.5917 99.129 42.215C98.7436 42.8327 98.2308 43.3285 97.5905 43.7025C96.9558 44.0708 96.2588 44.255 95.4995 44.255ZM109.274 44.255C108.481 44.255 107.772 44.0765 107.149 43.7195C106.531 43.3568 106.041 42.8667 105.679 42.249C105.322 41.6257 105.143 40.9173 105.143 40.124V35.636C105.143 34.8427 105.322 34.1343 105.679 33.511C106.041 32.8877 106.531 32.3975 107.149 32.0405C107.772 31.6835 108.481 31.505 109.274 31.505C110.067 31.505 110.776 31.6835 111.399 32.0405C112.022 32.3975 112.513 32.8877 112.87 33.511C113.227 34.1343 113.405 34.8427 113.405 35.636V40.124C113.405 40.9173 113.227 41.6257 112.87 42.249C112.513 42.8667 112.022 43.3568 111.399 43.7195C110.776 44.0765 110.067 44.255 109.274 44.255ZM109.274 42.8015C109.756 42.8015 110.192 42.6853 110.583 42.453C110.974 42.2207 111.286 41.909 111.518 41.518C111.75 41.1213 111.867 40.685 111.867 40.209V35.5425C111.867 35.0608 111.75 34.6245 111.518 34.2335C111.286 33.8425 110.974 33.5308 110.583 33.2985C110.192 33.0662 109.756 32.95 109.274 32.95C108.798 32.95 108.362 33.0662 107.965 33.2985C107.574 33.5308 107.262 33.8425 107.03 34.2335C106.798 34.6245 106.682 35.0608 106.682 35.5425V40.209C106.682 40.685 106.798 41.1213 107.03 41.518C107.262 41.909 107.574 42.2207 107.965 42.453C108.362 42.6853 108.798 42.8015 109.274 42.8015ZM119.916 44.255C119.122 44.255 118.414 44.0765 117.791 43.7195C117.173 43.3568 116.683 42.8667 116.32 42.249C115.963 41.6257 115.785 40.9173 115.785 40.124V35.636C115.785 34.8427 115.963 34.1343 116.32 33.511C116.683 32.8877 117.173 32.3975 117.791 32.0405C118.414 31.6835 119.122 31.505 119.916 31.505C120.709 31.505 121.417 31.6835 122.041 32.0405C122.664 32.3975 123.154 32.8877 123.511 33.511C123.868 34.1343 124.047 34.8427 124.047 35.636V40.124C124.047 40.9173 123.868 41.6257 123.511 42.249C123.154 42.8667 122.664 43.3568 122.041 43.7195C121.417 44.0765 120.709 44.255 119.916 44.255ZM119.916 42.8015C120.397 42.8015 120.834 42.6853 121.225 42.453C121.616 42.2207 121.927 41.909 122.16 41.518C122.392 41.1213 122.508 40.685 122.508 40.209V35.5425C122.508 35.0608 122.392 34.6245 122.16 34.2335C121.927 33.8425 121.616 33.5308 121.225 33.2985C120.834 33.0662 120.397 32.95 119.916 32.95C119.44 32.95 119.003 33.0662 118.607 33.2985C118.216 33.5308 117.904 33.8425 117.672 34.2335C117.439 34.6245 117.323 35.0608 117.323 35.5425V40.209C117.323 40.685 117.439 41.1213 117.672 41.518C117.904 41.909 118.216 42.2207 118.607 42.453C119.003 42.6853 119.44 42.8015 119.916 42.8015ZM130.557 44.255C129.764 44.255 129.056 44.0765 128.432 43.7195C127.815 43.3568 127.324 42.8667 126.962 42.249C126.605 41.6257 126.426 40.9173 126.426 40.124V35.636C126.426 34.8427 126.605 34.1343 126.962 33.511C127.324 32.8877 127.815 32.3975 128.432 32.0405C129.056 31.6835 129.764 31.505 130.557 31.505C131.351 31.505 132.059 31.6835 132.682 32.0405C133.306 32.3975 133.796 32.8877 134.153 33.511C134.51 34.1343 134.688 34.8427 134.688 35.636V40.124C134.688 40.9173 134.51 41.6257 134.153 42.249C133.796 42.8667 133.306 43.3568 132.682 43.7195C132.059 44.0765 131.351 44.255 130.557 44.255ZM130.557 42.8015C131.039 42.8015 131.475 42.6853 131.866 42.453C132.257 42.2207 132.569 41.909 132.801 41.518C133.034 41.1213 133.15 40.685 133.15 40.209V35.5425C133.15 35.0608 133.034 34.6245 132.801 34.2335C132.569 33.8425 132.257 33.5308 131.866 33.2985C131.475 33.0662 131.039 32.95 130.557 32.95C130.081 32.95 129.645 33.0662 129.248 33.2985C128.857 33.5308 128.546 33.8425 128.313 34.2335C128.081 34.6245 127.965 35.0608 127.965 35.5425V40.209C127.965 40.685 128.081 41.1213 128.313 41.518C128.546 41.909 128.857 42.2207 129.248 42.453C129.645 42.6853 130.081 42.8015 130.557 42.8015ZM140.145 41.7475V38.5005H136.898V37.251H140.145V34.0125H141.394V37.251H144.633V38.5005H141.394V41.7475H140.145ZM150.241 44V34.82H157.764V44H156.251V36.2565H151.754V44H150.241ZM164.054 44.255C163.142 44.255 162.354 44.0482 161.691 43.6345C161.034 43.2208 160.527 42.6485 160.17 41.9175C159.813 41.1865 159.634 40.3478 159.634 39.4015C159.634 38.4382 159.815 37.5938 160.178 36.8685C160.541 36.1432 161.054 35.5793 161.717 35.177C162.38 34.769 163.159 34.565 164.054 34.565C164.972 34.565 165.763 34.7718 166.426 35.1855C167.089 35.5935 167.596 36.163 167.947 36.894C168.304 37.6193 168.483 38.4552 168.483 39.4015C168.483 40.3592 168.304 41.2035 167.947 41.9345C167.59 42.6598 167.08 43.2293 166.417 43.643C165.754 44.051 164.966 44.255 164.054 44.255ZM164.054 42.8185C165.006 42.8185 165.714 42.5012 166.179 41.8665C166.644 41.2318 166.876 40.4102 166.876 39.4015C166.876 38.3645 166.641 37.54 166.171 36.928C165.7 36.3103 164.995 36.0015 164.054 36.0015C163.414 36.0015 162.887 36.146 162.473 36.435C162.059 36.724 161.751 37.1235 161.547 37.6335C161.343 38.1435 161.241 38.7328 161.241 39.4015C161.241 40.4328 161.479 41.2602 161.955 41.8835C162.431 42.5068 163.13 42.8185 164.054 42.8185ZM169.674 46.04V42.7505C170.19 42.7505 170.558 42.5833 170.779 42.249C171 41.909 171.179 41.3508 171.315 40.5745C171.405 40.0872 171.479 39.5658 171.536 39.0105C171.592 38.4552 171.64 37.8375 171.68 37.1575C171.725 36.4718 171.768 35.6927 171.808 34.82H178.132V42.7505H179.024V46.04H177.579V44H171.119V46.04H169.674ZM172.003 42.7505H176.619V36.0695H173.176C173.159 36.4718 173.136 36.894 173.108 37.336C173.08 37.7723 173.046 38.2087 173.006 38.645C172.972 39.0813 172.93 39.495 172.879 39.886C172.833 40.2713 172.779 40.617 172.717 40.923C172.643 41.348 172.558 41.7078 172.462 42.0025C172.366 42.2972 172.213 42.5465 172.003 42.7505ZM180.722 44V34.82H188.244V44H186.731V36.2565H182.235V44H180.722ZM198.139 34.82V44H196.677V37.234L191.866 44H190.616V34.82H192.078V41.4925L196.898 34.82H198.139ZM204.387 44.255C203.457 44.255 202.667 44.0482 202.015 43.6345C201.369 43.2152 200.876 42.64 200.536 41.909C200.196 41.178 200.02 40.345 200.009 39.41C200.02 38.4523 200.199 37.6108 200.545 36.8855C200.896 36.1545 201.397 35.585 202.049 35.177C202.701 34.769 203.486 34.565 204.404 34.565C205.373 34.565 206.206 34.803 206.903 35.279C207.605 35.755 208.076 36.4067 208.314 37.234L206.818 37.6845C206.625 37.1518 206.31 36.7382 205.874 36.4435C205.443 36.1488 204.948 36.0015 204.387 36.0015C203.758 36.0015 203.239 36.1488 202.831 36.4435C202.423 36.7325 202.12 37.1348 201.922 37.6505C201.723 38.1605 201.621 38.747 201.616 39.41C201.627 40.43 201.862 41.2545 202.321 41.8835C202.786 42.5068 203.474 42.8185 204.387 42.8185C204.987 42.8185 205.486 42.6825 205.883 42.4105C206.279 42.1328 206.58 41.7333 206.784 41.212L208.314 41.6115C207.996 42.4672 207.5 43.1217 206.826 43.575C206.152 44.0283 205.339 44.255 204.387 44.255ZM215.573 44V40.6935C215.267 40.8465 214.896 40.9768 214.46 41.0845C214.029 41.1922 213.567 41.246 213.074 41.246C212.139 41.246 211.386 41.0363 210.813 40.617C210.241 40.1977 209.867 39.5942 209.691 38.8065C209.64 38.5685 209.604 38.322 209.581 38.067C209.564 37.812 209.553 37.5797 209.547 37.37C209.541 37.1603 209.538 37.0073 209.538 36.911V34.82H211.068V36.911C211.068 37.0753 211.074 37.2793 211.085 37.523C211.097 37.761 211.125 37.9933 211.17 38.22C211.284 38.781 211.519 39.2032 211.876 39.4865C212.239 39.7698 212.749 39.9115 213.406 39.9115C213.848 39.9115 214.256 39.8548 214.63 39.7415C215.004 39.6282 215.318 39.478 215.573 39.291V34.82H217.095V44H215.573ZM226.992 34.82V44H225.53V37.234L220.719 44H219.47V34.82H220.932V41.4925L225.751 34.82H226.992ZM229.364 44L229.373 34.82H230.903V39.24L234.753 34.82H236.717L232.662 39.41L237.193 44H235.076L230.903 39.58V44H229.364ZM241.783 44.255C240.87 44.255 240.083 44.0482 239.42 43.6345C238.762 43.2208 238.255 42.6485 237.898 41.9175C237.541 41.1865 237.363 40.3478 237.363 39.4015C237.363 38.4382 237.544 37.5938 237.907 36.8685C238.269 36.1432 238.782 35.5793 239.445 35.177C240.108 34.769 240.887 34.565 241.783 34.565C242.701 34.565 243.491 34.7718 244.154 35.1855C244.817 35.5935 245.324 36.163 245.676 36.894C246.033 37.6193 246.211 38.4552 246.211 39.4015C246.211 40.3592 246.033 41.2035 245.676 41.9345C245.319 42.6598 244.809 43.2293 244.146 43.643C243.483 44.051 242.695 44.255 241.783 44.255ZM241.783 42.8185C242.735 42.8185 243.443 42.5012 243.908 41.8665C244.372 41.2318 244.605 40.4102 244.605 39.4015C244.605 38.3645 244.369 37.54 243.899 36.928C243.429 36.3103 242.723 36.0015 241.783 36.0015C241.142 36.0015 240.615 36.146 240.202 36.435C239.788 36.724 239.479 37.1235 239.275 37.6335C239.071 38.1435 238.969 38.7328 238.969 39.4015C238.969 40.4328 239.207 41.2602 239.683 41.8835C240.159 42.5068 240.859 42.8185 241.783 42.8185ZM248.074 44V34.82H251.984C252.216 34.82 252.466 34.8342 252.732 34.8625C253.004 34.8852 253.251 34.9277 253.472 34.99C253.965 35.1203 254.37 35.3895 254.687 35.7975C255.01 36.1998 255.172 36.7098 255.172 37.3275C255.172 37.6732 255.118 37.9735 255.01 38.2285C254.908 38.4835 254.761 38.7045 254.568 38.8915C254.483 38.9765 254.39 39.053 254.288 39.121C254.186 39.189 254.084 39.2428 253.982 39.2825C254.18 39.3165 254.381 39.393 254.585 39.512C254.908 39.6877 255.16 39.9342 255.342 40.2515C255.529 40.5688 255.622 40.974 255.622 41.467C255.622 42.0903 255.472 42.606 255.172 43.014C254.871 43.4163 254.458 43.694 253.931 43.847C253.71 43.9093 253.466 43.9518 253.2 43.9745C252.933 43.9915 252.675 44 252.426 44H248.074ZM249.604 42.7675H252.341C252.46 42.7675 252.602 42.7562 252.766 42.7335C252.936 42.7108 253.086 42.6825 253.217 42.6485C253.511 42.5635 253.724 42.4048 253.854 42.1725C253.99 41.9402 254.058 41.688 254.058 41.416C254.058 41.0533 253.956 40.7587 253.752 40.532C253.554 40.3053 253.29 40.1637 252.962 40.107C252.843 40.073 252.712 40.0532 252.571 40.0475C252.435 40.0418 252.313 40.039 252.205 40.039H249.604V42.7675ZM249.604 38.7895H251.882C252.041 38.7895 252.208 38.781 252.384 38.764C252.559 38.7413 252.712 38.7045 252.843 38.6535C253.103 38.5572 253.293 38.3985 253.412 38.1775C253.537 37.9508 253.599 37.7043 253.599 37.438C253.599 37.1433 253.531 36.8855 253.395 36.6645C253.265 36.4378 253.064 36.282 252.792 36.197C252.61 36.129 252.406 36.0922 252.18 36.0865C251.959 36.0752 251.817 36.0695 251.755 36.0695H249.604V38.7895ZM257.984 47.111L256.862 46.2525C257.525 45.4705 258.069 44.6517 258.494 43.796C258.925 42.9347 259.245 42.0507 259.455 41.144C259.664 40.2317 259.769 39.3137 259.769 38.39C259.769 37.455 259.664 36.537 259.455 35.636C259.251 34.7293 258.933 33.8482 258.503 32.9925C258.078 32.1368 257.531 31.3123 256.862 30.519L257.984 29.669C258.647 30.434 259.217 31.2925 259.693 32.2445C260.174 33.1908 260.54 34.1882 260.789 35.2365C261.044 36.2848 261.166 37.336 261.155 38.39C261.166 39.4383 261.044 40.4867 260.789 41.535C260.54 42.5833 260.174 43.5835 259.693 44.5355C259.217 45.4875 258.647 46.346 257.984 47.111Z" fill="#130531"></path></svg> 