<?xml version="1.0" encoding="UTF-8"?> <svg xmlns="http://www.w3.org/2000/svg" width="281" height="55" viewBox="0 0 281 55" fill="none"><path d="M0 16.75C0 7.49923 7.49923 0 16.75 0H264.25C273.501 0 281 7.49923 281 16.75V16.75C281 26.0008 273.501 33.5 264.25 33.5H212.25C206.313 33.5 201.5 38.3129 201.5 44.25V44.25C201.5 50.1871 196.687 55 190.75 55H93.25C87.3129 55 82.5 50.1871 82.5 44.25V44.25C82.5 38.3129 77.6871 33.5 71.75 33.5H16.75C7.49923 33.5 0 26.0008 0 16.75V16.75Z" fill="white"></path><path d="M15.9327 23V10.76H20.7012C21.4322 10.76 22.0555 10.9102 22.5712 11.2105C23.0925 11.5108 23.4892 11.9075 23.7612 12.4005C24.0388 12.8878 24.1777 13.4148 24.1777 13.9815C24.1777 14.6445 24.0077 15.2253 23.6677 15.724C23.3277 16.2227 22.8687 16.5655 22.2907 16.7525L22.2737 16.336C23.0613 16.5457 23.6733 16.931 24.1097 17.492C24.546 18.053 24.7642 18.7217 24.7642 19.498C24.7642 20.212 24.6168 20.8297 24.3222 21.351C24.0332 21.8723 23.6138 22.2775 23.0642 22.5665C22.5202 22.8555 21.8742 23 21.1262 23H15.9327ZM17.4627 21.555H20.8372C21.2905 21.555 21.6957 21.4728 22.0527 21.3085C22.4097 21.1385 22.6902 20.9005 22.8942 20.5945C23.1038 20.2885 23.2087 19.9202 23.2087 19.4895C23.2087 19.0758 23.1152 18.7047 22.9282 18.376C22.7468 18.0473 22.489 17.7867 22.1547 17.594C21.826 17.3957 21.4435 17.2965 21.0072 17.2965H17.4627V21.555ZM17.4627 15.8685H20.6842C21.0468 15.8685 21.3727 15.792 21.6617 15.639C21.9563 15.4803 22.1887 15.2593 22.3587 14.976C22.5343 14.6927 22.6222 14.3612 22.6222 13.9815C22.6222 13.4545 22.4437 13.0238 22.0867 12.6895C21.7297 12.3552 21.2622 12.188 20.6842 12.188H17.4627V15.8685ZM30.4361 23.255C29.5351 23.255 28.7474 23.0567 28.0731 22.66C27.4044 22.2577 26.8831 21.6995 26.5091 20.9855C26.1351 20.2658 25.9481 19.4272 25.9481 18.4695C25.9481 17.4665 26.1322 16.5995 26.5006 15.8685C26.8689 15.1318 27.3817 14.5652 28.0391 14.1685C28.7021 13.7662 29.4784 13.565 30.3681 13.565C31.2917 13.565 32.0766 13.7775 32.7226 14.2025C33.3742 14.6275 33.8616 15.2338 34.1846 16.0215C34.5132 16.8092 34.6549 17.747 34.6096 18.835H33.0796V18.291C33.0626 17.1633 32.8331 16.3218 32.3911 15.7665C31.9491 15.2055 31.2917 14.925 30.4191 14.925C29.4841 14.925 28.7729 15.2253 28.2856 15.826C27.7982 16.4267 27.5546 17.288 27.5546 18.41C27.5546 19.4923 27.7982 20.331 28.2856 20.926C28.7729 21.521 29.4671 21.8185 30.3681 21.8185C30.9744 21.8185 31.5014 21.6797 31.9491 21.402C32.3967 21.1243 32.7481 20.7248 33.0031 20.2035L34.4566 20.705C34.0996 21.5153 33.5612 22.1443 32.8416 22.592C32.1276 23.034 31.3257 23.255 30.4361 23.255ZM27.0446 18.835V17.6195H33.8276V18.835H27.0446ZM35.822 25.04V21.7505C36.3377 21.7505 36.706 21.5833 36.927 21.249C37.148 20.909 37.3265 20.3508 37.4625 19.5745C37.5532 19.0872 37.6268 18.5658 37.6835 18.0105C37.7402 17.4552 37.7883 16.8375 37.828 16.1575C37.8733 15.4718 37.9158 14.6927 37.9555 13.82H44.2795V21.7505H45.172V25.04H43.727V23H37.267V25.04H35.822ZM38.151 21.7505H42.7665V15.0695H39.324C39.307 15.4718 39.2843 15.894 39.256 16.336C39.2277 16.7723 39.1937 17.2087 39.154 17.645C39.12 18.0813 39.0775 18.495 39.0265 18.886C38.9812 19.2713 38.9273 19.617 38.865 19.923C38.7913 20.348 38.7063 20.7078 38.61 21.0025C38.5137 21.2972 38.3607 21.5465 38.151 21.7505ZM48.153 27.08L49.9295 22.252L49.955 23.68L45.943 13.82H47.5325L50.6775 21.7505H50.1335L53.083 13.82H54.6215L49.6235 27.08H48.153ZM63.1603 23.2635C62.2933 23.2578 61.5538 23.0708 60.9418 22.7025C60.3298 22.3285 59.8538 21.7817 59.5138 21.062C59.1738 20.3423 58.9839 19.4612 58.9443 18.4185C58.9216 17.9368 58.9273 17.407 58.9613 16.829C59.0009 16.251 59.0633 15.6957 59.1483 15.163C59.2389 14.6303 59.3523 14.1912 59.4883 13.8455C59.6413 13.4318 59.8566 13.0493 60.1343 12.698C60.4176 12.341 60.7349 12.0463 61.0863 11.814C61.4433 11.5703 61.8428 11.3805 62.2848 11.2445C62.7268 11.1085 63.1886 11.0037 63.6703 10.93C64.1576 10.8507 64.6449 10.7827 65.1323 10.726C65.6196 10.6637 66.0843 10.59 66.5263 10.505L66.6793 11.865C66.3676 11.933 65.9993 11.9925 65.5743 12.0435C65.1493 12.0888 64.7073 12.1427 64.2483 12.205C63.7949 12.2673 63.3586 12.3552 62.9393 12.4685C62.5256 12.5762 62.1686 12.7263 61.8683 12.919C61.4263 13.1853 61.0863 13.5848 60.8483 14.1175C60.6159 14.6445 60.4743 15.2367 60.4233 15.894C60.7746 15.35 61.2308 14.9505 61.7918 14.6955C62.3528 14.4405 62.9506 14.313 63.5853 14.313C64.4069 14.313 65.1153 14.5057 65.7103 14.891C66.3053 15.2707 66.7614 15.7948 67.0788 16.4635C67.4018 17.1322 67.5633 17.8943 67.5633 18.75C67.5633 19.6567 67.3819 20.45 67.0193 21.13C66.6566 21.81 66.1438 22.337 65.4808 22.711C64.8234 23.085 64.0499 23.2692 63.1603 23.2635ZM63.2538 21.827C64.1434 21.827 64.8178 21.5522 65.2768 21.0025C65.7358 20.4472 65.9653 19.7105 65.9653 18.7925C65.9653 17.8518 65.7273 17.1123 65.2513 16.574C64.7753 16.03 64.1066 15.758 63.2453 15.758C62.3726 15.758 61.7039 16.03 61.2393 16.574C60.7803 17.1123 60.5508 17.8518 60.5508 18.7925C60.5508 19.7388 60.7831 20.4812 61.2478 21.0195C61.7124 21.5578 62.3811 21.827 63.2538 21.827ZM68.5895 23V21.6995C68.9295 21.7618 69.1873 21.7505 69.363 21.6655C69.5443 21.5748 69.6775 21.419 69.7625 21.198C69.8532 20.9713 69.9268 20.688 69.9835 20.348C70.0798 19.8097 70.162 19.209 70.23 18.546C70.3037 17.883 70.3688 17.1577 70.4255 16.37C70.4878 15.5767 70.5445 14.7267 70.5955 13.82H77.013V23H75.5V15.2565H71.9725C71.9385 15.7778 71.896 16.3133 71.845 16.863C71.7997 17.4127 71.7515 17.9482 71.7005 18.4695C71.6495 18.9852 71.5928 19.4668 71.5305 19.9145C71.4738 20.3565 71.4115 20.739 71.3435 21.062C71.2358 21.6173 71.0857 22.0622 70.893 22.3965C70.7003 22.7252 70.4227 22.9377 70.06 23.034C69.6973 23.136 69.2072 23.1247 68.5895 23ZM83.3104 23.255C82.3981 23.255 81.6104 23.0482 80.9474 22.6345C80.2901 22.2208 79.7829 21.6485 79.4259 20.9175C79.0689 20.1865 78.8904 19.3478 78.8904 18.4015C78.8904 17.4382 79.0718 16.5938 79.4344 15.8685C79.7971 15.1432 80.3099 14.5793 80.9729 14.177C81.6359 13.769 82.4151 13.565 83.3104 13.565C84.2284 13.565 85.0189 13.7718 85.6819 14.1855C86.3449 14.5935 86.8521 15.163 87.2034 15.894C87.5604 16.6193 87.7389 17.4552 87.7389 18.4015C87.7389 19.3592 87.5604 20.2035 87.2034 20.9345C86.8464 21.6598 86.3364 22.2293 85.6734 22.643C85.0104 23.051 84.2228 23.255 83.3104 23.255ZM83.3104 21.8185C84.2624 21.8185 84.9708 21.5012 85.4354 20.8665C85.9001 20.2318 86.1324 19.4102 86.1324 18.4015C86.1324 17.3645 85.8973 16.54 85.4269 15.928C84.9566 15.3103 84.2511 15.0015 83.3104 15.0015C82.6701 15.0015 82.1431 15.146 81.7294 15.435C81.3158 15.724 81.0069 16.1235 80.8029 16.6335C80.5989 17.1435 80.4969 17.7328 80.4969 18.4015C80.4969 19.4328 80.7349 20.2602 81.2109 20.8835C81.6869 21.5068 82.3868 21.8185 83.3104 21.8185ZM89.6104 23V13.82H95.9854V15.2565H91.1234V23H89.6104ZM107.527 24.785C106.615 24.785 105.77 24.6292 104.994 24.3175C104.223 24.0058 103.552 23.5695 102.98 23.0085C102.407 22.4475 101.962 21.7873 101.645 21.028C101.328 20.2687 101.169 19.4442 101.169 18.5545C101.169 17.5458 101.328 16.642 101.645 15.843C101.968 15.0383 102.416 14.3527 102.988 13.786C103.566 13.2193 104.24 12.7858 105.011 12.4855C105.787 12.1852 106.629 12.035 107.536 12.035C108.612 12.035 109.553 12.205 110.358 12.545C111.162 12.8793 111.828 13.3383 112.355 13.922C112.888 14.5 113.279 15.1545 113.528 15.8855C113.783 16.6165 113.894 17.3787 113.86 18.172C113.82 19.2543 113.579 20.0788 113.137 20.6455C112.695 21.2122 112.046 21.4955 111.191 21.4955C110.692 21.4955 110.244 21.3793 109.848 21.147C109.451 20.9147 109.182 20.5803 109.04 20.144L109.491 20.178C109.275 20.5973 108.969 20.8977 108.573 21.079C108.176 21.2547 107.765 21.3425 107.34 21.3425C106.796 21.3425 106.317 21.2263 105.904 20.994C105.496 20.756 105.173 20.4273 104.935 20.008C104.702 19.583 104.586 19.0928 104.586 18.5375C104.586 17.9595 104.708 17.4608 104.952 17.0415C105.195 16.6222 105.527 16.2992 105.946 16.0725C106.365 15.8402 106.839 15.724 107.366 15.724C107.734 15.724 108.116 15.8005 108.513 15.9535C108.91 16.1065 109.216 16.3388 109.431 16.6505L109.091 17.0585V15.962H110.111L110.094 18.869C110.094 19.294 110.185 19.6283 110.366 19.872C110.553 20.1157 110.842 20.2375 111.233 20.2375C111.533 20.2375 111.774 20.1525 111.956 19.9825C112.143 19.8125 112.281 19.5802 112.372 19.2855C112.463 18.9852 112.514 18.6367 112.525 18.24C112.553 17.3673 112.434 16.6193 112.168 15.996C111.902 15.3727 111.531 14.8598 111.055 14.4575C110.584 14.0552 110.052 13.7605 109.457 13.5735C108.867 13.3808 108.255 13.2845 107.621 13.2845C106.799 13.2845 106.068 13.4177 105.428 13.684C104.793 13.9503 104.255 14.3243 103.813 14.806C103.376 15.282 103.045 15.8373 102.818 16.472C102.597 17.1067 102.492 17.7923 102.504 18.529C102.521 19.2713 102.657 19.9513 102.912 20.569C103.167 21.181 103.521 21.708 103.974 22.15C104.433 22.592 104.969 22.932 105.581 23.17C106.198 23.4137 106.87 23.5355 107.595 23.5355C108.037 23.5355 108.476 23.4817 108.913 23.374C109.355 23.2663 109.751 23.119 110.103 22.932L110.545 24.071C110.08 24.309 109.593 24.4875 109.083 24.6065C108.573 24.7255 108.054 24.785 107.527 24.785ZM107.425 20.076C107.85 20.076 108.199 19.9542 108.471 19.7105C108.748 19.4668 108.887 19.073 108.887 18.529C108.887 18.0133 108.76 17.6252 108.505 17.3645C108.25 17.1038 107.901 16.9735 107.459 16.9735C106.949 16.9735 106.561 17.1123 106.295 17.39C106.034 17.662 105.904 18.0417 105.904 18.529C105.904 19.022 106.04 19.4045 106.312 19.6765C106.584 19.9428 106.955 20.076 107.425 20.076ZM120.638 23.255C119.777 23.255 119.051 23.0425 118.462 22.6175C117.873 22.1868 117.425 21.606 117.119 20.875C116.819 20.1383 116.668 19.3138 116.668 18.4015C116.668 17.4778 116.819 16.6505 117.119 15.9195C117.425 15.1885 117.873 14.6133 118.462 14.194C119.057 13.7747 119.785 13.565 120.646 13.565C121.496 13.565 122.227 13.7775 122.839 14.2025C123.457 14.6218 123.93 15.197 124.259 15.928C124.588 16.659 124.752 17.4835 124.752 18.4015C124.752 19.3195 124.588 20.144 124.259 20.875C123.93 21.606 123.457 22.1868 122.839 22.6175C122.227 23.0425 121.494 23.255 120.638 23.255ZM116.413 27.08V13.82H117.765V20.5775H117.935V27.08H116.413ZM120.451 21.8695C121.057 21.8695 121.559 21.7165 121.955 21.4105C122.352 21.1045 122.65 20.6908 122.848 20.1695C123.046 19.6425 123.145 19.0532 123.145 18.4015C123.145 17.7555 123.046 17.1718 122.848 16.6505C122.655 16.1292 122.355 15.7155 121.947 15.4095C121.545 15.1035 121.032 14.9505 120.408 14.9505C119.813 14.9505 119.32 15.0978 118.929 15.3925C118.538 15.6815 118.247 16.0867 118.054 16.608C117.861 17.1237 117.765 17.7215 117.765 18.4015C117.765 19.0702 117.858 19.668 118.045 20.195C118.238 20.7163 118.533 21.1272 118.929 21.4275C119.326 21.7222 119.833 21.8695 120.451 21.8695ZM129.225 23.255C128.539 23.255 127.964 23.1303 127.499 22.881C127.04 22.626 126.692 22.2917 126.454 21.878C126.221 21.4643 126.105 21.011 126.105 20.518C126.105 20.0363 126.196 19.6198 126.377 19.2685C126.564 18.9115 126.825 18.6168 127.159 18.3845C127.494 18.1465 127.893 17.9595 128.358 17.8235C128.794 17.7045 129.281 17.6025 129.82 17.5175C130.364 17.4268 130.913 17.3447 131.469 17.271C132.024 17.1973 132.543 17.1265 133.024 17.0585L132.48 17.373C132.497 16.557 132.333 15.9535 131.987 15.5625C131.647 15.1715 131.058 14.976 130.219 14.976C129.664 14.976 129.177 15.1035 128.757 15.3585C128.344 15.6078 128.052 16.0158 127.882 16.5825L126.445 16.149C126.666 15.3443 127.094 14.7125 127.729 14.2535C128.363 13.7945 129.199 13.565 130.236 13.565C131.069 13.565 131.783 13.7152 132.378 14.0155C132.979 14.3102 133.41 14.7578 133.67 15.3585C133.801 15.6418 133.883 15.9507 133.917 16.285C133.951 16.6137 133.968 16.9593 133.968 17.322V23H132.625V20.7985L132.939 21.0025C132.594 21.7448 132.109 22.3058 131.486 22.6855C130.868 23.0652 130.114 23.255 129.225 23.255ZM129.454 21.9885C129.998 21.9885 130.469 21.8922 130.865 21.6995C131.268 21.5012 131.591 21.2433 131.834 20.926C132.078 20.603 132.237 20.2517 132.31 19.872C132.395 19.5887 132.441 19.2742 132.446 18.9285C132.458 18.5772 132.463 18.308 132.463 18.121L132.99 18.3505C132.497 18.4185 132.013 18.4837 131.537 18.546C131.061 18.6083 130.61 18.6763 130.185 18.75C129.76 18.818 129.378 18.9002 129.038 18.9965C128.788 19.0758 128.553 19.1778 128.332 19.3025C128.117 19.4272 127.941 19.5887 127.805 19.787C127.675 19.9797 127.61 20.2205 127.61 20.5095C127.61 20.7588 127.672 20.9968 127.797 21.2235C127.927 21.4502 128.125 21.6343 128.392 21.776C128.664 21.9177 129.018 21.9885 129.454 21.9885ZM140.394 23.255C139.532 23.255 138.807 23.0425 138.218 22.6175C137.628 22.1868 137.181 21.606 136.875 20.875C136.574 20.1383 136.424 19.3138 136.424 18.4015C136.424 17.4778 136.574 16.6505 136.875 15.9195C137.181 15.1885 137.628 14.6133 138.218 14.194C138.813 13.7747 139.541 13.565 140.402 13.565C141.252 13.565 141.983 13.7775 142.595 14.2025C143.213 14.6218 143.686 15.197 144.015 15.928C144.343 16.659 144.508 17.4835 144.508 18.4015C144.508 19.3195 144.343 20.144 144.015 20.875C143.686 21.606 143.213 22.1868 142.595 22.6175C141.983 23.0425 141.249 23.255 140.394 23.255ZM136.169 27.08V13.82H137.521V20.5775H137.691V27.08H136.169ZM140.207 21.8695C140.813 21.8695 141.315 21.7165 141.711 21.4105C142.108 21.1045 142.405 20.6908 142.604 20.1695C142.802 19.6425 142.901 19.0532 142.901 18.4015C142.901 17.7555 142.802 17.1718 142.604 16.6505C142.411 16.1292 142.111 15.7155 141.703 15.4095C141.3 15.1035 140.788 14.9505 140.164 14.9505C139.569 14.9505 139.076 15.0978 138.685 15.3925C138.294 15.6815 138.002 16.0867 137.81 16.608C137.617 17.1237 137.521 17.7215 137.521 18.4015C137.521 19.0702 137.614 19.668 137.801 20.195C137.994 20.7163 138.289 21.1272 138.685 21.4275C139.082 21.7222 139.589 21.8695 140.207 21.8695ZM148.981 23.255C148.295 23.255 147.72 23.1303 147.255 22.881C146.796 22.626 146.448 22.2917 146.21 21.878C145.977 21.4643 145.861 21.011 145.861 20.518C145.861 20.0363 145.952 19.6198 146.133 19.2685C146.32 18.9115 146.581 18.6168 146.915 18.3845C147.249 18.1465 147.649 17.9595 148.114 17.8235C148.55 17.7045 149.037 17.6025 149.576 17.5175C150.12 17.4268 150.669 17.3447 151.225 17.271C151.78 17.1973 152.298 17.1265 152.78 17.0585L152.236 17.373C152.253 16.557 152.089 15.9535 151.743 15.5625C151.403 15.1715 150.814 14.976 149.975 14.976C149.42 14.976 148.932 15.1035 148.513 15.3585C148.099 15.6078 147.808 16.0158 147.638 16.5825L146.201 16.149C146.422 15.3443 146.85 14.7125 147.485 14.2535C148.119 13.7945 148.955 13.565 149.992 13.565C150.825 13.565 151.539 13.7152 152.134 14.0155C152.735 14.3102 153.165 14.7578 153.426 15.3585C153.556 15.6418 153.639 15.9507 153.673 16.285C153.707 16.6137 153.724 16.9593 153.724 17.322V23H152.381V20.7985L152.695 21.0025C152.349 21.7448 151.865 22.3058 151.242 22.6855C150.624 23.0652 149.87 23.255 148.981 23.255ZM149.21 21.9885C149.754 21.9885 150.224 21.8922 150.621 21.6995C151.023 21.5012 151.346 21.2433 151.59 20.926C151.834 20.603 151.992 20.2517 152.066 19.872C152.151 19.5887 152.196 19.2742 152.202 18.9285C152.213 18.5772 152.219 18.308 152.219 18.121L152.746 18.3505C152.253 18.4185 151.769 18.4837 151.293 18.546C150.817 18.6083 150.366 18.6763 149.941 18.75C149.516 18.818 149.134 18.9002 148.794 18.9965C148.544 19.0758 148.309 19.1778 148.088 19.3025C147.873 19.4272 147.697 19.5887 147.561 19.787C147.431 19.9797 147.366 20.2205 147.366 20.5095C147.366 20.7588 147.428 20.9968 147.553 21.2235C147.683 21.4502 147.881 21.6343 148.148 21.776C148.42 21.9177 148.774 21.9885 149.21 21.9885ZM154.744 24.8955V23.646H165.964V24.8955H154.744ZM171.372 23.255C170.511 23.255 169.786 23.0425 169.196 22.6175C168.607 22.1868 168.159 21.606 167.853 20.875C167.553 20.1383 167.403 19.3138 167.403 18.4015C167.403 17.4778 167.553 16.6505 167.853 15.9195C168.159 15.1885 168.607 14.6133 169.196 14.194C169.791 13.7747 170.519 13.565 171.381 13.565C172.231 13.565 172.962 13.7775 173.574 14.2025C174.191 14.6218 174.665 15.197 174.993 15.928C175.322 16.659 175.486 17.4835 175.486 18.4015C175.486 19.3195 175.322 20.144 174.993 20.875C174.665 21.606 174.191 22.1868 173.574 22.6175C172.962 23.0425 172.228 23.255 171.372 23.255ZM167.148 27.08V13.82H168.499V20.5775H168.669V27.08H167.148ZM171.185 21.8695C171.792 21.8695 172.293 21.7165 172.69 21.4105C173.086 21.1045 173.384 20.6908 173.582 20.1695C173.781 19.6425 173.88 19.0532 173.88 18.4015C173.88 17.7555 173.781 17.1718 173.582 16.6505C173.39 16.1292 173.089 15.7155 172.681 15.4095C172.279 15.1035 171.766 14.9505 171.143 14.9505C170.548 14.9505 170.055 15.0978 169.664 15.3925C169.273 15.6815 168.981 16.0867 168.788 16.608C168.596 17.1237 168.499 17.7215 168.499 18.4015C168.499 19.0702 168.593 19.668 168.78 20.195C168.972 20.7163 169.267 21.1272 169.664 21.4275C170.06 21.7222 170.568 21.8695 171.185 21.8695ZM180.685 23.2465C179.591 23.2465 178.693 23.0085 177.99 22.5325C177.293 22.0508 176.866 21.3793 176.707 20.518L178.254 20.2715C178.379 20.7702 178.665 21.1668 179.112 21.4615C179.56 21.7505 180.115 21.895 180.778 21.895C181.407 21.895 181.9 21.7647 182.257 21.504C182.614 21.2433 182.793 20.8892 182.793 20.4415C182.793 20.1808 182.733 19.9712 182.614 19.8125C182.495 19.6482 182.249 19.4952 181.875 19.3535C181.507 19.2118 180.948 19.0418 180.2 18.8435C179.39 18.6282 178.753 18.4043 178.288 18.172C177.823 17.9397 177.492 17.6705 177.293 17.3645C177.095 17.0585 176.996 16.6873 176.996 16.251C176.996 15.7127 177.143 15.2423 177.438 14.84C177.733 14.432 178.143 14.1175 178.67 13.8965C179.203 13.6755 179.821 13.565 180.523 13.565C181.22 13.565 181.844 13.6755 182.393 13.8965C182.943 14.1175 183.385 14.432 183.719 14.84C184.059 15.2423 184.261 15.7127 184.323 16.251L182.776 16.5315C182.702 16.0385 182.464 15.6503 182.062 15.367C181.665 15.0837 181.152 14.9335 180.523 14.9165C179.928 14.8938 179.444 14.9987 179.07 15.231C178.702 15.4633 178.517 15.7778 178.517 16.1745C178.517 16.3955 178.585 16.5853 178.721 16.744C178.863 16.9027 179.121 17.0528 179.495 17.1945C179.875 17.3362 180.424 17.4977 181.144 17.679C181.954 17.883 182.592 18.1068 183.056 18.3505C183.527 18.5885 183.861 18.8718 184.059 19.2005C184.258 19.5235 184.357 19.923 184.357 20.399C184.357 21.283 184.031 21.98 183.379 22.49C182.728 22.9943 181.83 23.2465 180.685 23.2465ZM187.174 27.08L188.951 22.252L188.976 23.68L184.964 13.82H186.554L189.699 21.7505H189.155L192.104 13.82H193.643L188.645 27.08H187.174ZM202.811 25.601C202.148 24.836 201.578 23.9775 201.102 23.0255C200.626 22.0735 200.261 21.0733 200.006 20.025C199.751 18.9767 199.629 17.9283 199.64 16.88C199.629 15.826 199.751 14.7748 200.006 13.7265C200.261 12.6782 200.626 11.6808 201.102 10.7345C201.578 9.7825 202.148 8.924 202.811 8.159L203.933 9.009C203.264 9.80233 202.714 10.6268 202.284 11.4825C201.859 12.3382 201.544 13.2193 201.34 14.126C201.136 15.027 201.031 15.945 201.026 16.88C201.031 17.8037 201.136 18.7217 201.34 19.634C201.55 20.5407 201.867 21.4247 202.292 22.286C202.723 23.1417 203.27 23.9605 203.933 24.7425L202.811 25.601ZM209.459 23.255C208.83 23.255 208.243 23.1247 207.699 22.864C207.161 22.6033 206.699 22.2463 206.314 21.793C205.934 21.334 205.662 20.807 205.498 20.212L206.951 19.821C207.053 20.2233 207.235 20.5718 207.495 20.8665C207.756 21.1555 208.059 21.3822 208.405 21.5465C208.756 21.7052 209.122 21.7845 209.501 21.7845C210 21.7845 210.448 21.6655 210.844 21.4275C211.247 21.1838 211.564 20.8637 211.796 20.467C212.029 20.0647 212.145 19.6255 212.145 19.1495C212.145 18.6565 212.023 18.2117 211.779 17.815C211.541 17.4127 211.221 17.0953 210.819 16.863C210.417 16.6307 209.977 16.5145 209.501 16.5145C208.963 16.5145 208.501 16.6278 208.116 16.8545C207.736 17.0755 207.436 17.3475 207.215 17.6705L205.872 17.1605L206.246 10.76H212.816V12.1965H206.977L207.648 11.5675L207.334 16.693L207.002 16.2595C207.342 15.8968 207.748 15.6163 208.218 15.418C208.694 15.2197 209.178 15.1205 209.671 15.1205C210.431 15.1205 211.111 15.299 211.711 15.656C212.312 16.0073 212.788 16.489 213.139 17.101C213.491 17.7073 213.666 18.3902 213.666 19.1495C213.666 19.9032 213.474 20.5917 213.088 21.215C212.703 21.8327 212.19 22.3285 211.55 22.7025C210.915 23.0708 210.218 23.255 209.459 23.255ZM219.83 23.255C219.037 23.255 218.329 23.0765 217.705 22.7195C217.088 22.3568 216.597 21.8667 216.235 21.249C215.878 20.6257 215.699 19.9173 215.699 19.124V14.636C215.699 13.8427 215.878 13.1343 216.235 12.511C216.597 11.8877 217.088 11.3975 217.705 11.0405C218.329 10.6835 219.037 10.505 219.83 10.505C220.624 10.505 221.332 10.6835 221.955 11.0405C222.579 11.3975 223.069 11.8877 223.426 12.511C223.783 13.1343 223.961 13.8427 223.961 14.636V19.124C223.961 19.9173 223.783 20.6257 223.426 21.249C223.069 21.8667 222.579 22.3568 221.955 22.7195C221.332 23.0765 220.624 23.255 219.83 23.255ZM219.83 21.8015C220.312 21.8015 220.748 21.6853 221.139 21.453C221.53 21.2207 221.842 20.909 222.074 20.518C222.307 20.1213 222.423 19.685 222.423 19.209V14.5425C222.423 14.0608 222.307 13.6245 222.074 13.2335C221.842 12.8425 221.53 12.5308 221.139 12.2985C220.748 12.0662 220.312 11.95 219.83 11.95C219.354 11.95 218.918 12.0662 218.521 12.2985C218.13 12.5308 217.819 12.8425 217.586 13.2335C217.354 13.6245 217.238 14.0608 217.238 14.5425V19.209C217.238 19.685 217.354 20.1213 217.586 20.518C217.819 20.909 218.13 21.2207 218.521 21.453C218.918 21.6853 219.354 21.8015 219.83 21.8015ZM233.875 23.255C233.082 23.255 232.374 23.0765 231.75 22.7195C231.133 22.3568 230.642 21.8667 230.28 21.249C229.923 20.6257 229.744 19.9173 229.744 19.124V14.636C229.744 13.8427 229.923 13.1343 230.28 12.511C230.642 11.8877 231.133 11.3975 231.75 11.0405C232.374 10.6835 233.082 10.505 233.875 10.505C234.669 10.505 235.377 10.6835 236 11.0405C236.624 11.3975 237.114 11.8877 237.471 12.511C237.828 13.1343 238.006 13.8427 238.006 14.636V19.124C238.006 19.9173 237.828 20.6257 237.471 21.249C237.114 21.8667 236.624 22.3568 236 22.7195C235.377 23.0765 234.669 23.255 233.875 23.255ZM233.875 21.8015C234.357 21.8015 234.793 21.6853 235.184 21.453C235.575 21.2207 235.887 20.909 236.119 20.518C236.352 20.1213 236.468 19.685 236.468 19.209V14.5425C236.468 14.0608 236.352 13.6245 236.119 13.2335C235.887 12.8425 235.575 12.5308 235.184 12.2985C234.793 12.0662 234.357 11.95 233.875 11.95C233.399 11.95 232.963 12.0662 232.566 12.2985C232.175 12.5308 231.864 12.8425 231.631 13.2335C231.399 13.6245 231.283 14.0608 231.283 14.5425V19.209C231.283 19.685 231.399 20.1213 231.631 20.518C231.864 20.909 232.175 21.2207 232.566 21.453C232.963 21.6853 233.399 21.8015 233.875 21.8015ZM244.517 23.255C243.723 23.255 243.015 23.0765 242.392 22.7195C241.774 22.3568 241.284 21.8667 240.921 21.249C240.564 20.6257 240.386 19.9173 240.386 19.124V14.636C240.386 13.8427 240.564 13.1343 240.921 12.511C241.284 11.8877 241.774 11.3975 242.392 11.0405C243.015 10.6835 243.723 10.505 244.517 10.505C245.31 10.505 246.018 10.6835 246.642 11.0405C247.265 11.3975 247.755 11.8877 248.112 12.511C248.469 13.1343 248.648 13.8427 248.648 14.636V19.124C248.648 19.9173 248.469 20.6257 248.112 21.249C247.755 21.8667 247.265 22.3568 246.642 22.7195C246.018 23.0765 245.31 23.255 244.517 23.255ZM244.517 21.8015C244.998 21.8015 245.435 21.6853 245.826 21.453C246.217 21.2207 246.528 20.909 246.761 20.518C246.993 20.1213 247.109 19.685 247.109 19.209V14.5425C247.109 14.0608 246.993 13.6245 246.761 13.2335C246.528 12.8425 246.217 12.5308 245.826 12.2985C245.435 12.0662 244.998 11.95 244.517 11.95C244.041 11.95 243.604 12.0662 243.208 12.2985C242.817 12.5308 242.505 12.8425 242.273 13.2335C242.04 13.6245 241.924 14.0608 241.924 14.5425V19.209C241.924 19.685 242.04 20.1213 242.273 20.518C242.505 20.909 242.817 21.2207 243.208 21.453C243.604 21.6853 244.041 21.8015 244.517 21.8015ZM255.158 23.255C254.365 23.255 253.657 23.0765 253.033 22.7195C252.416 22.3568 251.926 21.8667 251.563 21.249C251.206 20.6257 251.027 19.9173 251.027 19.124V14.636C251.027 13.8427 251.206 13.1343 251.563 12.511C251.926 11.8877 252.416 11.3975 253.033 11.0405C253.657 10.6835 254.365 10.505 255.158 10.505C255.952 10.505 256.66 10.6835 257.283 11.0405C257.907 11.3975 258.397 11.8877 258.754 12.511C259.111 13.1343 259.289 13.8427 259.289 14.636V19.124C259.289 19.9173 259.111 20.6257 258.754 21.249C258.397 21.8667 257.907 22.3568 257.283 22.7195C256.66 23.0765 255.952 23.255 255.158 23.255ZM255.158 21.8015C255.64 21.8015 256.076 21.6853 256.467 21.453C256.858 21.2207 257.17 20.909 257.402 20.518C257.635 20.1213 257.751 19.685 257.751 19.209V14.5425C257.751 14.0608 257.635 13.6245 257.402 13.2335C257.17 12.8425 256.858 12.5308 256.467 12.2985C256.076 12.0662 255.64 11.95 255.158 11.95C254.682 11.95 254.246 12.0662 253.849 12.2985C253.458 12.5308 253.147 12.8425 252.914 13.2335C252.682 13.6245 252.566 14.0608 252.566 14.5425V19.209C252.566 19.685 252.682 20.1213 252.914 20.518C253.147 20.909 253.458 21.2207 253.849 21.453C254.246 21.6853 254.682 21.8015 255.158 21.8015ZM264.746 20.7475V17.5005H261.499V16.251H264.746V13.0125H265.996V16.251H269.234V17.5005H265.996V20.7475H264.746ZM99.529 46.255C98.6677 46.255 97.9424 46.0425 97.353 45.6175C96.7637 45.1868 96.316 44.606 96.01 43.875C95.7097 43.1383 95.5595 42.3138 95.5595 41.4015C95.5595 40.4778 95.7097 39.6505 96.01 38.9195C96.316 38.1885 96.7637 37.6133 97.353 37.194C97.948 36.7747 98.6762 36.565 99.5375 36.565C100.388 36.565 101.119 36.7775 101.731 37.2025C102.348 37.6218 102.821 38.197 103.15 38.928C103.479 39.659 103.643 40.4835 103.643 41.4015C103.643 42.3195 103.479 43.144 103.15 43.875C102.821 44.606 102.348 45.1868 101.731 45.6175C101.119 46.0425 100.385 46.255 99.529 46.255ZM95.3045 50.08V36.82H96.656V43.5775H96.826V50.08H95.3045ZM99.342 44.8695C99.9484 44.8695 100.45 44.7165 100.847 44.4105C101.243 44.1045 101.541 43.6908 101.739 43.1695C101.937 42.6425 102.037 42.0532 102.037 41.4015C102.037 40.7555 101.937 40.1718 101.739 39.6505C101.546 39.1292 101.246 38.7155 100.838 38.4095C100.436 38.1035 99.9229 37.9505 99.2995 37.9505C98.7045 37.9505 98.2115 38.0978 97.8205 38.3925C97.4295 38.6815 97.1377 39.0867 96.945 39.608C96.7524 40.1237 96.656 40.7215 96.656 41.4015C96.656 42.0702 96.7495 42.668 96.9365 43.195C97.1292 43.7163 97.4239 44.1272 97.8205 44.4275C98.2172 44.7222 98.7244 44.8695 99.342 44.8695ZM109.416 46.255C108.504 46.255 107.716 46.0482 107.053 45.6345C106.396 45.2208 105.889 44.6485 105.532 43.9175C105.175 43.1865 104.996 42.3478 104.996 41.4015C104.996 40.4382 105.178 39.5938 105.54 38.8685C105.903 38.1432 106.416 37.5793 107.079 37.177C107.742 36.769 108.521 36.565 109.416 36.565C110.334 36.565 111.125 36.7718 111.788 37.1855C112.451 37.5935 112.958 38.163 113.309 38.894C113.666 39.6193 113.845 40.4552 113.845 41.4015C113.845 42.3592 113.666 43.2035 113.309 43.9345C112.952 44.6598 112.442 45.2293 111.779 45.643C111.116 46.051 110.329 46.255 109.416 46.255ZM109.416 44.8185C110.368 44.8185 111.077 44.5012 111.541 43.8665C112.006 43.2318 112.238 42.4102 112.238 41.4015C112.238 40.3645 112.003 39.54 111.533 38.928C111.063 38.3103 110.357 38.0015 109.416 38.0015C108.776 38.0015 108.249 38.146 107.835 38.435C107.422 38.724 107.113 39.1235 106.909 39.6335C106.705 40.1435 106.603 40.7328 106.603 41.4015C106.603 42.4328 106.841 43.2602 107.317 43.8835C107.793 44.5068 108.493 44.8185 109.416 44.8185ZM115.036 48.04V44.7505C115.552 44.7505 115.92 44.5833 116.141 44.249C116.362 43.909 116.541 43.3508 116.677 42.5745C116.768 42.0872 116.841 41.5658 116.898 41.0105C116.955 40.4552 117.003 39.8375 117.042 39.1575C117.088 38.4718 117.13 37.6927 117.17 36.82H123.494V44.7505H124.386V48.04H122.941V46H116.481V48.04H115.036ZM117.365 44.7505H121.981V38.0695H118.538C118.521 38.4718 118.499 38.894 118.47 39.336C118.442 39.7723 118.408 40.2087 118.368 40.645C118.334 41.0813 118.292 41.495 118.241 41.886C118.196 42.2713 118.142 42.617 118.079 42.923C118.006 43.348 117.921 43.7078 117.824 44.0025C117.728 44.2972 117.575 44.5465 117.365 44.7505ZM133.606 36.82V46H132.144V39.234L127.333 46H126.084V36.82H127.546V43.4925L132.365 36.82H133.606ZM138.418 46V38.197H135.222V36.82H143.127V38.197H139.931V46H138.418ZM148.714 46.255C147.813 46.255 147.025 46.0567 146.351 45.66C145.682 45.2577 145.161 44.6995 144.787 43.9855C144.413 43.2658 144.226 42.4272 144.226 41.4695C144.226 40.4665 144.41 39.5995 144.778 38.8685C145.147 38.1318 145.66 37.5652 146.317 37.1685C146.98 36.7662 147.756 36.565 148.646 36.565C149.57 36.565 150.354 36.7775 151 37.2025C151.652 37.6275 152.139 38.2338 152.462 39.0215C152.791 39.8092 152.933 40.747 152.887 41.835H151.357V41.291C151.34 40.1633 151.111 39.3218 150.669 38.7665C150.227 38.2055 149.57 37.925 148.697 37.925C147.762 37.925 147.051 38.2253 146.563 38.826C146.076 39.4267 145.832 40.288 145.832 41.41C145.832 42.4923 146.076 43.331 146.563 43.926C147.051 44.521 147.745 44.8185 148.646 44.8185C149.252 44.8185 149.779 44.6797 150.227 44.402C150.675 44.1243 151.026 43.7248 151.281 43.2035L152.734 43.705C152.377 44.5153 151.839 45.1443 151.119 45.592C150.405 46.034 149.604 46.255 148.714 46.255ZM145.322 41.835V40.6195H152.105V41.835H145.322ZM153.93 46V44.6995C154.27 44.7618 154.528 44.7505 154.703 44.6655C154.885 44.5748 155.018 44.419 155.103 44.198C155.194 43.9713 155.267 43.688 155.324 43.348C155.42 42.8097 155.502 42.209 155.57 41.546C155.644 40.883 155.709 40.1577 155.766 39.37C155.828 38.5767 155.885 37.7267 155.936 36.82H162.353V46H160.84V38.2565H157.313C157.279 38.7778 157.236 39.3133 157.185 39.863C157.14 40.4127 157.092 40.9482 157.041 41.4695C156.99 41.9852 156.933 42.4668 156.871 42.9145C156.814 43.3565 156.752 43.739 156.684 44.062C156.576 44.6173 156.426 45.0622 156.233 45.3965C156.041 45.7252 155.763 45.9377 155.4 46.034C155.038 46.136 154.548 46.1247 153.93 46ZM168.719 46.255C167.818 46.255 167.03 46.0567 166.356 45.66C165.687 45.2577 165.166 44.6995 164.792 43.9855C164.418 43.2658 164.231 42.4272 164.231 41.4695C164.231 40.4665 164.415 39.5995 164.783 38.8685C165.152 38.1318 165.664 37.5652 166.322 37.1685C166.985 36.7662 167.761 36.565 168.651 36.565C169.574 36.565 170.359 36.7775 171.005 37.2025C171.657 37.6275 172.144 38.2338 172.467 39.0215C172.796 39.8092 172.938 40.747 172.892 41.835H171.362V41.291C171.345 40.1633 171.116 39.3218 170.674 38.7665C170.232 38.2055 169.574 37.925 168.702 37.925C167.767 37.925 167.056 38.2253 166.568 38.826C166.081 39.4267 165.837 40.288 165.837 41.41C165.837 42.4923 166.081 43.331 166.568 43.926C167.056 44.521 167.75 44.8185 168.651 44.8185C169.257 44.8185 169.784 44.6797 170.232 44.402C170.679 44.1243 171.031 43.7248 171.286 43.2035L172.739 43.705C172.382 44.5153 171.844 45.1443 171.124 45.592C170.41 46.034 169.608 46.255 168.719 46.255ZM165.327 41.835V40.6195H172.11V41.835H165.327ZM178.737 35.749C178.312 35.749 177.924 35.6442 177.573 35.4345C177.221 35.2248 176.941 34.9472 176.731 34.6015C176.522 34.2502 176.417 33.8592 176.417 33.4285H177.641C177.641 33.7288 177.748 33.9867 177.964 34.202C178.179 34.4173 178.437 34.525 178.737 34.525C179.043 34.525 179.301 34.4173 179.511 34.202C179.726 33.9867 179.834 33.7288 179.834 33.4285H181.058C181.058 33.8592 180.953 34.2502 180.743 34.6015C180.539 34.9472 180.259 35.2248 179.902 35.4345C179.55 35.6442 179.162 35.749 178.737 35.749ZM182.299 36.82V46H180.837V39.234L176.026 46H174.776V36.82H176.238V43.4925L181.058 36.82H182.299ZM185.334 49.111L184.212 48.2525C184.875 47.4705 185.419 46.6517 185.844 45.796C186.274 44.9347 186.595 44.0507 186.804 43.144C187.014 42.2317 187.119 41.3137 187.119 40.39C187.119 39.455 187.014 38.537 186.804 37.636C186.6 36.7293 186.283 35.8482 185.852 34.9925C185.427 34.1368 184.88 33.3123 184.212 32.519L185.334 31.669C185.997 32.434 186.566 33.2925 187.042 34.2445C187.524 35.1908 187.889 36.1882 188.139 37.2365C188.394 38.2848 188.516 39.336 188.504 40.39C188.516 41.4383 188.394 42.4867 188.139 43.535C187.889 44.5833 187.524 45.5835 187.042 46.5355C186.566 47.4875 185.997 48.346 185.334 49.111Z" fill="#130531"></path></svg> 