<?xml version="1.0" encoding="UTF-8"?> <svg xmlns="http://www.w3.org/2000/svg" width="365" height="65" viewBox="0 0 365 65" fill="none"><path d="M0 20C0 8.95431 8.95431 0 20 0H345C356.046 0 365 8.95431 365 20V20C365 31.0457 356.046 40 345 40H201.5C194.596 40 189 45.5964 189 52.5V52.5C189 59.4036 183.404 65 176.5 65H20C8.95431 65 0 56.0457 0 45V25V20Z" fill="white"></path><path d="M16.65 27L18.37 23.43L13.3 12.6H15.29L19.3 21.53L23.4 12.6H25.3L18.58 27H16.65ZM25.1531 27L29.5131 21.6L25.3631 16.2H27.3431L31.3531 21.5V16.2H32.9731V21.5L36.9831 16.2H38.9631L34.8131 21.6L39.1731 27H37.1031L32.9731 21.7V27H31.3531V21.7L27.2231 27H25.1531ZM45.0566 27.3C43.9966 27.3 43.0699 27.0667 42.2766 26.6C41.4899 26.1267 40.8766 25.47 40.4366 24.63C39.9966 23.7833 39.7766 22.7967 39.7766 21.67C39.7766 20.49 39.9932 19.47 40.4266 18.61C40.8599 17.7433 41.4632 17.0767 42.2366 16.61C43.0166 16.1367 43.9299 15.9 44.9766 15.9C46.0632 15.9 46.9866 16.15 47.7466 16.65C48.5132 17.15 49.0866 17.8633 49.4666 18.79C49.8532 19.7167 50.0199 20.82 49.9666 22.1H48.1666V21.46C48.1466 20.1333 47.8766 19.1433 47.3566 18.49C46.8366 17.83 46.0632 17.5 45.0366 17.5C43.9366 17.5 43.0999 17.8533 42.5266 18.56C41.9532 19.2667 41.6666 20.28 41.6666 21.6C41.6666 22.8733 41.9532 23.86 42.5266 24.56C43.0999 25.26 43.9166 25.61 44.9766 25.61C45.6899 25.61 46.3099 25.4467 46.8366 25.12C47.3632 24.7933 47.7766 24.3233 48.0766 23.71L49.7866 24.3C49.3666 25.2533 48.7332 25.9933 47.8866 26.52C47.0466 27.04 46.1032 27.3 45.0566 27.3ZM41.0666 22.1V20.67H49.0466V22.1H41.0666ZM55.7969 26.99L55.8069 25.39L62.1969 19.64C62.7302 19.16 63.0869 18.7067 63.2669 18.28C63.4535 17.8467 63.5469 17.4033 63.5469 16.95C63.5469 16.3967 63.4202 15.8967 63.1669 15.45C62.9135 15.0033 62.5669 14.65 62.1269 14.39C61.6935 14.13 61.2002 14 60.6469 14C60.0735 14 59.5635 14.1367 59.1169 14.41C58.6702 14.6767 58.3169 15.0333 58.0569 15.48C57.8035 15.9267 57.6802 16.4133 57.6869 16.94H55.8669C55.8669 16.0333 56.0769 15.2333 56.4969 14.54C56.9169 13.84 57.4869 13.2933 58.2069 12.9C58.9335 12.5 59.7569 12.3 60.6769 12.3C61.5702 12.3 62.3702 12.5067 63.0769 12.92C63.7835 13.3267 64.3402 13.8833 64.7469 14.59C65.1602 15.29 65.3669 16.0833 65.3669 16.97C65.3669 17.5967 65.2869 18.14 65.1269 18.6C64.9735 19.06 64.7335 19.4867 64.4069 19.88C64.0802 20.2667 63.6702 20.68 63.1769 21.12L57.8669 25.89L57.6369 25.29H65.3669V26.99H55.7969ZM72.6194 27.3C71.686 27.3 70.8527 27.09 70.1194 26.67C69.3927 26.2433 68.816 25.6667 68.3894 24.94C67.9694 24.2067 67.7594 23.3733 67.7594 22.44V17.16C67.7594 16.2267 67.9694 15.3933 68.3894 14.66C68.816 13.9267 69.3927 13.35 70.1194 12.93C70.8527 12.51 71.686 12.3 72.6194 12.3C73.5527 12.3 74.386 12.51 75.1194 12.93C75.8527 13.35 76.4294 13.9267 76.8494 14.66C77.2694 15.3933 77.4794 16.2267 77.4794 17.16V22.44C77.4794 23.3733 77.2694 24.2067 76.8494 24.94C76.4294 25.6667 75.8527 26.2433 75.1194 26.67C74.386 27.09 73.5527 27.3 72.6194 27.3ZM72.6194 25.59C73.186 25.59 73.6994 25.4533 74.1594 25.18C74.6194 24.9067 74.986 24.54 75.2594 24.08C75.5327 23.6133 75.6694 23.1 75.6694 22.54V17.05C75.6694 16.4833 75.5327 15.97 75.2594 15.51C74.986 15.05 74.6194 14.6833 74.1594 14.41C73.6994 14.1367 73.186 14 72.6194 14C72.0594 14 71.546 14.1367 71.0794 14.41C70.6194 14.6833 70.2527 15.05 69.9794 15.51C69.706 15.97 69.5694 16.4833 69.5694 17.05V22.54C69.5694 23.1 69.706 23.6133 69.9794 24.08C70.2527 24.54 70.6194 24.9067 71.0794 25.18C71.546 25.4533 72.0594 25.59 72.6194 25.59ZM83.2828 27V25.47C83.6828 25.5433 83.9861 25.53 84.1928 25.43C84.4061 25.3233 84.5628 25.14 84.6628 24.88C84.7695 24.6133 84.8561 24.28 84.9228 23.88C85.0361 23.2467 85.1328 22.54 85.2128 21.76C85.2995 20.98 85.3761 20.1267 85.4428 19.2C85.5161 18.2667 85.5828 17.2667 85.6428 16.2H93.1928V27H91.4128V17.89H87.2628C87.2228 18.5033 87.1728 19.1333 87.1128 19.78C87.0595 20.4267 87.0028 21.0567 86.9428 21.67C86.8828 22.2767 86.8161 22.8433 86.7428 23.37C86.6761 23.89 86.6028 24.34 86.5228 24.72C86.3961 25.3733 86.2195 25.8967 85.9928 26.29C85.7661 26.6767 85.4395 26.9267 85.0128 27.04C84.5861 27.16 84.0095 27.1467 83.2828 27ZM100.682 27.3C99.6216 27.3 98.6949 27.0667 97.9016 26.6C97.1149 26.1267 96.5016 25.47 96.0616 24.63C95.6216 23.7833 95.4016 22.7967 95.4016 21.67C95.4016 20.49 95.6182 19.47 96.0516 18.61C96.4849 17.7433 97.0882 17.0767 97.8616 16.61C98.6416 16.1367 99.5549 15.9 100.602 15.9C101.688 15.9 102.612 16.15 103.372 16.65C104.138 17.15 104.712 17.8633 105.092 18.79C105.478 19.7167 105.645 20.82 105.592 22.1H103.792V21.46C103.772 20.1333 103.502 19.1433 102.982 18.49C102.462 17.83 101.688 17.5 100.662 17.5C99.5616 17.5 98.7249 17.8533 98.1516 18.56C97.5782 19.2667 97.2916 20.28 97.2916 21.6C97.2916 22.8733 97.5782 23.86 98.1516 24.56C98.7249 25.26 99.5416 25.61 100.602 25.61C101.315 25.61 101.935 25.4467 102.462 25.12C102.988 24.7933 103.402 24.3233 103.702 23.71L105.412 24.3C104.992 25.2533 104.358 25.9933 103.512 26.52C102.672 27.04 101.728 27.3 100.682 27.3ZM96.6916 22.1V20.67H104.672V22.1H96.6916ZM110.483 27V17.82H106.723V16.2H116.023V17.82H112.263V27H110.483ZM126.88 27.3C125.866 27.3 125.013 27.05 124.32 26.55C123.626 26.0433 123.1 25.36 122.74 24.5C122.386 23.6333 122.21 22.6633 122.21 21.59C122.21 20.5033 122.386 19.53 122.74 18.67C123.1 17.81 123.626 17.1333 124.32 16.64C125.02 16.1467 125.876 15.9 126.89 15.9C127.89 15.9 128.75 16.15 129.47 16.65C130.196 17.1433 130.753 17.82 131.14 18.68C131.526 19.54 131.72 20.51 131.72 21.59C131.72 22.67 131.526 23.64 131.14 24.5C130.753 25.36 130.196 26.0433 129.47 26.55C128.75 27.05 127.886 27.3 126.88 27.3ZM121.91 31.8V16.2H123.5V24.15H123.7V31.8H121.91ZM126.66 25.67C127.373 25.67 127.963 25.49 128.43 25.13C128.896 24.77 129.246 24.2833 129.48 23.67C129.713 23.05 129.83 22.3567 129.83 21.59C129.83 20.83 129.713 20.1433 129.48 19.53C129.253 18.9167 128.9 18.43 128.42 18.07C127.946 17.71 127.343 17.53 126.61 17.53C125.91 17.53 125.33 17.7033 124.87 18.05C124.41 18.39 124.066 18.8667 123.84 19.48C123.613 20.0867 123.5 20.79 123.5 21.59C123.5 22.3767 123.61 23.08 123.83 23.7C124.056 24.3133 124.403 24.7967 124.87 25.15C125.336 25.4967 125.933 25.67 126.66 25.67ZM136.982 27.3C136.175 27.3 135.498 27.1533 134.952 26.86C134.412 26.56 134.002 26.1667 133.722 25.68C133.448 25.1933 133.312 24.66 133.312 24.08C133.312 23.5133 133.418 23.0233 133.632 22.61C133.852 22.19 134.158 21.8433 134.552 21.57C134.945 21.29 135.415 21.07 135.962 20.91C136.475 20.77 137.048 20.65 137.682 20.55C138.322 20.4433 138.968 20.3467 139.622 20.26C140.275 20.1733 140.885 20.09 141.452 20.01L140.812 20.38C140.832 19.42 140.638 18.71 140.232 18.25C139.832 17.79 139.138 17.56 138.152 17.56C137.498 17.56 136.925 17.71 136.432 18.01C135.945 18.3033 135.602 18.7833 135.402 19.45L133.712 18.94C133.972 17.9933 134.475 17.25 135.222 16.71C135.968 16.17 136.952 15.9 138.172 15.9C139.152 15.9 139.992 16.0767 140.692 16.43C141.398 16.7767 141.905 17.3033 142.212 18.01C142.365 18.3433 142.462 18.7067 142.502 19.1C142.542 19.4867 142.562 19.8933 142.562 20.32V27H140.982V24.41L141.352 24.65C140.945 25.5233 140.375 26.1833 139.642 26.63C138.915 27.0767 138.028 27.3 136.982 27.3ZM137.252 25.81C137.892 25.81 138.445 25.6967 138.912 25.47C139.385 25.2367 139.765 24.9333 140.052 24.56C140.338 24.18 140.525 23.7667 140.612 23.32C140.712 22.9867 140.765 22.6167 140.772 22.21C140.785 21.7967 140.792 21.48 140.792 21.26L141.412 21.53C140.832 21.61 140.262 21.6867 139.702 21.76C139.142 21.8333 138.612 21.9133 138.112 22C137.612 22.08 137.162 22.1767 136.762 22.29C136.468 22.3833 136.192 22.5033 135.932 22.65C135.678 22.7967 135.472 22.9867 135.312 23.22C135.158 23.4467 135.082 23.73 135.082 24.07C135.082 24.3633 135.155 24.6433 135.302 24.91C135.455 25.1767 135.688 25.3933 136.002 25.56C136.322 25.7267 136.738 25.81 137.252 25.81ZM149.552 27.31C148.532 27.3033 147.662 27.0833 146.942 26.65C146.222 26.21 145.662 25.5667 145.262 24.72C144.862 23.8733 144.638 22.8367 144.592 21.61C144.565 21.0433 144.572 20.42 144.612 19.74C144.658 19.06 144.732 18.4067 144.832 17.78C144.938 17.1533 145.072 16.6367 145.232 16.23C145.412 15.7433 145.665 15.2933 145.992 14.88C146.325 14.46 146.698 14.1133 147.112 13.84C147.532 13.5533 148.002 13.33 148.522 13.17C149.042 13.01 149.585 12.8867 150.152 12.8C150.725 12.7067 151.298 12.6267 151.872 12.56C152.445 12.4867 152.992 12.4 153.512 12.3L153.692 13.9C153.325 13.98 152.892 14.05 152.392 14.11C151.892 14.1633 151.372 14.2267 150.832 14.3C150.298 14.3733 149.785 14.4767 149.292 14.61C148.805 14.7367 148.385 14.9133 148.032 15.14C147.512 15.4533 147.112 15.9233 146.832 16.55C146.558 17.17 146.392 17.8667 146.332 18.64C146.745 18 147.282 17.53 147.942 17.23C148.602 16.93 149.305 16.78 150.052 16.78C151.018 16.78 151.852 17.0067 152.552 17.46C153.252 17.9067 153.788 18.5233 154.162 19.31C154.542 20.0967 154.732 20.9933 154.732 22C154.732 23.0667 154.518 24 154.092 24.8C153.665 25.6 153.062 26.22 152.282 26.66C151.508 27.1 150.598 27.3167 149.552 27.31ZM149.662 25.62C150.708 25.62 151.502 25.2967 152.042 24.65C152.582 23.9967 152.852 23.13 152.852 22.05C152.852 20.9433 152.572 20.0733 152.012 19.44C151.452 18.8 150.665 18.48 149.652 18.48C148.625 18.48 147.838 18.8 147.292 19.44C146.752 20.0733 146.482 20.9433 146.482 22.05C146.482 23.1633 146.755 24.0367 147.302 24.67C147.848 25.3033 148.635 25.62 149.662 25.62ZM161.539 27.3C160.466 27.3 159.539 27.0567 158.759 26.57C157.986 26.0833 157.389 25.41 156.969 24.55C156.549 23.69 156.339 22.7033 156.339 21.59C156.339 20.4567 156.552 19.4633 156.979 18.61C157.406 17.7567 158.009 17.0933 158.789 16.62C159.569 16.14 160.486 15.9 161.539 15.9C162.619 15.9 163.549 16.1433 164.329 16.63C165.109 17.11 165.706 17.78 166.119 18.64C166.539 19.4933 166.749 20.4767 166.749 21.59C166.749 22.7167 166.539 23.71 166.119 24.57C165.699 25.4233 165.099 26.0933 164.319 26.58C163.539 27.06 162.612 27.3 161.539 27.3ZM161.539 25.61C162.659 25.61 163.492 25.2367 164.039 24.49C164.586 23.7433 164.859 22.7767 164.859 21.59C164.859 20.37 164.582 19.4 164.029 18.68C163.476 17.9533 162.646 17.59 161.539 17.59C160.786 17.59 160.166 17.76 159.679 18.1C159.192 18.44 158.829 18.91 158.589 19.51C158.349 20.11 158.229 20.8033 158.229 21.59C158.229 22.8033 158.509 23.7767 159.069 24.51C159.629 25.2433 160.452 25.61 161.539 25.61ZM171.576 27V17.82H167.816V16.2H177.116V17.82H173.356V27H171.576ZM181.728 27.3C180.921 27.3 180.244 27.1533 179.698 26.86C179.158 26.56 178.748 26.1667 178.468 25.68C178.194 25.1933 178.058 24.66 178.058 24.08C178.058 23.5133 178.164 23.0233 178.378 22.61C178.598 22.19 178.904 21.8433 179.298 21.57C179.691 21.29 180.161 21.07 180.708 20.91C181.221 20.77 181.794 20.65 182.428 20.55C183.068 20.4433 183.714 20.3467 184.368 20.26C185.021 20.1733 185.631 20.09 186.198 20.01L185.558 20.38C185.578 19.42 185.384 18.71 184.978 18.25C184.578 17.79 183.884 17.56 182.898 17.56C182.244 17.56 181.671 17.71 181.178 18.01C180.691 18.3033 180.348 18.7833 180.148 19.45L178.458 18.94C178.718 17.9933 179.221 17.25 179.968 16.71C180.714 16.17 181.698 15.9 182.918 15.9C183.898 15.9 184.738 16.0767 185.438 16.43C186.144 16.7767 186.651 17.3033 186.958 18.01C187.111 18.3433 187.208 18.7067 187.248 19.1C187.288 19.4867 187.308 19.8933 187.308 20.32V27H185.728V24.41L186.098 24.65C185.691 25.5233 185.121 26.1833 184.388 26.63C183.661 27.0767 182.774 27.3 181.728 27.3ZM181.998 25.81C182.638 25.81 183.191 25.6967 183.658 25.47C184.131 25.2367 184.511 24.9333 184.798 24.56C185.084 24.18 185.271 23.7667 185.358 23.32C185.458 22.9867 185.511 22.6167 185.518 22.21C185.531 21.7967 185.538 21.48 185.538 21.26L186.158 21.53C185.578 21.61 185.008 21.6867 184.448 21.76C183.888 21.8333 183.358 21.9133 182.858 22C182.358 22.08 181.908 22.1767 181.508 22.29C181.214 22.3833 180.938 22.5033 180.678 22.65C180.424 22.7967 180.218 22.9867 180.058 23.22C179.904 23.4467 179.828 23.73 179.828 24.07C179.828 24.3633 179.901 24.6433 180.048 24.91C180.201 25.1767 180.434 25.3933 180.748 25.56C181.068 25.7267 181.484 25.81 181.998 25.81ZM198.718 27.3C197.798 27.3 196.984 27.1033 196.278 26.71C195.578 26.3167 195.014 25.76 194.588 25.04C194.161 24.32 193.894 23.47 193.788 22.49H191.678V27H189.898V16.2H191.678V20.71H193.778C193.884 19.71 194.154 18.85 194.588 18.13C195.021 17.41 195.591 16.86 196.298 16.48C197.004 16.0933 197.818 15.9 198.738 15.9C199.811 15.9 200.734 16.1433 201.508 16.63C202.288 17.1167 202.884 17.7867 203.298 18.64C203.718 19.4933 203.928 20.4733 203.928 21.58C203.928 22.7067 203.714 23.7 203.288 24.56C202.868 25.42 202.268 26.0933 201.488 26.58C200.714 27.06 199.791 27.3 198.718 27.3ZM198.688 25.61C199.821 25.61 200.661 25.24 201.208 24.5C201.761 23.7533 202.038 22.7833 202.038 21.59C202.038 20.3633 201.758 19.39 201.198 18.67C200.644 17.95 199.811 17.59 198.698 17.59C197.624 17.59 196.808 17.9467 196.248 18.66C195.688 19.3733 195.408 20.3467 195.408 21.58C195.408 22.8 195.684 23.7767 196.238 24.51C196.798 25.2433 197.614 25.61 198.688 25.61ZM214.673 27.3C213.579 27.3 212.649 27.0567 211.883 26.57C211.123 26.0767 210.543 25.4 210.143 24.54C209.743 23.68 209.536 22.7 209.523 21.6C209.536 20.4733 209.746 19.4833 210.153 18.63C210.566 17.77 211.156 17.1 211.923 16.62C212.689 16.14 213.613 15.9 214.693 15.9C215.833 15.9 216.813 16.18 217.633 16.74C218.459 17.3 219.013 18.0667 219.293 19.04L217.533 19.57C217.306 18.9433 216.936 18.4567 216.423 18.11C215.916 17.7633 215.333 17.59 214.673 17.59C213.933 17.59 213.323 17.7633 212.843 18.11C212.363 18.45 212.006 18.9233 211.773 19.53C211.539 20.13 211.419 20.82 211.413 21.6C211.426 22.8 211.703 23.77 212.243 24.51C212.789 25.2433 213.599 25.61 214.673 25.61C215.379 25.61 215.966 25.45 216.433 25.13C216.899 24.8033 217.253 24.3333 217.493 23.72L219.293 24.19C218.919 25.1967 218.336 25.9667 217.543 26.5C216.749 27.0333 215.793 27.3 214.673 27.3ZM225.328 27V16.2H234.178V27H232.398V17.89H227.108V27H225.328ZM241.578 27.3C240.505 27.3 239.578 27.0567 238.798 26.57C238.025 26.0833 237.428 25.41 237.008 24.55C236.588 23.69 236.378 22.7033 236.378 21.59C236.378 20.4567 236.591 19.4633 237.018 18.61C237.445 17.7567 238.048 17.0933 238.828 16.62C239.608 16.14 240.525 15.9 241.578 15.9C242.658 15.9 243.588 16.1433 244.368 16.63C245.148 17.11 245.745 17.78 246.158 18.64C246.578 19.4933 246.788 20.4767 246.788 21.59C246.788 22.7167 246.578 23.71 246.158 24.57C245.738 25.4233 245.138 26.0933 244.358 26.58C243.578 27.06 242.651 27.3 241.578 27.3ZM241.578 25.61C242.698 25.61 243.531 25.2367 244.078 24.49C244.625 23.7433 244.898 22.7767 244.898 21.59C244.898 20.37 244.621 19.4 244.068 18.68C243.515 17.9533 242.685 17.59 241.578 17.59C240.825 17.59 240.205 17.76 239.718 18.1C239.231 18.44 238.868 18.91 238.628 19.51C238.388 20.11 238.268 20.8033 238.268 21.59C238.268 22.8033 238.548 23.7767 239.108 24.51C239.668 25.2433 240.491 25.61 241.578 25.61ZM248.19 29.4V25.53C248.797 25.53 249.23 25.3333 249.49 24.94C249.75 24.54 249.96 23.8833 250.12 22.97C250.227 22.3967 250.313 21.7833 250.38 21.13C250.447 20.4767 250.503 19.75 250.55 18.95C250.603 18.1433 250.653 17.2267 250.7 16.2H258.14V25.53H259.19V29.4H257.49V27H249.89V29.4H248.19ZM250.93 25.53H256.36V17.67H252.31C252.29 18.1433 252.263 18.64 252.23 19.16C252.197 19.6733 252.157 20.1867 252.11 20.7C252.07 21.2133 252.02 21.7 251.96 22.16C251.907 22.6133 251.843 23.02 251.77 23.38C251.683 23.88 251.583 24.3033 251.47 24.65C251.357 24.9967 251.177 25.29 250.93 25.53ZM266.157 27.3C265.144 27.3 264.29 27.05 263.597 26.55C262.904 26.0433 262.377 25.36 262.017 24.5C261.664 23.6333 261.487 22.6633 261.487 21.59C261.487 20.5033 261.664 19.53 262.017 18.67C262.377 17.81 262.904 17.1333 263.597 16.64C264.297 16.1467 265.154 15.9 266.167 15.9C267.167 15.9 268.027 16.15 268.747 16.65C269.474 17.1433 270.03 17.82 270.417 18.68C270.804 19.54 270.997 20.51 270.997 21.59C270.997 22.67 270.804 23.64 270.417 24.5C270.03 25.36 269.474 26.0433 268.747 26.55C268.027 27.05 267.164 27.3 266.157 27.3ZM261.187 31.8V16.2H262.777V24.15H262.977V31.8H261.187ZM265.937 25.67C266.65 25.67 267.24 25.49 267.707 25.13C268.174 24.77 268.524 24.2833 268.757 23.67C268.99 23.05 269.107 22.3567 269.107 21.59C269.107 20.83 268.99 20.1433 268.757 19.53C268.53 18.9167 268.177 18.43 267.697 18.07C267.224 17.71 266.62 17.53 265.887 17.53C265.187 17.53 264.607 17.7033 264.147 18.05C263.687 18.39 263.344 18.8667 263.117 19.48C262.89 20.0867 262.777 20.79 262.777 21.59C262.777 22.3767 262.887 23.08 263.107 23.7C263.334 24.3133 263.68 24.7967 264.147 25.15C264.614 25.4967 265.21 25.67 265.937 25.67ZM277.789 27.3C276.716 27.3 275.789 27.0567 275.009 26.57C274.236 26.0833 273.639 25.41 273.219 24.55C272.799 23.69 272.589 22.7033 272.589 21.59C272.589 20.4567 272.802 19.4633 273.229 18.61C273.656 17.7567 274.259 17.0933 275.039 16.62C275.819 16.14 276.736 15.9 277.789 15.9C278.869 15.9 279.799 16.1433 280.579 16.63C281.359 17.11 281.956 17.78 282.369 18.64C282.789 19.4933 282.999 20.4767 282.999 21.59C282.999 22.7167 282.789 23.71 282.369 24.57C281.949 25.4233 281.349 26.0933 280.569 26.58C279.789 27.06 278.862 27.3 277.789 27.3ZM277.789 25.61C278.909 25.61 279.742 25.2367 280.289 24.49C280.836 23.7433 281.109 22.7767 281.109 21.59C281.109 20.37 280.832 19.4 280.279 18.68C279.726 17.9533 278.896 17.59 277.789 17.59C277.036 17.59 276.416 17.76 275.929 18.1C275.442 18.44 275.079 18.91 274.839 19.51C274.599 20.11 274.479 20.8033 274.479 21.59C274.479 22.8033 274.759 23.7767 275.319 24.51C275.879 25.2433 276.702 25.61 277.789 25.61ZM289.751 27.3C288.657 27.3 287.727 27.0567 286.961 26.57C286.201 26.0767 285.621 25.4 285.221 24.54C284.821 23.68 284.614 22.7 284.601 21.6C284.614 20.4733 284.824 19.4833 285.231 18.63C285.644 17.77 286.234 17.1 287.001 16.62C287.767 16.14 288.691 15.9 289.771 15.9C290.911 15.9 291.891 16.18 292.711 16.74C293.537 17.3 294.091 18.0667 294.371 19.04L292.611 19.57C292.384 18.9433 292.014 18.4567 291.501 18.11C290.994 17.7633 290.411 17.59 289.751 17.59C289.011 17.59 288.401 17.7633 287.921 18.11C287.441 18.45 287.084 18.9233 286.851 19.53C286.617 20.13 286.497 20.82 286.491 21.6C286.504 22.8 286.781 23.77 287.321 24.51C287.867 25.2433 288.677 25.61 289.751 25.61C290.457 25.61 291.044 25.45 291.511 25.13C291.977 24.8033 292.331 24.3333 292.571 23.72L294.371 24.19C293.997 25.1967 293.414 25.9667 292.621 26.5C291.827 27.0333 290.871 27.3 289.751 27.3ZM299.076 27V17.82H295.316V16.2H304.616V17.82H300.856V27H299.076ZM306.499 27L306.509 16.2H308.309V21.4L312.839 16.2H315.149L310.379 21.6L315.709 27H313.219L308.309 21.8V27H306.499ZM319.775 27.3C318.968 27.3 318.291 27.1533 317.745 26.86C317.205 26.56 316.795 26.1667 316.515 25.68C316.241 25.1933 316.105 24.66 316.105 24.08C316.105 23.5133 316.211 23.0233 316.425 22.61C316.645 22.19 316.951 21.8433 317.345 21.57C317.738 21.29 318.208 21.07 318.755 20.91C319.268 20.77 319.841 20.65 320.475 20.55C321.115 20.4433 321.761 20.3467 322.415 20.26C323.068 20.1733 323.678 20.09 324.245 20.01L323.605 20.38C323.625 19.42 323.431 18.71 323.025 18.25C322.625 17.79 321.931 17.56 320.945 17.56C320.291 17.56 319.718 17.71 319.225 18.01C318.738 18.3033 318.395 18.7833 318.195 19.45L316.505 18.94C316.765 17.9933 317.268 17.25 318.015 16.71C318.761 16.17 319.745 15.9 320.965 15.9C321.945 15.9 322.785 16.0767 323.485 16.43C324.191 16.7767 324.698 17.3033 325.005 18.01C325.158 18.3433 325.255 18.7067 325.295 19.1C325.335 19.4867 325.355 19.8933 325.355 20.32V27H323.775V24.41L324.145 24.65C323.738 25.5233 323.168 26.1833 322.435 26.63C321.708 27.0767 320.821 27.3 319.775 27.3ZM320.045 25.81C320.685 25.81 321.238 25.6967 321.705 25.47C322.178 25.2367 322.558 24.9333 322.845 24.56C323.131 24.18 323.318 23.7667 323.405 23.32C323.505 22.9867 323.558 22.6167 323.565 22.21C323.578 21.7967 323.585 21.48 323.585 21.26L324.205 21.53C323.625 21.61 323.055 21.6867 322.495 21.76C321.935 21.8333 321.405 21.9133 320.905 22C320.405 22.08 319.955 22.1767 319.555 22.29C319.261 22.3833 318.985 22.5033 318.725 22.65C318.471 22.7967 318.265 22.9867 318.105 23.22C317.951 23.4467 317.875 23.73 317.875 24.07C317.875 24.3633 317.948 24.6433 318.095 24.91C318.248 25.1767 318.481 25.3933 318.795 25.56C319.115 25.7267 319.531 25.81 320.045 25.81ZM327.945 27V16.2H329.475L333.575 24.58L337.675 16.2H339.205V27H337.485V19.91L334.045 27H333.105L329.665 19.91V27H327.945ZM350.838 16.2V27H349.118V19.04L343.458 27H341.988V16.2H343.708V24.05L349.378 16.2H350.838ZM23.24 43.2V54H21.52V46.04L15.86 54H14.39V43.2H16.11V51.05L21.78 43.2H23.24ZM38.8845 43.2V54H37.1645V46.04L31.5045 54H30.0345V43.2H31.7545V51.05L37.4245 43.2H38.8845ZM40.4852 54L44.6152 48.54L40.5752 43.2H42.6952L45.6552 47.16L48.5852 43.2H50.7052L46.6652 48.54L50.8052 54H48.6752L45.6552 49.92L42.6152 54H40.4852ZM61.3717 54.3C60.3584 54.3 59.5051 54.05 58.8117 53.55C58.1184 53.0433 57.5917 52.36 57.2317 51.5C56.8784 50.6333 56.7017 49.6633 56.7017 48.59C56.7017 47.5033 56.8784 46.53 57.2317 45.67C57.5917 44.81 58.1184 44.1333 58.8117 43.64C59.5117 43.1467 60.3684 42.9 61.3817 42.9C62.3817 42.9 63.2417 43.15 63.9617 43.65C64.6884 44.1433 65.2451 44.82 65.6317 45.68C66.0184 46.54 66.2117 47.51 66.2117 48.59C66.2117 49.67 66.0184 50.64 65.6317 51.5C65.2451 52.36 64.6884 53.0433 63.9617 53.55C63.2417 54.05 62.3784 54.3 61.3717 54.3ZM56.4017 58.8V43.2H57.9917V51.15H58.1917V58.8H56.4017ZM61.1517 52.67C61.8651 52.67 62.4551 52.49 62.9217 52.13C63.3884 51.77 63.7384 51.2833 63.9717 50.67C64.2051 50.05 64.3217 49.3567 64.3217 48.59C64.3217 47.83 64.2051 47.1433 63.9717 46.53C63.7451 45.9167 63.3917 45.43 62.9117 45.07C62.4384 44.71 61.8351 44.53 61.1017 44.53C60.4017 44.53 59.8217 44.7033 59.3617 45.05C58.9017 45.39 58.5584 45.8667 58.3317 46.48C58.1051 47.0867 57.9917 47.79 57.9917 48.59C57.9917 49.3767 58.1017 50.08 58.3217 50.7C58.5484 51.3133 58.8951 51.7967 59.3617 52.15C59.8284 52.4967 60.4251 52.67 61.1517 52.67ZM73.0039 54.3C71.9306 54.3 71.0039 54.0567 70.2239 53.57C69.4506 53.0833 68.8539 52.41 68.4339 51.55C68.0139 50.69 67.8039 49.7033 67.8039 48.59C67.8039 47.4567 68.0172 46.4633 68.4439 45.61C68.8706 44.7567 69.4739 44.0933 70.2539 43.62C71.0339 43.14 71.9506 42.9 73.0039 42.9C74.0839 42.9 75.0139 43.1433 75.7939 43.63C76.5739 44.11 77.1706 44.78 77.5839 45.64C78.0039 46.4933 78.2139 47.4767 78.2139 48.59C78.2139 49.7167 78.0039 50.71 77.5839 51.57C77.1639 52.4233 76.5639 53.0933 75.7839 53.58C75.0039 54.06 74.0772 54.3 73.0039 54.3ZM73.0039 52.61C74.1239 52.61 74.9572 52.2367 75.5039 51.49C76.0506 50.7433 76.3239 49.7767 76.3239 48.59C76.3239 47.37 76.0472 46.4 75.4939 45.68C74.9406 44.9533 74.1106 44.59 73.0039 44.59C72.2506 44.59 71.6306 44.76 71.1439 45.1C70.6572 45.44 70.2939 45.91 70.0539 46.51C69.8139 47.11 69.6939 47.8033 69.6939 48.59C69.6939 49.8033 69.9739 50.7767 70.5339 51.51C71.0939 52.2433 71.9172 52.61 73.0039 52.61ZM79.6156 56.4V52.53C80.2223 52.53 80.6556 52.3333 80.9156 51.94C81.1756 51.54 81.3856 50.8833 81.5456 49.97C81.6523 49.3967 81.739 48.7833 81.8056 48.13C81.8723 47.4767 81.929 46.75 81.9756 45.95C82.029 45.1433 82.079 44.2267 82.1256 43.2H89.5656V52.53H90.6156V56.4H88.9156V54H81.3156V56.4H79.6156ZM82.3556 52.53H87.7856V44.67H83.7356C83.7156 45.1433 83.689 45.64 83.6556 46.16C83.6223 46.6733 83.5823 47.1867 83.5356 47.7C83.4956 48.2133 83.4456 48.7 83.3856 49.16C83.3323 49.6133 83.269 50.02 83.1956 50.38C83.109 50.88 83.009 51.3033 82.8956 51.65C82.7823 51.9967 82.6023 52.29 82.3556 52.53ZM101.463 43.2V54H99.7427V46.04L94.0827 54H92.6127V43.2H94.3327V51.05L100.003 43.2H101.463ZM107.123 54V44.82H103.363V43.2H112.663V44.82H108.903V54H107.123ZM119.236 54.3C118.176 54.3 117.25 54.0667 116.456 53.6C115.67 53.1267 115.056 52.47 114.616 51.63C114.176 50.7833 113.956 49.7967 113.956 48.67C113.956 47.49 114.173 46.47 114.606 45.61C115.04 44.7433 115.643 44.0767 116.416 43.61C117.196 43.1367 118.11 42.9 119.156 42.9C120.243 42.9 121.166 43.15 121.926 43.65C122.693 44.15 123.266 44.8633 123.646 45.79C124.033 46.7167 124.2 47.82 124.146 49.1H122.346V48.46C122.326 47.1333 122.056 46.1433 121.536 45.49C121.016 44.83 120.243 44.5 119.216 44.5C118.116 44.5 117.28 44.8533 116.706 45.56C116.133 46.2667 115.846 47.28 115.846 48.6C115.846 49.8733 116.133 50.86 116.706 51.56C117.28 52.26 118.096 52.61 119.156 52.61C119.87 52.61 120.49 52.4467 121.016 52.12C121.543 51.7933 121.956 51.3233 122.256 50.71L123.966 51.3C123.546 52.2533 122.913 52.9933 122.066 53.52C121.226 54.04 120.283 54.3 119.236 54.3ZM115.246 49.1V47.67H123.226V49.1H115.246ZM125.373 54V52.47C125.773 52.5433 126.076 52.53 126.283 52.43C126.496 52.3233 126.653 52.14 126.753 51.88C126.859 51.6133 126.946 51.28 127.013 50.88C127.126 50.2467 127.223 49.54 127.303 48.76C127.389 47.98 127.466 47.1267 127.533 46.2C127.606 45.2667 127.673 44.2667 127.733 43.2H135.283V54H133.503V44.89H129.353C129.313 45.5033 129.263 46.1333 129.203 46.78C129.149 47.4267 129.093 48.0567 129.033 48.67C128.973 49.2767 128.906 49.8433 128.833 50.37C128.766 50.89 128.693 51.34 128.613 51.72C128.486 52.3733 128.309 52.8967 128.083 53.29C127.856 53.6767 127.529 53.9267 127.103 54.04C126.676 54.16 126.099 54.1467 125.373 54ZM144.761 54V50.09H142.431C142.158 50.09 141.855 50.08 141.521 50.06C141.195 50.0333 140.888 49.9967 140.601 49.95C139.821 49.8033 139.161 49.46 138.621 48.92C138.088 48.38 137.821 47.6333 137.821 46.68C137.821 45.7533 138.071 45.01 138.571 44.45C139.078 43.8833 139.701 43.5167 140.441 43.35C140.775 43.27 141.111 43.2267 141.451 43.22C141.798 43.2067 142.091 43.2 142.331 43.2H146.541L146.551 54H144.761ZM137.491 54L140.361 49.6H142.281L139.411 54H137.491ZM142.301 48.62H144.761V44.67H142.301C142.148 44.67 141.945 44.6767 141.691 44.69C141.445 44.7033 141.208 44.7433 140.981 44.81C140.768 44.87 140.558 44.98 140.351 45.14C140.151 45.3 139.985 45.5067 139.851 45.76C139.718 46.0133 139.651 46.3133 139.651 46.66C139.651 47.16 139.791 47.5667 140.071 47.88C140.351 48.1867 140.691 48.3933 141.091 48.5C141.311 48.5533 141.528 48.5867 141.741 48.6C141.961 48.6133 142.148 48.62 142.301 48.62ZM149.351 54V43.2H150.881L154.981 51.58L159.081 43.2H160.611V54H158.891V46.91L155.451 54H154.511L151.071 46.91V54H149.351ZM172.244 43.2V54H170.524V46.04L164.864 54H163.394V43.2H165.114V51.05L170.784 43.2H172.244Z" fill="#130531"></path></svg> 