<?xml version="1.0" encoding="UTF-8"?> <svg xmlns="http://www.w3.org/2000/svg" width="74" height="56" viewBox="0 0 74 56" fill="none"><path d="M67.7568 0L69.9603 5.56164C63.3499 7.73515 58.3308 10.7397 54.9032 14.5753C51.598 18.2831 49.9454 22.2466 49.9454 26.4658C49.9454 29.4064 51.0471 30.8767 53.2506 30.8767C54.4748 30.8767 55.7601 30.621 57.1067 30.1096C58.5757 29.5982 60.2283 29.3425 62.0645 29.3425C65.737 29.3425 68.6137 30.5571 70.6948 32.9863C72.8983 35.2877 74 38.2922 74 42C74 46.0913 72.5922 49.4795 69.7767 52.1644C66.9611 54.7215 63.4111 56 59.1265 56C53.8627 56 49.7006 53.9543 46.6402 49.863C43.5798 45.7717 42.0496 40.274 42.0496 33.3699C42.0496 25.0594 44.2531 18.0913 48.66 12.4657C53.067 6.84018 59.4326 2.68493 67.7568 0ZM25.7072 0L27.9107 5.56164C21.3002 7.73515 16.2812 10.7397 12.8536 14.5753C9.54839 18.2831 7.89578 22.2466 7.89578 26.4658C7.89578 29.4064 8.99752 30.8767 11.201 30.8767C12.4251 30.8767 13.7105 30.621 15.0571 30.1096C16.5261 29.5982 18.1787 29.3425 20.0149 29.3425C23.6873 29.3425 26.5641 30.5571 28.6452 32.9863C30.8486 35.2877 31.9504 38.2922 31.9504 42C31.9504 46.0913 30.5426 49.4795 27.727 52.1644C24.9115 54.7215 21.3615 56 17.0769 56C11.8131 56 7.65095 53.9543 4.59057 49.863C1.53019 45.7717 0 40.274 0 33.3699C0 25.0594 2.20347 18.0913 6.61042 12.4657C11.0174 6.84018 17.383 2.68493 25.7072 0Z" fill="#7984F6"></path></svg> 