<svg width="28" height="28" viewBox="0 0 28 28" fill="none" xmlns="http://www.w3.org/2000/svg">
<path d="M25.613 11.1824C26.7535 10.5882 27.5702 9.50141 27.8352 8.22453C28.1005 6.94765 27.7857 5.61703 26.9788 4.60295C26.1723 3.58917 24.9595 3.00033 23.6784 3.00033C22.3974 3.00033 21.1845 3.58918 20.3777 4.60295C19.571 5.61703 19.2565 6.94765 19.5213 8.22453C19.7866 9.50141 20.603 10.5882 21.7436 11.1824C21.3827 11.3653 21.0484 11.5984 20.7505 11.8752L20.6108 12.0097C20.5832 12.0364 17.7118 14.6804 15.12 15.0468V15.0471C14.6859 15.1077 14.2881 15.3263 14.0001 15.6624C13.7121 15.3263 13.3142 15.1077 12.8802 15.0471C10.7451 14.7446 8.16467 12.7066 7.45691 12.0848C7.39978 12.0242 7.3409 11.9642 7.28057 11.9069L7.28086 11.9066C7.25842 11.8814 7.23393 11.8582 7.20741 11.8377C6.9203 11.577 6.60026 11.3564 6.25572 11.1824C7.39627 10.5882 8.21297 9.50138 8.47824 8.2245C8.7435 6.94762 8.42898 5.617 7.62214 4.60292C6.81536 3.58884 5.60251 3 4.32145 3C3.0401 3 1.82755 3.58884 1.02077 4.60292C0.213991 5.617 -0.100526 6.94762 0.164669 8.2245C0.429916 9.50138 1.24634 10.5882 2.38719 11.1824C1.67161 11.5429 1.06912 12.0996 0.647377 12.79C0.225609 13.4804 0.00116405 14.2771 0 15.0902V24.5141C0 24.7707 0.204328 24.9789 0.456166 24.9789C0.708004 24.9789 0.912332 24.7707 0.912332 24.5141V18.3139C1.5839 19.8231 2.59275 21.3963 4.06497 22.2591H4.06526C4.27221 22.3809 4.50073 22.4596 4.73771 22.4911C4.81728 22.5017 4.89743 22.5071 4.97759 22.5068C5.29851 22.5068 5.61359 22.4207 5.89137 22.2565C6.16886 22.0926 6.39913 21.8568 6.55857 21.5732C7.01969 20.756 6.76493 19.7265 5.9383 19.0696C4.47562 17.9056 4.13782 16.773 3.74608 15.4611L3.66446 15.1826C3.59013 14.9376 3.33508 14.8004 3.09462 14.8758C2.85414 14.9512 2.71949 15.2111 2.79352 15.456L2.87513 15.7313C3.27592 17.0717 3.69131 18.4585 5.37896 19.8013C5.76663 20.1098 6.03771 20.6327 5.76897 21.1099H5.76926C5.64858 21.3246 5.44921 21.4814 5.21486 21.5458C4.98052 21.6103 4.73071 21.577 4.52056 21.4535C2.36363 20.1897 1.28867 16.9562 0.914087 15.5603V15.0938C0.914961 14.1833 1.27027 13.3104 1.90219 12.6666C2.5341 12.0228 3.39106 11.6608 4.28476 11.6599H4.36142C5.23968 11.6596 6.08317 12.0097 6.71101 12.6351L6.78359 12.709C7.3922 13.348 7.73267 14.2032 7.73207 15.0938V24.514C7.72682 24.6405 7.77259 24.7637 7.85857 24.8552C7.94455 24.9466 8.06348 24.9983 8.18794 24.9983C8.31212 24.9983 8.43133 24.9466 8.51732 24.8552C8.6033 24.7637 8.64907 24.6405 8.64382 24.514V17.3941C9.94965 18.1157 11.2015 18.5655 12.3818 18.7327C12.4406 18.7401 12.4984 18.7461 12.5572 18.7484H12.6348C13.1568 18.7493 13.6544 18.5213 14.0001 18.1225C14.3461 18.5225 14.8445 18.7514 15.368 18.7502H15.4455C15.5035 18.7502 15.5621 18.7419 15.6219 18.7336C16.798 18.5673 18.0499 18.1192 19.358 17.3958V24.5154C19.3528 24.6419 19.3985 24.7654 19.4845 24.8566C19.5705 24.948 19.6894 25 19.8139 25C19.9381 25 20.0573 24.948 20.1433 24.8566C20.2293 24.7654 20.275 24.6419 20.2698 24.5154V16.8421C20.8125 16.4712 22.1796 15.497 22.6946 14.7635H22.6943C22.8406 14.5547 22.7931 14.2649 22.5882 14.1158C22.3836 13.9668 22.0988 14.0152 21.9525 14.2239C21.5191 14.8425 20.0826 15.8642 19.5775 16.1977C18.1312 17.0925 16.7586 17.6361 15.4968 17.8149C15.4659 17.8149 15.4356 17.8214 15.4061 17.8232C14.9199 17.8416 14.5043 17.4689 14.4609 16.9751C14.4174 16.4813 14.7611 16.0392 15.2429 15.9691C18.1687 15.5534 21.2047 12.7164 21.2342 12.6882L21.3689 12.556C21.99 11.9796 22.8001 11.6607 23.6404 11.6622H23.7179C24.6113 11.6634 25.4679 12.0253 26.0996 12.6691C26.7315 13.3129 27.0868 14.1856 27.0877 15.0961V24.514C27.0877 24.7705 27.292 24.9787 27.5438 24.9787C27.7957 24.9787 28 24.7705 28 24.514V15.093C27.9991 14.2794 27.7753 13.4821 27.3535 12.7914C26.9317 12.1004 26.3287 11.5434 25.6128 11.1826L25.613 11.1824ZM0.984346 7.3304C0.984346 6.4286 1.33587 5.56389 1.9617 4.92633C2.58754 4.28876 3.43632 3.93064 4.32152 3.93064C5.20642 3.93064 6.05521 4.28876 6.68133 4.92633C7.30714 5.56387 7.65869 6.4286 7.65869 7.3304C7.65869 8.23221 7.30717 9.09691 6.68133 9.73448C6.05524 10.372 5.20642 10.7302 4.32152 10.7302C3.43661 10.7293 2.58835 10.3709 1.9626 9.73364C1.33708 9.0961 0.985241 8.23198 0.98442 7.33048L0.984346 7.3304ZM13.536 17.0174C13.4745 17.4934 13.0658 17.8424 12.5948 17.8206C12.5639 17.8206 12.5336 17.8165 12.5041 17.8123C11.3061 17.646 10.0076 17.1471 8.64203 16.3282L8.64232 15.0926C8.64203 14.7508 8.60268 14.4105 8.52486 14.0782C9.77442 14.918 11.3895 15.7735 12.7557 15.9665C13.2555 16.0378 13.6047 16.5078 13.5359 17.0174L13.536 17.0174ZM20.3417 7.3304C20.3417 6.4286 20.6932 5.56389 21.3191 4.92633C21.9452 4.28879 22.794 3.93064 23.6789 3.93064C24.5641 3.93064 25.4129 4.28876 26.0387 4.92633C26.6645 5.5639 27.016 6.4286 27.016 7.3304C27.016 8.23221 26.6645 9.09691 26.0387 9.73448C25.4129 10.372 24.5641 10.7302 23.6789 10.7302C22.7943 10.729 21.946 10.3706 21.3203 9.73334C20.6947 9.0958 20.3429 8.23168 20.3418 7.33048L20.3417 7.3304Z" fill="#1A1A1A"/>
</svg>
