<?xml version="1.0" encoding="UTF-8"?> <svg xmlns="http://www.w3.org/2000/svg" width="16" height="17" viewBox="0 0 16 17" fill="none"><path d="M8 0.399902C3.58167 0.399902 0 3.98157 0 8.3999C0 12.8182 3.58167 16.3999 8 16.3999C12.4183 16.3999 16 12.8182 16 8.3999C16 3.98157 12.4183 0.399902 8 0.399902ZM11.0767 9.42574C11.0767 9.42574 11.7842 10.1241 11.9583 10.4482C11.9633 10.4555 11.9664 10.461 11.9675 10.4649C12.0381 10.5832 12.0556 10.6768 12.02 10.7457C11.9617 10.8607 11.7617 10.9174 11.6933 10.9224H10.4433C10.3567 10.9224 10.175 10.8999 9.955 10.7482C9.78583 10.6299 9.61917 10.4357 9.45667 10.2466C9.21417 9.9649 9.00417 9.72157 8.7925 9.72157C8.76561 9.72145 8.73888 9.72567 8.71333 9.73407C8.55333 9.78574 8.34833 10.0141 8.34833 10.6224C8.34833 10.8124 8.19833 10.9216 8.0925 10.9216H7.52C7.325 10.9216 6.30917 10.8532 5.40917 9.90407C4.3075 8.74157 3.31583 6.4099 3.3075 6.38824C3.245 6.2374 3.37417 6.15657 3.515 6.15657H4.7775C4.94583 6.15657 5.00083 6.25907 5.03917 6.3499C5.08417 6.45574 5.24917 6.87657 5.52 7.3499C5.95917 8.12157 6.22833 8.4349 6.44417 8.4349C6.48464 8.43443 6.52439 8.42413 6.56 8.4049C6.84167 8.24824 6.78917 7.24407 6.77667 7.03574C6.77667 6.99657 6.77583 6.58657 6.63167 6.3899C6.52833 6.2474 6.3525 6.19324 6.24583 6.17324C6.28901 6.11366 6.34589 6.06536 6.41167 6.0324C6.605 5.93574 6.95333 5.92157 7.29917 5.92157H7.49167C7.86667 5.92657 7.96333 5.95074 8.09917 5.9849C8.37417 6.05074 8.38 6.22824 8.35583 6.83574C8.34833 7.00824 8.34083 7.20324 8.34083 7.43324L8.33833 7.59324C8.33 7.9024 8.32 8.25324 8.53833 8.3974C8.56649 8.41597 8.59961 8.42556 8.63333 8.4249C8.70917 8.4249 8.9375 8.4249 9.55583 7.36407C9.74582 7.02225 9.9115 6.66749 10.0517 6.3024C10.0642 6.28074 10.1008 6.21407 10.1442 6.18824C10.1765 6.17288 10.2117 6.16464 10.2475 6.16407H11.7317C11.8933 6.16407 12.0042 6.18824 12.025 6.25074C12.0617 6.3499 12.0183 6.6524 11.3408 7.5699L11.0383 7.96907C10.4242 8.77407 10.4242 8.8149 11.0767 9.42574Z" fill="#E07C01"></path></svg> 