<?xml version="1.0" standalone="no"?>
<!DOCTYPE svg PUBLIC "-//W3C//DTD SVG 20010904//EN"
 "http://www.w3.org/TR/2001/REC-SVG-20010904/DTD/svg10.dtd">
<svg version="1.0" xmlns="http://www.w3.org/2000/svg"
 width="500.000000pt" height="500.000000pt" viewBox="0 0 500.000000 500.000000"
 preserveAspectRatio="xMidYMid meet">
<metadata>
Created by potrace 1.14, written by Peter Selinger 2001-2017
</metadata>
<g transform="translate(0.000000,500.000000) scale(0.100000,-0.100000)"
fill="#000000" stroke="none">
<path d="M0 2500 l0 -2500 2500 0 2500 0 0 2500 0 2500 -2500 0 -2500 0 0
-2500z m2715 1531 c99 -16 120 -19 120 -21 0 -1 9 -3 20 -4 44 -6 192 -60 289
-106 107 -50 227 -124 304 -187 60 -49 153 -133 148 -133 -2 0 15 -19 38 -43
56 -59 76 -84 116 -139 18 -27 38 -48 43 -48 6 0 8 -3 4 -6 -3 -3 9 -29 27
-57 18 -29 47 -83 65 -122 18 -38 37 -78 42 -87 5 -10 9 -24 9 -31 0 -8 11
-35 24 -60 14 -25 28 -64 31 -86 3 -22 13 -70 21 -108 19 -83 29 -458 13 -516
-5 -20 -12 -52 -14 -70 -2 -17 -9 -52 -15 -77 -6 -25 -13 -58 -16 -75 -3 -16
-11 -39 -18 -50 -6 -11 -22 -47 -35 -79 -22 -53 -53 -114 -120 -229 -20 -37
-80 -121 -125 -176 -82 -103 -289 -282 -391 -339 -90 -50 -265 -131 -306 -142
-24 -6 -53 -15 -64 -20 -28 -12 -156 -38 -250 -50 -123 -15 -364 -6 -470 19
-119 26 -136 31 -160 41 -11 5 -45 16 -76 24 -50 14 -157 63 -214 99 -162 100
-232 153 -325 247 -58 58 -117 119 -130 135 -45 55 -80 104 -80 111 0 4 -6 15
-14 23 -60 68 -203 399 -220 510 -3 14 -10 60 -17 101 -18 103 -15 353 5 468
109 624 592 1130 1201 1263 174 37 380 45 540 20z"/>
</g>
</svg>
