<?xml version="1.0" encoding="UTF-8"?> <svg xmlns="http://www.w3.org/2000/svg" width="331" height="55" viewBox="0 0 331 55" fill="none"><path d="M0 16C0 7.16344 7.16344 0 16 0H314.5C323.337 0 330.5 7.16344 330.5 16V16C330.5 24.8366 323.337 32 314.5 32H255C248.649 32 243.5 37.1487 243.5 43.5V43.5C243.5 49.8513 238.351 55 232 55H97C90.6487 55 85.5 49.8513 85.5 43.5V43.5C85.5 37.1487 80.3513 32 74 32H16C7.16344 32 0 24.8366 0 16V16Z" fill="white"></path><path d="M23.9262 21L25.3882 17.9655L21.0787 8.76H22.7702L26.1787 16.3505L29.6637 8.76H31.2787L25.5667 21H23.9262ZM31.1539 21L34.8599 16.41L31.3324 11.82H33.0154L36.4239 16.325V11.82H37.8009V16.325L41.2094 11.82H42.8924L39.3649 16.41L43.0709 21H41.3114L37.8009 16.495V21H36.4239V16.495L32.9134 21H31.1539ZM48.0718 21.255C47.1708 21.255 46.3831 21.0567 45.7088 20.66C45.0401 20.2577 44.5188 19.6995 44.1448 18.9855C43.7708 18.2658 43.5838 17.4272 43.5838 16.4695C43.5838 15.4665 43.768 14.5995 44.1363 13.8685C44.5046 13.1318 45.0175 12.5652 45.6748 12.1685C46.3378 11.7662 47.1141 11.565 48.0038 11.565C48.9275 11.565 49.7123 11.7775 50.3583 12.2025C51.01 12.6275 51.4973 13.2338 51.8203 14.0215C52.149 14.8092 52.2906 15.747 52.2453 16.835H50.7153V16.291C50.6983 15.1633 50.4688 14.3218 50.0268 13.7665C49.5848 13.2055 48.9275 12.925 48.0548 12.925C47.1198 12.925 46.4086 13.2253 45.9213 13.826C45.434 14.4267 45.1903 15.288 45.1903 16.41C45.1903 17.4923 45.434 18.331 45.9213 18.926C46.4086 19.521 47.1028 19.8185 48.0038 19.8185C48.6101 19.8185 49.1371 19.6797 49.5848 19.402C50.0325 19.1243 50.3838 18.7248 50.6388 18.2035L52.0923 18.705C51.7353 19.5153 51.197 20.1443 50.4773 20.592C49.7633 21.034 48.9615 21.255 48.0718 21.255ZM44.6803 16.835V15.6195H51.4633V16.835H44.6803ZM57.2011 20.9915L57.2096 19.6315L62.6411 14.744C63.0944 14.336 63.3976 13.9507 63.5506 13.588C63.7092 13.2197 63.7886 12.8428 63.7886 12.4575C63.7886 11.9872 63.6809 11.5622 63.4656 11.1825C63.2502 10.8028 62.9556 10.5025 62.5816 10.2815C62.2132 10.0605 61.7939 9.95 61.3236 9.95C60.8362 9.95 60.4027 10.0662 60.0231 10.2985C59.6434 10.5252 59.3431 10.8283 59.1221 11.208C58.9067 11.5877 58.8019 12.0013 58.8076 12.449H57.2606C57.2606 11.6783 57.4391 10.9983 57.7961 10.409C58.1531 9.814 58.6376 9.34933 59.2496 9.015C59.8672 8.675 60.5671 8.505 61.3491 8.505C62.1084 8.505 62.7884 8.68067 63.3891 9.032C63.9897 9.37767 64.4629 9.85083 64.8086 10.4515C65.1599 11.0465 65.3356 11.7208 65.3356 12.4745C65.3356 13.0072 65.2676 13.469 65.1316 13.86C65.0012 14.251 64.7972 14.6137 64.5196 14.948C64.2419 15.2767 63.8934 15.628 63.4741 16.002L58.9606 20.0565L58.7651 19.5465H65.3356V20.9915H57.2011ZM71.5002 21.255C70.7069 21.255 69.9985 21.0765 69.3752 20.7195C68.7575 20.3568 68.2674 19.8667 67.9047 19.249C67.5477 18.6257 67.3692 17.9173 67.3692 17.124V12.636C67.3692 11.8427 67.5477 11.1343 67.9047 10.511C68.2674 9.88767 68.7575 9.3975 69.3752 9.0405C69.9985 8.6835 70.7069 8.505 71.5002 8.505C72.2935 8.505 73.0019 8.6835 73.6252 9.0405C74.2485 9.3975 74.7387 9.88767 75.0957 10.511C75.4527 11.1343 75.6312 11.8427 75.6312 12.636V17.124C75.6312 17.9173 75.4527 18.6257 75.0957 19.249C74.7387 19.8667 74.2485 20.3568 73.6252 20.7195C73.0019 21.0765 72.2935 21.255 71.5002 21.255ZM71.5002 19.8015C71.9819 19.8015 72.4182 19.6853 72.8092 19.453C73.2002 19.2207 73.5119 18.909 73.7442 18.518C73.9765 18.1213 74.0927 17.685 74.0927 17.209V12.5425C74.0927 12.0608 73.9765 11.6245 73.7442 11.2335C73.5119 10.8425 73.2002 10.5308 72.8092 10.2985C72.4182 10.0662 71.9819 9.95 71.5002 9.95C71.0242 9.95 70.5879 10.0662 70.1912 10.2985C69.8002 10.5308 69.4885 10.8425 69.2562 11.2335C69.0239 11.6245 68.9077 12.0608 68.9077 12.5425V17.209C68.9077 17.685 69.0239 18.1213 69.2562 18.518C69.4885 18.909 69.8002 19.2207 70.1912 19.453C70.5879 19.6853 71.0242 19.8015 71.5002 19.8015ZM80.5641 21V19.6995C80.9041 19.7618 81.162 19.7505 81.3376 19.6655C81.519 19.5748 81.6521 19.419 81.7371 19.198C81.8278 18.9713 81.9015 18.688 81.9581 18.348C82.0545 17.8097 82.1366 17.209 82.2046 16.546C82.2783 15.883 82.3435 15.1577 82.4001 14.37C82.4625 13.5767 82.5191 12.7267 82.5701 11.82H88.9876V21H87.4746V13.2565H83.9471C83.9131 13.7778 83.8706 14.3133 83.8196 14.863C83.7743 15.4127 83.7261 15.9482 83.6751 16.4695C83.6241 16.9852 83.5675 17.4668 83.5051 17.9145C83.4485 18.3565 83.3861 18.739 83.3181 19.062C83.2105 19.6173 83.0603 20.0622 82.8676 20.3965C82.675 20.7252 82.3973 20.9377 82.0346 21.034C81.672 21.136 81.1818 21.1247 80.5641 21ZM95.3531 21.255C94.4521 21.255 93.6644 21.0567 92.9901 20.66C92.3214 20.2577 91.8001 19.6995 91.4261 18.9855C91.0521 18.2658 90.8651 17.4272 90.8651 16.4695C90.8651 15.4665 91.0492 14.5995 91.4176 13.8685C91.7859 13.1318 92.2987 12.5652 92.9561 12.1685C93.6191 11.7662 94.3954 11.565 95.2851 11.565C96.2087 11.565 96.9936 11.7775 97.6396 12.2025C98.2912 12.6275 98.7786 13.2338 99.1016 14.0215C99.4302 14.8092 99.5719 15.747 99.5266 16.835H97.9966V16.291C97.9796 15.1633 97.7501 14.3218 97.3081 13.7665C96.8661 13.2055 96.2087 12.925 95.3361 12.925C94.4011 12.925 93.6899 13.2253 93.2026 13.826C92.7152 14.4267 92.4716 15.288 92.4716 16.41C92.4716 17.4923 92.7152 18.331 93.2026 18.926C93.6899 19.521 94.3841 19.8185 95.2851 19.8185C95.8914 19.8185 96.4184 19.6797 96.8661 19.402C97.3137 19.1243 97.6651 18.7248 97.9201 18.2035L99.3736 18.705C99.0166 19.5153 98.4782 20.1443 97.7586 20.592C97.0446 21.034 96.2427 21.255 95.3531 21.255ZM91.9616 16.835V15.6195H98.7446V16.835H91.9616ZM103.684 21V13.197H100.488V11.82H108.393V13.197H105.197V21H103.684ZM117.621 21.255C116.76 21.255 116.035 21.0425 115.445 20.6175C114.856 20.1868 114.408 19.606 114.102 18.875C113.802 18.1383 113.652 17.3138 113.652 16.4015C113.652 15.4778 113.802 14.6505 114.102 13.9195C114.408 13.1885 114.856 12.6133 115.445 12.194C116.04 11.7747 116.768 11.565 117.63 11.565C118.48 11.565 119.211 11.7775 119.823 12.2025C120.44 12.6218 120.914 13.197 121.242 13.928C121.571 14.659 121.735 15.4835 121.735 16.4015C121.735 17.3195 121.571 18.144 121.242 18.875C120.914 19.606 120.44 20.1868 119.823 20.6175C119.211 21.0425 118.477 21.255 117.621 21.255ZM113.397 25.08V11.82H114.748V18.5775H114.918V25.08H113.397ZM117.434 19.8695C118.041 19.8695 118.542 19.7165 118.939 19.4105C119.335 19.1045 119.633 18.6908 119.831 18.1695C120.03 17.6425 120.129 17.0532 120.129 16.4015C120.129 15.7555 120.03 15.1718 119.831 14.6505C119.639 14.1292 119.338 13.7155 118.93 13.4095C118.528 13.1035 118.015 12.9505 117.392 12.9505C116.797 12.9505 116.304 13.0978 115.913 13.3925C115.522 13.6815 115.23 14.0867 115.037 14.608C114.845 15.1237 114.748 15.7215 114.748 16.4015C114.748 17.0702 114.842 17.668 115.029 18.195C115.221 18.7163 115.516 19.1272 115.913 19.4275C116.309 19.7222 116.817 19.8695 117.434 19.8695ZM126.208 21.255C125.523 21.255 124.947 21.1303 124.483 20.881C124.024 20.626 123.675 20.2917 123.437 19.878C123.205 19.4643 123.089 19.011 123.089 18.518C123.089 18.0363 123.179 17.6198 123.361 17.2685C123.548 16.9115 123.808 16.6168 124.143 16.3845C124.477 16.1465 124.877 15.9595 125.341 15.8235C125.778 15.7045 126.265 15.6025 126.803 15.5175C127.347 15.4268 127.897 15.3447 128.452 15.271C129.008 15.1973 129.526 15.1265 130.008 15.0585L129.464 15.373C129.481 14.557 129.316 13.9535 128.971 13.5625C128.631 13.1715 128.041 12.976 127.203 12.976C126.647 12.976 126.16 13.1035 125.741 13.3585C125.327 13.6078 125.035 14.0158 124.865 14.5825L123.429 14.149C123.65 13.3443 124.078 12.7125 124.712 12.2535C125.347 11.7945 126.183 11.565 127.22 11.565C128.053 11.565 128.767 11.7152 129.362 12.0155C129.962 12.3102 130.393 12.7578 130.654 13.3585C130.784 13.6418 130.866 13.9507 130.9 14.285C130.934 14.6137 130.951 14.9593 130.951 15.322V21H129.608V18.7985L129.923 19.0025C129.577 19.7448 129.093 20.3058 128.469 20.6855C127.852 21.0652 127.098 21.255 126.208 21.255ZM126.438 19.9885C126.982 19.9885 127.452 19.8922 127.849 19.6995C128.251 19.5012 128.574 19.2433 128.818 18.926C129.061 18.603 129.22 18.2517 129.294 17.872C129.379 17.5887 129.424 17.2742 129.43 16.9285C129.441 16.5772 129.447 16.308 129.447 16.121L129.974 16.3505C129.481 16.4185 128.996 16.4837 128.52 16.546C128.044 16.6083 127.594 16.6763 127.169 16.75C126.744 16.818 126.361 16.9002 126.021 16.9965C125.772 17.0758 125.537 17.1778 125.316 17.3025C125.1 17.4272 124.925 17.5887 124.789 17.787C124.658 17.9797 124.593 18.2205 124.593 18.5095C124.593 18.7588 124.656 18.9968 124.78 19.2235C124.911 19.4502 125.109 19.6343 125.375 19.776C125.647 19.9177 126.001 19.9885 126.438 19.9885ZM136.893 21.2635C136.026 21.2578 135.286 21.0708 134.674 20.7025C134.062 20.3285 133.586 19.7817 133.246 19.062C132.906 18.3423 132.716 17.4612 132.677 16.4185C132.654 15.9368 132.66 15.407 132.694 14.829C132.733 14.251 132.796 13.6957 132.881 13.163C132.971 12.6303 133.085 12.1912 133.221 11.8455C133.374 11.4318 133.589 11.0493 133.867 10.698C134.15 10.341 134.467 10.0463 134.819 9.814C135.176 9.57033 135.575 9.3805 136.017 9.2445C136.459 9.1085 136.921 9.00367 137.403 8.93C137.89 8.85067 138.377 8.78267 138.865 8.726C139.352 8.66367 139.817 8.59 140.259 8.505L140.412 9.865C140.1 9.933 139.732 9.9925 139.307 10.0435C138.882 10.0888 138.44 10.1427 137.981 10.205C137.527 10.2673 137.091 10.3552 136.672 10.4685C136.258 10.5762 135.901 10.7263 135.601 10.919C135.159 11.1853 134.819 11.5848 134.581 12.1175C134.348 12.6445 134.207 13.2367 134.156 13.894C134.507 13.35 134.963 12.9505 135.524 12.6955C136.085 12.4405 136.683 12.313 137.318 12.313C138.139 12.313 138.848 12.5057 139.443 12.891C140.038 13.2707 140.494 13.7948 140.811 14.4635C141.134 15.1322 141.296 15.8943 141.296 16.75C141.296 17.6567 141.114 18.45 140.752 19.13C140.389 19.81 139.876 20.337 139.213 20.711C138.556 21.085 137.782 21.2692 136.893 21.2635ZM136.986 19.827C137.876 19.827 138.55 19.5522 139.009 19.0025C139.468 18.4472 139.698 17.7105 139.698 16.7925C139.698 15.8518 139.46 15.1123 138.984 14.574C138.508 14.03 137.839 13.758 136.978 13.758C136.105 13.758 135.436 14.03 134.972 14.574C134.513 15.1123 134.283 15.8518 134.283 16.7925C134.283 17.7388 134.516 18.4812 134.98 19.0195C135.445 19.5578 136.114 19.827 136.986 19.827ZM147.082 21.255C146.17 21.255 145.382 21.0482 144.719 20.6345C144.062 20.2208 143.554 19.6485 143.197 18.9175C142.84 18.1865 142.662 17.3478 142.662 16.4015C142.662 15.4382 142.843 14.5938 143.206 13.8685C143.569 13.1432 144.081 12.5793 144.744 12.177C145.407 11.769 146.187 11.565 147.082 11.565C148 11.565 148.79 11.7718 149.453 12.1855C150.116 12.5935 150.624 13.163 150.975 13.894C151.332 14.6193 151.51 15.4552 151.51 16.4015C151.51 17.3592 151.332 18.2035 150.975 18.9345C150.618 19.6598 150.108 20.2293 149.445 20.643C148.782 21.051 147.994 21.255 147.082 21.255ZM147.082 19.8185C148.034 19.8185 148.742 19.5012 149.207 18.8665C149.672 18.2318 149.904 17.4102 149.904 16.4015C149.904 15.3645 149.669 14.54 149.198 13.928C148.728 13.3103 148.023 13.0015 147.082 13.0015C146.442 13.0015 145.915 13.146 145.501 13.435C145.087 13.724 144.778 14.1235 144.574 14.6335C144.37 15.1435 144.268 15.7328 144.268 16.4015C144.268 17.4328 144.506 18.2602 144.982 18.8835C145.458 19.5068 146.158 19.8185 147.082 19.8185ZM155.614 21V13.197H152.418V11.82H160.323V13.197H157.127V21H155.614ZM164.242 21.255C163.557 21.255 162.982 21.1303 162.517 20.881C162.058 20.626 161.709 20.2917 161.471 19.878C161.239 19.4643 161.123 19.011 161.123 18.518C161.123 18.0363 161.214 17.6198 161.395 17.2685C161.582 16.9115 161.843 16.6168 162.177 16.3845C162.511 16.1465 162.911 15.9595 163.375 15.8235C163.812 15.7045 164.299 15.6025 164.837 15.5175C165.381 15.4268 165.931 15.3447 166.486 15.271C167.042 15.1973 167.56 15.1265 168.042 15.0585L167.498 15.373C167.515 14.557 167.351 13.9535 167.005 13.5625C166.665 13.1715 166.076 12.976 165.237 12.976C164.682 12.976 164.194 13.1035 163.775 13.3585C163.361 13.6078 163.069 14.0158 162.899 14.5825L161.463 14.149C161.684 13.3443 162.112 12.7125 162.746 12.2535C163.381 11.7945 164.217 11.565 165.254 11.565C166.087 11.565 166.801 11.7152 167.396 12.0155C167.997 12.3102 168.427 12.7578 168.688 13.3585C168.818 13.6418 168.9 13.9507 168.934 14.285C168.968 14.6137 168.985 14.9593 168.985 15.322V21H167.642V18.7985L167.957 19.0025C167.611 19.7448 167.127 20.3058 166.503 20.6855C165.886 21.0652 165.132 21.255 164.242 21.255ZM164.472 19.9885C165.016 19.9885 165.486 19.8922 165.883 19.6995C166.285 19.5012 166.608 19.2433 166.852 18.926C167.096 18.603 167.254 18.2517 167.328 17.872C167.413 17.5887 167.458 17.2742 167.464 16.9285C167.475 16.5772 167.481 16.308 167.481 16.121L168.008 16.3505C167.515 16.4185 167.03 16.4837 166.554 16.546C166.078 16.6083 165.628 16.6763 165.203 16.75C164.778 16.818 164.395 16.9002 164.055 16.9965C163.806 17.0758 163.571 17.1778 163.35 17.3025C163.135 17.4272 162.959 17.5887 162.823 17.787C162.693 17.9797 162.627 18.2205 162.627 18.5095C162.627 18.7588 162.69 18.9968 162.814 19.2235C162.945 19.4502 163.143 19.6343 163.409 19.776C163.681 19.9177 164.036 19.9885 164.472 19.9885ZM178.684 21.255C177.902 21.255 177.211 21.0878 176.61 20.7535C176.015 20.4192 175.536 19.946 175.173 19.334C174.811 18.722 174.584 17.9995 174.493 17.1665H172.7V21H171.187V11.82H172.7V15.6535H174.485C174.576 14.8035 174.805 14.0725 175.173 13.4605C175.542 12.8485 176.026 12.381 176.627 12.058C177.228 11.7293 177.919 11.565 178.701 11.565C179.613 11.565 180.398 11.7718 181.055 12.1855C181.718 12.5992 182.226 13.1687 182.577 13.894C182.934 14.6193 183.112 15.4523 183.112 16.393C183.112 17.3507 182.931 18.195 182.568 18.926C182.211 19.657 181.701 20.2293 181.038 20.643C180.381 21.051 179.596 21.255 178.684 21.255ZM178.658 19.8185C179.622 19.8185 180.336 19.504 180.8 18.875C181.271 18.2403 181.506 17.4158 181.506 16.4015C181.506 15.3588 181.268 14.5315 180.792 13.9195C180.322 13.3075 179.613 13.0015 178.667 13.0015C177.755 13.0015 177.06 13.3047 176.584 13.911C176.108 14.5173 175.87 15.3447 175.87 16.393C175.87 17.43 176.106 18.2602 176.576 18.8835C177.052 19.5068 177.746 19.8185 178.658 19.8185ZM192.245 21.255C191.316 21.255 190.526 21.0482 189.874 20.6345C189.228 20.2152 188.735 19.64 188.395 18.909C188.055 18.178 187.879 17.345 187.868 16.41C187.879 15.4523 188.058 14.6108 188.403 13.8855C188.755 13.1545 189.256 12.585 189.908 12.177C190.56 11.769 191.344 11.565 192.262 11.565C193.231 11.565 194.064 11.803 194.761 12.279C195.464 12.755 195.934 13.4067 196.172 14.234L194.676 14.6845C194.484 14.1518 194.169 13.7382 193.733 13.4435C193.302 13.1488 192.806 13.0015 192.245 13.0015C191.616 13.0015 191.098 13.1488 190.69 13.4435C190.282 13.7325 189.979 14.1348 189.78 14.6505C189.582 15.1605 189.48 15.747 189.474 16.41C189.486 17.43 189.721 18.2545 190.18 18.8835C190.645 19.5068 191.333 19.8185 192.245 19.8185C192.846 19.8185 193.345 19.6825 193.741 19.4105C194.138 19.1328 194.438 18.7333 194.642 18.212L196.172 18.6115C195.855 19.4672 195.359 20.1217 194.685 20.575C194.011 21.0283 193.197 21.255 192.245 21.255ZM201.302 21V11.82H208.825V21H207.312V13.2565H202.815V21H201.302ZM215.115 21.255C214.203 21.255 213.415 21.0482 212.752 20.6345C212.095 20.2208 211.588 19.6485 211.231 18.9175C210.874 18.1865 210.695 17.3478 210.695 16.4015C210.695 15.4382 210.876 14.5938 211.239 13.8685C211.602 13.1432 212.115 12.5793 212.778 12.177C213.441 11.769 214.22 11.565 215.115 11.565C216.033 11.565 216.824 11.7718 217.487 12.1855C218.15 12.5935 218.657 13.163 219.008 13.894C219.365 14.6193 219.544 15.4552 219.544 16.4015C219.544 17.3592 219.365 18.2035 219.008 18.9345C218.651 19.6598 218.141 20.2293 217.478 20.643C216.815 21.051 216.027 21.255 215.115 21.255ZM215.115 19.8185C216.067 19.8185 216.775 19.5012 217.24 18.8665C217.705 18.2318 217.937 17.4102 217.937 16.4015C217.937 15.3645 217.702 14.54 217.232 13.928C216.761 13.3103 216.056 13.0015 215.115 13.0015C214.475 13.0015 213.948 13.146 213.534 13.435C213.12 13.724 212.812 14.1235 212.608 14.6335C212.404 15.1435 212.302 15.7328 212.302 16.4015C212.302 17.4328 212.54 18.2602 213.016 18.8835C213.492 19.5068 214.191 19.8185 215.115 19.8185ZM220.735 23.04V19.7505C221.251 19.7505 221.619 19.5833 221.84 19.249C222.061 18.909 222.24 18.3508 222.376 17.5745C222.466 17.0872 222.54 16.5658 222.597 16.0105C222.653 15.4552 222.701 14.8375 222.741 14.1575C222.786 13.4718 222.829 12.6927 222.869 11.82H229.193V19.7505H230.085V23.04H228.64V21H222.18V23.04H220.735ZM223.064 19.7505H227.68V13.0695H224.237C224.22 13.4718 224.197 13.894 224.169 14.336C224.141 14.7723 224.107 15.2087 224.067 15.645C224.033 16.0813 223.991 16.495 223.94 16.886C223.894 17.2713 223.84 17.617 223.778 17.923C223.704 18.348 223.619 18.7078 223.523 19.0025C223.427 19.2972 223.274 19.5465 223.064 19.7505ZM236.007 21.255C235.146 21.255 234.42 21.0425 233.831 20.6175C233.242 20.1868 232.794 19.606 232.488 18.875C232.188 18.1383 232.038 17.3138 232.038 16.4015C232.038 15.4778 232.188 14.6505 232.488 13.9195C232.794 13.1885 233.242 12.6133 233.831 12.194C234.426 11.7747 235.154 11.565 236.016 11.565C236.866 11.565 237.597 11.7775 238.209 12.2025C238.826 12.6218 239.299 13.197 239.628 13.928C239.957 14.659 240.121 15.4835 240.121 16.4015C240.121 17.3195 239.957 18.144 239.628 18.875C239.299 19.606 238.826 20.1868 238.209 20.6175C237.597 21.0425 236.863 21.255 236.007 21.255ZM231.783 25.08V11.82H233.134V18.5775H233.304V25.08H231.783ZM235.82 19.8695C236.426 19.8695 236.928 19.7165 237.325 19.4105C237.721 19.1045 238.019 18.6908 238.217 18.1695C238.415 17.6425 238.515 17.0532 238.515 16.4015C238.515 15.7555 238.415 15.1718 238.217 14.6505C238.024 14.1292 237.724 13.7155 237.316 13.4095C236.914 13.1035 236.401 12.9505 235.778 12.9505C235.183 12.9505 234.69 13.0978 234.299 13.3925C233.908 13.6815 233.616 14.0867 233.423 14.608C233.23 15.1237 233.134 15.7215 233.134 16.4015C233.134 17.0702 233.228 17.668 233.415 18.195C233.607 18.7163 233.902 19.1272 234.299 19.4275C234.695 19.7222 235.202 19.8695 235.82 19.8695ZM245.894 21.255C244.982 21.255 244.194 21.0482 243.531 20.6345C242.874 20.2208 242.367 19.6485 242.01 18.9175C241.653 18.1865 241.474 17.3478 241.474 16.4015C241.474 15.4382 241.656 14.5938 242.018 13.8685C242.381 13.1432 242.894 12.5793 243.557 12.177C244.22 11.769 244.999 11.565 245.894 11.565C246.812 11.565 247.603 11.7718 248.266 12.1855C248.929 12.5935 249.436 13.163 249.787 13.894C250.144 14.6193 250.323 15.4552 250.323 16.4015C250.323 17.3592 250.144 18.2035 249.787 18.9345C249.43 19.6598 248.92 20.2293 248.257 20.643C247.594 21.051 246.807 21.255 245.894 21.255ZM245.894 19.8185C246.846 19.8185 247.555 19.5012 248.019 18.8665C248.484 18.2318 248.716 17.4102 248.716 16.4015C248.716 15.3645 248.481 14.54 248.011 13.928C247.541 13.3103 246.835 13.0015 245.894 13.0015C245.254 13.0015 244.727 13.146 244.313 13.435C243.9 13.724 243.591 14.1235 243.387 14.6335C243.183 15.1435 243.081 15.7328 243.081 16.4015C243.081 17.4328 243.319 18.2602 243.795 18.8835C244.271 19.5068 244.971 19.8185 245.894 19.8185ZM256.062 21.255C255.133 21.255 254.342 21.0482 253.69 20.6345C253.044 20.2152 252.551 19.64 252.211 18.909C251.871 18.178 251.696 17.345 251.684 16.41C251.696 15.4523 251.874 14.6108 252.22 13.8855C252.571 13.1545 253.073 12.585 253.724 12.177C254.376 11.769 255.161 11.565 256.079 11.565C257.048 11.565 257.881 11.803 258.578 12.279C259.281 12.755 259.751 13.4067 259.989 14.234L258.493 14.6845C258.3 14.1518 257.986 13.7382 257.549 13.4435C257.119 13.1488 256.623 13.0015 256.062 13.0015C255.433 13.0015 254.914 13.1488 254.506 13.4435C254.098 13.7325 253.795 14.1348 253.597 14.6505C253.399 15.1605 253.297 15.747 253.291 16.41C253.302 17.43 253.537 18.2545 253.996 18.8835C254.461 19.5068 255.15 19.8185 256.062 19.8185C256.663 19.8185 257.161 19.6825 257.558 19.4105C257.955 19.1328 258.255 18.7333 258.459 18.212L259.989 18.6115C259.672 19.4672 259.176 20.1217 258.501 20.575C257.827 21.0283 257.014 21.255 256.062 21.255ZM263.989 21V13.197H260.793V11.82H268.698V13.197H265.502V21H263.989ZM270.298 21L270.307 11.82H271.837V16.24L275.687 11.82H277.651L273.596 16.41L278.127 21H276.01L271.837 16.58V21H270.298ZM281.582 21.255C280.897 21.255 280.321 21.1303 279.857 20.881C279.398 20.626 279.049 20.2917 278.811 19.878C278.579 19.4643 278.463 19.011 278.463 18.518C278.463 18.0363 278.553 17.6198 278.735 17.2685C278.922 16.9115 279.182 16.6168 279.517 16.3845C279.851 16.1465 280.251 15.9595 280.715 15.8235C281.152 15.7045 281.639 15.6025 282.177 15.5175C282.721 15.4268 283.271 15.3447 283.826 15.271C284.382 15.1973 284.9 15.1265 285.382 15.0585L284.838 15.373C284.855 14.557 284.69 13.9535 284.345 13.5625C284.005 13.1715 283.415 12.976 282.577 12.976C282.021 12.976 281.534 13.1035 281.115 13.3585C280.701 13.6078 280.409 14.0158 280.239 14.5825L278.803 14.149C279.024 13.3443 279.452 12.7125 280.086 12.2535C280.721 11.7945 281.557 11.565 282.594 11.565C283.427 11.565 284.141 11.7152 284.736 12.0155C285.336 12.3102 285.767 12.7578 286.028 13.3585C286.158 13.6418 286.24 13.9507 286.274 14.285C286.308 14.6137 286.325 14.9593 286.325 15.322V21H284.982V18.7985L285.297 19.0025C284.951 19.7448 284.467 20.3058 283.843 20.6855C283.226 21.0652 282.472 21.255 281.582 21.255ZM281.812 19.9885C282.356 19.9885 282.826 19.8922 283.223 19.6995C283.625 19.5012 283.948 19.2433 284.192 18.926C284.435 18.603 284.594 18.2517 284.668 17.872C284.753 17.5887 284.798 17.2742 284.804 16.9285C284.815 16.5772 284.821 16.308 284.821 16.121L285.348 16.3505C284.855 16.4185 284.37 16.4837 283.894 16.546C283.418 16.6083 282.968 16.6763 282.543 16.75C282.118 16.818 281.735 16.9002 281.395 16.9965C281.146 17.0758 280.911 17.1778 280.69 17.3025C280.474 17.4272 280.299 17.5887 280.163 17.787C280.032 17.9797 279.967 18.2205 279.967 18.5095C279.967 18.7588 280.03 18.9968 280.154 19.2235C280.285 19.4502 280.483 19.6343 280.749 19.776C281.021 19.9177 281.375 19.9885 281.812 19.9885ZM288.527 21V11.82H289.827L293.312 18.943L296.797 11.82H298.098V21H296.636V14.9735L293.712 21H292.913L289.989 14.9735V21H288.527ZM307.986 11.82V21H306.524V14.234L301.713 21H300.463V11.82H301.925V18.4925L306.745 11.82H307.986ZM105.43 34.82V44H103.968V37.234L99.1571 44H97.9076V34.82H99.3696V41.4925L104.189 34.82H105.43ZM118.728 34.82V44H117.266V37.234L112.455 44H111.205V34.82H112.667V41.4925L117.487 34.82H118.728ZM120.088 44L123.599 39.359L120.165 34.82H121.967L124.483 38.186L126.973 34.82H128.775L125.341 39.359L128.86 44H127.05L124.483 40.532L121.899 44H120.088ZM137.842 44.255C136.981 44.255 136.255 44.0425 135.666 43.6175C135.077 43.1868 134.629 42.606 134.323 41.875C134.023 41.1383 133.873 40.3138 133.873 39.4015C133.873 38.4778 134.023 37.6505 134.323 36.9195C134.629 36.1885 135.077 35.6133 135.666 35.194C136.261 34.7747 136.989 34.565 137.851 34.565C138.701 34.565 139.432 34.7775 140.044 35.2025C140.661 35.6218 141.134 36.197 141.463 36.928C141.792 37.659 141.956 38.4835 141.956 39.4015C141.956 40.3195 141.792 41.144 141.463 41.875C141.134 42.606 140.661 43.1868 140.044 43.6175C139.432 44.0425 138.698 44.255 137.842 44.255ZM133.618 48.08V34.82H134.969V41.5775H135.139V48.08H133.618ZM137.655 42.8695C138.261 42.8695 138.763 42.7165 139.16 42.4105C139.556 42.1045 139.854 41.6908 140.052 41.1695C140.25 40.6425 140.35 40.0532 140.35 39.4015C140.35 38.7555 140.25 38.1718 140.052 37.6505C139.859 37.1292 139.559 36.7155 139.151 36.4095C138.749 36.1035 138.236 35.9505 137.613 35.9505C137.018 35.9505 136.525 36.0978 136.134 36.3925C135.743 36.6815 135.451 37.0867 135.258 37.608C135.065 38.1237 134.969 38.7215 134.969 39.4015C134.969 40.0702 135.063 40.668 135.25 41.195C135.442 41.7163 135.737 42.1272 136.134 42.4275C136.53 42.7222 137.037 42.8695 137.655 42.8695ZM147.729 44.255C146.817 44.255 146.029 44.0482 145.366 43.6345C144.709 43.2208 144.202 42.6485 143.845 41.9175C143.488 41.1865 143.309 40.3478 143.309 39.4015C143.309 38.4382 143.491 37.5938 143.853 36.8685C144.216 36.1432 144.729 35.5793 145.392 35.177C146.055 34.769 146.834 34.565 147.729 34.565C148.647 34.565 149.438 34.7718 150.101 35.1855C150.764 35.5935 151.271 36.163 151.622 36.894C151.979 37.6193 152.158 38.4552 152.158 39.4015C152.158 40.3592 151.979 41.2035 151.622 41.9345C151.265 42.6598 150.755 43.2293 150.092 43.643C149.429 44.051 148.642 44.255 147.729 44.255ZM147.729 42.8185C148.681 42.8185 149.39 42.5012 149.854 41.8665C150.319 41.2318 150.551 40.4102 150.551 39.4015C150.551 38.3645 150.316 37.54 149.846 36.928C149.376 36.3103 148.67 36.0015 147.729 36.0015C147.089 36.0015 146.562 36.146 146.148 36.435C145.735 36.724 145.426 37.1235 145.222 37.6335C145.018 38.1435 144.916 38.7328 144.916 39.4015C144.916 40.4328 145.154 41.2602 145.63 41.8835C146.106 42.5068 146.806 42.8185 147.729 42.8185ZM153.349 46.04V42.7505C153.865 42.7505 154.233 42.5833 154.454 42.249C154.675 41.909 154.854 41.3508 154.99 40.5745C155.081 40.0872 155.154 39.5658 155.211 39.0105C155.268 38.4552 155.316 37.8375 155.355 37.1575C155.401 36.4718 155.443 35.6927 155.483 34.82H161.807V42.7505H162.699V46.04H161.254V44H154.794V46.04H153.349ZM155.678 42.7505H160.294V36.0695H156.851C156.834 36.4718 156.812 36.894 156.783 37.336C156.755 37.7723 156.721 38.2087 156.681 38.645C156.647 39.0813 156.605 39.495 156.554 39.886C156.509 40.2713 156.455 40.617 156.392 40.923C156.319 41.348 156.234 41.7078 156.137 42.0025C156.041 42.2972 155.888 42.5465 155.678 42.7505ZM171.919 34.82V44H170.457V37.234L165.646 44H164.397V34.82H165.859V41.4925L170.678 34.82H171.919ZM176.731 44V36.197H173.535V34.82H181.44V36.197H178.244V44H176.731ZM187.027 44.255C186.126 44.255 185.338 44.0567 184.664 43.66C183.995 43.2577 183.474 42.6995 183.1 41.9855C182.726 41.2658 182.539 40.4272 182.539 39.4695C182.539 38.4665 182.723 37.5995 183.091 36.8685C183.46 36.1318 183.973 35.5652 184.63 35.1685C185.293 34.7662 186.069 34.565 186.959 34.565C187.883 34.565 188.667 34.7775 189.313 35.2025C189.965 35.6275 190.452 36.2338 190.775 37.0215C191.104 37.8092 191.246 38.747 191.2 39.835H189.67V39.291C189.653 38.1633 189.424 37.3218 188.982 36.7665C188.54 36.2055 187.883 35.925 187.01 35.925C186.075 35.925 185.364 36.2253 184.876 36.826C184.389 37.4267 184.145 38.288 184.145 39.41C184.145 40.4923 184.389 41.331 184.876 41.926C185.364 42.521 186.058 42.8185 186.959 42.8185C187.565 42.8185 188.092 42.6797 188.54 42.402C188.988 42.1243 189.339 41.7248 189.594 41.2035L191.047 41.705C190.69 42.5153 190.152 43.1443 189.432 43.592C188.718 44.034 187.917 44.255 187.027 44.255ZM183.635 39.835V38.6195H190.418V39.835H183.635ZM192.243 44V42.6995C192.583 42.7618 192.841 42.7505 193.016 42.6655C193.198 42.5748 193.331 42.419 193.416 42.198C193.506 41.9713 193.58 41.688 193.637 41.348C193.733 40.8097 193.815 40.209 193.883 39.546C193.957 38.883 194.022 38.1577 194.079 37.37C194.141 36.5767 194.198 35.7267 194.249 34.82H200.666V44H199.153V36.2565H195.626C195.592 36.7778 195.549 37.3133 195.498 37.863C195.453 38.4127 195.405 38.9482 195.354 39.4695C195.303 39.9852 195.246 40.4668 195.184 40.9145C195.127 41.3565 195.065 41.739 194.997 42.062C194.889 42.6173 194.739 43.0622 194.546 43.3965C194.354 43.7252 194.076 43.9377 193.713 44.034C193.351 44.136 192.86 44.1247 192.243 44ZM208.723 44V40.6765H206.743C206.51 40.6765 206.253 40.668 205.969 40.651C205.692 40.6283 205.431 40.5972 205.187 40.5575C204.524 40.4328 203.963 40.141 203.504 39.682C203.051 39.223 202.824 38.5883 202.824 37.778C202.824 36.9903 203.037 36.3585 203.462 35.8825C203.892 35.4008 204.422 35.0892 205.051 34.9475C205.335 34.8795 205.621 34.8427 205.91 34.837C206.204 34.8257 206.454 34.82 206.658 34.82H210.236L210.245 44H208.723ZM202.544 44L204.983 40.26H206.615L204.176 44H202.544ZM206.632 39.427H208.723V36.0695H206.632C206.502 36.0695 206.329 36.0752 206.114 36.0865C205.904 36.0978 205.703 36.1318 205.51 36.1885C205.329 36.2395 205.15 36.333 204.975 36.469C204.805 36.605 204.663 36.7807 204.55 36.996C204.436 37.2113 204.38 37.4663 204.38 37.761C204.38 38.186 204.499 38.5317 204.737 38.798C204.975 39.0587 205.264 39.2343 205.604 39.325C205.791 39.3703 205.975 39.3987 206.156 39.41C206.343 39.4213 206.502 39.427 206.632 39.427ZM212.624 44V34.82H213.925L217.41 41.943L220.895 34.82H222.195V44H220.733V37.9735L217.809 44H217.01L214.086 37.9735V44H212.624ZM232.083 34.82V44H230.621V37.234L225.81 44H224.561V34.82H226.023V41.4925L230.842 34.82H232.083Z" fill="#130531"></path></svg> 