<?xml version="1.0" encoding="UTF-8"?> <svg xmlns="http://www.w3.org/2000/svg" width="391" height="65" viewBox="0 0 391 65" fill="none"><path d="M0 20C0 8.95431 8.95431 0 20 0H371C382.046 0 391 8.95431 391 20V20C391 31.0457 382.046 40 371 40H265.5C258.596 40 253 45.5964 253 52.5V52.5C253 59.4036 247.404 65 240.5 65H20C8.9543 65 0 56.0457 0 45V25V20Z" fill="white"></path><path d="M14.4 26V11.6H20.01C20.87 11.6 21.6033 11.7767 22.21 12.13C22.8233 12.4833 23.29 12.95 23.61 13.53C23.9367 14.1033 24.1 14.7233 24.1 15.39C24.1 16.17 23.9 16.8533 23.5 17.44C23.1 18.0267 22.56 18.43 21.88 18.65L21.86 18.16C22.7867 18.4067 23.5067 18.86 24.02 19.52C24.5333 20.18 24.79 20.9667 24.79 21.88C24.79 22.72 24.6167 23.4467 24.27 24.06C23.93 24.6733 23.4367 25.15 22.79 25.49C22.15 25.83 21.39 26 20.51 26H14.4ZM16.2 24.3H20.17C20.7033 24.3 21.18 24.2033 21.6 24.01C22.02 23.81 22.35 23.53 22.59 23.17C22.8367 22.81 22.96 22.3767 22.96 21.87C22.96 21.3833 22.85 20.9467 22.63 20.56C22.4167 20.1733 22.1133 19.8667 21.72 19.64C21.3333 19.4067 20.8833 19.29 20.37 19.29H16.2V24.3ZM16.2 17.61H19.99C20.4167 17.61 20.8 17.52 21.14 17.34C21.4867 17.1533 21.76 16.8933 21.96 16.56C22.1667 16.2267 22.27 15.8367 22.27 15.39C22.27 14.77 22.06 14.2633 21.64 13.87C21.22 13.4767 20.67 13.28 19.99 13.28H16.2V17.61ZM31.4628 26.3C30.4028 26.3 29.4761 26.0667 28.6828 25.6C27.8961 25.1267 27.2828 24.47 26.8428 23.63C26.4028 22.7833 26.1828 21.7967 26.1828 20.67C26.1828 19.49 26.3995 18.47 26.8328 17.61C27.2661 16.7433 27.8695 16.0767 28.6428 15.61C29.4228 15.1367 30.3361 14.9 31.3828 14.9C32.4695 14.9 33.3928 15.15 34.1528 15.65C34.9195 16.15 35.4928 16.8633 35.8728 17.79C36.2595 18.7167 36.4261 19.82 36.3728 21.1H34.5728V20.46C34.5528 19.1333 34.2828 18.1433 33.7628 17.49C33.2428 16.83 32.4695 16.5 31.4428 16.5C30.3428 16.5 29.5061 16.8533 28.9328 17.56C28.3595 18.2667 28.0728 19.28 28.0728 20.6C28.0728 21.8733 28.3595 22.86 28.9328 23.56C29.5061 24.26 30.3228 24.61 31.3828 24.61C32.0961 24.61 32.7161 24.4467 33.2428 24.12C33.7695 23.7933 34.1828 23.3233 34.4828 22.71L36.1928 23.3C35.7728 24.2533 35.1395 24.9933 34.2928 25.52C33.4528 26.04 32.5095 26.3 31.4628 26.3ZM27.4728 21.1V19.67H35.4528V21.1H27.4728ZM37.7992 28.4V24.53C38.4059 24.53 38.8392 24.3333 39.0992 23.94C39.3592 23.54 39.5692 22.8833 39.7292 21.97C39.8359 21.3967 39.9226 20.7833 39.9892 20.13C40.0559 19.4767 40.1126 18.75 40.1592 17.95C40.2126 17.1433 40.2626 16.2267 40.3092 15.2H47.7492V24.53H48.7992V28.4H47.0992V26H39.4992V28.4H37.7992ZM40.5392 24.53H45.9692V16.67H41.9192C41.8992 17.1433 41.8726 17.64 41.8392 18.16C41.8059 18.6733 41.7659 19.1867 41.7192 19.7C41.6792 20.2133 41.6292 20.7 41.5692 21.16C41.5159 21.6133 41.4526 22.02 41.3792 22.38C41.2926 22.88 41.1926 23.3033 41.0792 23.65C40.9659 23.9967 40.7859 24.29 40.5392 24.53ZM52.3063 30.8L54.3963 25.12L54.4263 26.8L49.7063 15.2H51.5763L55.2763 24.53H54.6363L58.1063 15.2H59.9162L54.0363 30.8H52.3063ZM65.5619 26L65.5719 15.2H67.3719V20.4L71.9019 15.2H74.2119L69.4419 20.6L74.7719 26H72.2819L67.3719 20.8V26H65.5619ZM78.8372 26.3C78.0305 26.3 77.3539 26.1533 76.8072 25.86C76.2672 25.56 75.8572 25.1667 75.5772 24.68C75.3039 24.1933 75.1672 23.66 75.1672 23.08C75.1672 22.5133 75.2739 22.0233 75.4872 21.61C75.7072 21.19 76.0139 20.8433 76.4072 20.57C76.8005 20.29 77.2705 20.07 77.8172 19.91C78.3305 19.77 78.9039 19.65 79.5372 19.55C80.1772 19.4433 80.8239 19.3467 81.4772 19.26C82.1305 19.1733 82.7405 19.09 83.3072 19.01L82.6672 19.38C82.6872 18.42 82.4939 17.71 82.0872 17.25C81.6872 16.79 80.9939 16.56 80.0072 16.56C79.3539 16.56 78.7805 16.71 78.2872 17.01C77.8005 17.3033 77.4572 17.7833 77.2572 18.45L75.5672 17.94C75.8272 16.9933 76.3305 16.25 77.0772 15.71C77.8239 15.17 78.8072 14.9 80.0272 14.9C81.0072 14.9 81.8472 15.0767 82.5472 15.43C83.2539 15.7767 83.7605 16.3033 84.0672 17.01C84.2205 17.3433 84.3172 17.7067 84.3572 18.1C84.3972 18.4867 84.4172 18.8933 84.4172 19.32V26H82.8372V23.41L83.2072 23.65C82.8005 24.5233 82.2305 25.1833 81.4972 25.63C80.7705 26.0767 79.8839 26.3 78.8372 26.3ZM79.1072 24.81C79.7472 24.81 80.3005 24.6967 80.7672 24.47C81.2405 24.2367 81.6205 23.9333 81.9072 23.56C82.1939 23.18 82.3805 22.7667 82.4672 22.32C82.5672 21.9867 82.6205 21.6167 82.6272 21.21C82.6405 20.7967 82.6472 20.48 82.6472 20.26L83.2672 20.53C82.6872 20.61 82.1172 20.6867 81.5572 20.76C80.9972 20.8333 80.4672 20.9133 79.9672 21C79.4672 21.08 79.0172 21.1767 78.6172 21.29C78.3239 21.3833 78.0472 21.5033 77.7872 21.65C77.5339 21.7967 77.3272 21.9867 77.1672 22.22C77.0139 22.4467 76.9372 22.73 76.9372 23.07C76.9372 23.3633 77.0105 23.6433 77.1572 23.91C77.3105 24.1767 77.5439 24.3933 77.8572 24.56C78.1772 24.7267 78.5939 24.81 79.1072 24.81ZM87.0072 26V15.2H88.7872V19.75H94.4672V15.2H96.2472V26H94.4672V21.44H88.7872V26H87.0072ZM102.118 26.3C101.312 26.3 100.635 26.1533 100.088 25.86C99.5484 25.56 99.1384 25.1667 98.8584 24.68C98.5851 24.1933 98.4484 23.66 98.4484 23.08C98.4484 22.5133 98.5551 22.0233 98.7684 21.61C98.9884 21.19 99.2951 20.8433 99.6884 20.57C100.082 20.29 100.552 20.07 101.098 19.91C101.612 19.77 102.185 19.65 102.818 19.55C103.458 19.4433 104.105 19.3467 104.758 19.26C105.412 19.1733 106.022 19.09 106.588 19.01L105.948 19.38C105.968 18.42 105.775 17.71 105.368 17.25C104.968 16.79 104.275 16.56 103.288 16.56C102.635 16.56 102.062 16.71 101.568 17.01C101.082 17.3033 100.738 17.7833 100.538 18.45L98.8484 17.94C99.1084 16.9933 99.6118 16.25 100.358 15.71C101.105 15.17 102.088 14.9 103.308 14.9C104.288 14.9 105.128 15.0767 105.828 15.43C106.535 15.7767 107.042 16.3033 107.348 17.01C107.502 17.3433 107.598 17.7067 107.638 18.1C107.678 18.4867 107.698 18.8933 107.698 19.32V26H106.118V23.41L106.488 23.65C106.082 24.5233 105.512 25.1833 104.778 25.63C104.052 26.0767 103.165 26.3 102.118 26.3ZM102.388 24.81C103.028 24.81 103.582 24.6967 104.048 24.47C104.522 24.2367 104.902 23.9333 105.188 23.56C105.475 23.18 105.662 22.7667 105.748 22.32C105.848 21.9867 105.902 21.6167 105.908 21.21C105.922 20.7967 105.928 20.48 105.928 20.26L106.548 20.53C105.968 20.61 105.398 20.6867 104.838 20.76C104.278 20.8333 103.748 20.9133 103.248 21C102.748 21.08 102.298 21.1767 101.898 21.29C101.605 21.3833 101.328 21.5033 101.068 21.65C100.815 21.7967 100.608 21.9867 100.448 22.22C100.295 22.4467 100.218 22.73 100.218 23.07C100.218 23.3633 100.292 23.6433 100.438 23.91C100.592 24.1767 100.825 24.3933 101.138 24.56C101.458 24.7267 101.875 24.81 102.388 24.81ZM109.298 26V24.47C109.698 24.5433 110.002 24.53 110.208 24.43C110.422 24.3233 110.578 24.14 110.678 23.88C110.785 23.6133 110.872 23.28 110.938 22.88C111.052 22.2467 111.148 21.54 111.228 20.76C111.315 19.98 111.392 19.1267 111.458 18.2C111.532 17.2667 111.598 16.2667 111.658 15.2H119.208V26H117.428V16.89H113.278C113.238 17.5033 113.188 18.1333 113.128 18.78C113.075 19.4267 113.018 20.0567 112.958 20.67C112.898 21.2767 112.832 21.8433 112.758 22.37C112.692 22.89 112.618 23.34 112.538 23.72C112.412 24.3733 112.235 24.8967 112.008 25.29C111.782 25.6767 111.455 25.9267 111.028 26.04C110.602 26.16 110.025 26.1467 109.298 26ZM126.011 26V15.2H130.611C130.884 15.2 131.178 15.2167 131.491 15.25C131.811 15.2767 132.101 15.3267 132.361 15.4C132.941 15.5533 133.418 15.87 133.791 16.35C134.171 16.8233 134.361 17.4233 134.361 18.15C134.361 18.5567 134.298 18.91 134.171 19.21C134.051 19.51 133.878 19.77 133.651 19.99C133.551 20.09 133.441 20.18 133.321 20.26C133.201 20.34 133.081 20.4033 132.961 20.45C133.194 20.49 133.431 20.58 133.671 20.72C134.051 20.9267 134.348 21.2167 134.561 21.59C134.781 21.9633 134.891 22.44 134.891 23.02C134.891 23.7533 134.714 24.36 134.361 24.84C134.008 25.3133 133.521 25.64 132.901 25.82C132.641 25.8933 132.354 25.9433 132.041 25.97C131.728 25.99 131.424 26 131.131 26H126.011ZM127.811 24.55H131.031C131.171 24.55 131.338 24.5367 131.531 24.51C131.731 24.4833 131.908 24.45 132.061 24.41C132.408 24.31 132.658 24.1233 132.811 23.85C132.971 23.5767 133.051 23.28 133.051 22.96C133.051 22.5333 132.931 22.1867 132.691 21.92C132.458 21.6533 132.148 21.4867 131.761 21.42C131.621 21.38 131.468 21.3567 131.301 21.35C131.141 21.3433 130.998 21.34 130.871 21.34H127.811V24.55ZM127.811 19.87H130.491C130.678 19.87 130.874 19.86 131.081 19.84C131.288 19.8133 131.468 19.77 131.621 19.71C131.928 19.5967 132.151 19.41 132.291 19.15C132.438 18.8833 132.511 18.5933 132.511 18.28C132.511 17.9333 132.431 17.63 132.271 17.37C132.118 17.1033 131.881 16.92 131.561 16.82C131.348 16.74 131.108 16.6967 130.841 16.69C130.581 16.6767 130.414 16.67 130.341 16.67H127.811V19.87ZM144.614 26V13.29H139.704V11.6H151.304V13.29H146.394V26H144.614ZM152.896 26V11.6H161.996V13.29H154.676V26H152.896ZM169.598 25.99L170.718 21.8H166.798L167.248 20.1H171.178L171.948 17.18H168.028L168.488 15.49H172.408L173.448 11.6H175.208L174.158 15.49H177.208L178.248 11.6H180.008L178.958 15.49H182.878L182.428 17.18H178.508L177.718 20.1H181.638L181.188 21.8H177.268L176.148 25.99H174.398L175.508 21.8H172.468L171.348 25.99H169.598ZM172.928 20.1H175.968L176.748 17.18H173.708L172.928 20.1ZM194.014 26V19.36L194.414 19.99C193.981 20.3167 193.428 20.58 192.754 20.78C192.088 20.9733 191.348 21.07 190.534 21.07C189.301 21.07 188.314 20.8367 187.574 20.37C186.834 19.9033 186.298 19.2633 185.964 18.45C185.638 17.63 185.474 16.69 185.474 15.63V11.6H187.274V15.04C187.274 15.6467 187.324 16.2133 187.424 16.74C187.531 17.26 187.714 17.7167 187.974 18.11C188.234 18.5033 188.594 18.81 189.054 19.03C189.514 19.2433 190.098 19.35 190.804 19.35C191.658 19.35 192.388 19.2167 192.994 18.95C193.608 18.6833 194.051 18.3967 194.324 18.09L194.014 19.28V11.6H195.804V26H194.014ZM204.259 13.24V11.44H206.059V13.24H204.259ZM200.339 13.24V11.44H202.139V13.24H200.339ZM203.279 26.3C202.219 26.3 201.293 26.0667 200.499 25.6C199.713 25.1267 199.099 24.47 198.659 23.63C198.219 22.7833 197.999 21.7967 197.999 20.67C197.999 19.49 198.216 18.47 198.649 17.61C199.083 16.7433 199.686 16.0767 200.459 15.61C201.239 15.1367 202.153 14.9 203.199 14.9C204.286 14.9 205.209 15.15 205.969 15.65C206.736 16.15 207.309 16.8633 207.689 17.79C208.076 18.7167 208.243 19.82 208.189 21.1H206.389V20.46C206.369 19.1333 206.099 18.1433 205.579 17.49C205.059 16.83 204.286 16.5 203.259 16.5C202.159 16.5 201.323 16.8533 200.749 17.56C200.176 18.2667 199.889 19.28 199.889 20.6C199.889 21.8733 200.176 22.86 200.749 23.56C201.323 24.26 202.139 24.61 203.199 24.61C203.913 24.61 204.533 24.4467 205.059 24.12C205.586 23.7933 205.999 23.3233 206.299 22.71L208.009 23.3C207.589 24.2533 206.956 24.9933 206.109 25.52C205.269 26.04 204.326 26.3 203.279 26.3ZM199.289 21.1V19.67H207.269V21.1H199.289ZM215.376 26.3C214.362 26.3 213.509 26.05 212.816 25.55C212.122 25.0433 211.596 24.36 211.236 23.5C210.882 22.6333 210.706 21.6633 210.706 20.59C210.706 19.5033 210.882 18.53 211.236 17.67C211.596 16.81 212.122 16.1333 212.816 15.64C213.516 15.1467 214.372 14.9 215.386 14.9C216.386 14.9 217.246 15.15 217.966 15.65C218.692 16.1433 219.249 16.82 219.636 17.68C220.022 18.54 220.216 19.51 220.216 20.59C220.216 21.67 220.022 22.64 219.636 23.5C219.249 24.36 218.692 25.0433 217.966 25.55C217.246 26.05 216.382 26.3 215.376 26.3ZM210.406 30.8V15.2H211.996V23.15H212.196V30.8H210.406ZM215.156 24.67C215.869 24.67 216.459 24.49 216.926 24.13C217.392 23.77 217.742 23.2833 217.976 22.67C218.209 22.05 218.326 21.3567 218.326 20.59C218.326 19.83 218.209 19.1433 217.976 18.53C217.749 17.9167 217.396 17.43 216.916 17.07C216.442 16.71 215.839 16.53 215.106 16.53C214.406 16.53 213.826 16.7033 213.366 17.05C212.906 17.39 212.562 17.8667 212.336 18.48C212.109 19.0867 211.996 19.79 211.996 20.59C211.996 21.3767 212.106 22.08 212.326 22.7C212.552 23.3133 212.899 23.7967 213.366 24.15C213.832 24.4967 214.429 24.67 215.156 24.67ZM225.268 26V16.82H221.508V15.2H230.808V16.82H227.048V26H225.268ZM237.105 26.3C236.032 26.3 235.105 26.0567 234.325 25.57C233.552 25.0833 232.955 24.41 232.535 23.55C232.115 22.69 231.905 21.7033 231.905 20.59C231.905 19.4567 232.119 18.4633 232.545 17.61C232.972 16.7567 233.575 16.0933 234.355 15.62C235.135 15.14 236.052 14.9 237.105 14.9C238.185 14.9 239.115 15.1433 239.895 15.63C240.675 16.11 241.272 16.78 241.685 17.64C242.105 18.4933 242.315 19.4767 242.315 20.59C242.315 21.7167 242.105 22.71 241.685 23.57C241.265 24.4233 240.665 25.0933 239.885 25.58C239.105 26.06 238.179 26.3 237.105 26.3ZM237.105 24.61C238.225 24.61 239.059 24.2367 239.605 23.49C240.152 22.7433 240.425 21.7767 240.425 20.59C240.425 19.37 240.149 18.4 239.595 17.68C239.042 16.9533 238.212 16.59 237.105 16.59C236.352 16.59 235.732 16.76 235.245 17.1C234.759 17.44 234.395 17.91 234.155 18.51C233.915 19.11 233.795 19.8033 233.795 20.59C233.795 21.8033 234.075 22.7767 234.635 23.51C235.195 24.2433 236.019 24.61 237.105 24.61ZM244.507 26V15.2H249.107C249.381 15.2 249.674 15.2167 249.987 15.25C250.307 15.2767 250.597 15.3267 250.857 15.4C251.437 15.5533 251.914 15.87 252.287 16.35C252.667 16.8233 252.857 17.4233 252.857 18.15C252.857 18.5567 252.794 18.91 252.667 19.21C252.547 19.51 252.374 19.77 252.147 19.99C252.047 20.09 251.937 20.18 251.817 20.26C251.697 20.34 251.577 20.4033 251.457 20.45C251.691 20.49 251.927 20.58 252.167 20.72C252.547 20.9267 252.844 21.2167 253.057 21.59C253.277 21.9633 253.387 22.44 253.387 23.02C253.387 23.7533 253.211 24.36 252.857 24.84C252.504 25.3133 252.017 25.64 251.397 25.82C251.137 25.8933 250.851 25.9433 250.537 25.97C250.224 25.99 249.921 26 249.627 26H244.507ZM246.307 24.55H249.527C249.667 24.55 249.834 24.5367 250.027 24.51C250.227 24.4833 250.404 24.45 250.557 24.41C250.904 24.31 251.154 24.1233 251.307 23.85C251.467 23.5767 251.547 23.28 251.547 22.96C251.547 22.5333 251.427 22.1867 251.187 21.92C250.954 21.6533 250.644 21.4867 250.257 21.42C250.117 21.38 249.964 21.3567 249.797 21.35C249.637 21.3433 249.494 21.34 249.367 21.34H246.307V24.55ZM246.307 19.87H248.987C249.174 19.87 249.371 19.86 249.577 19.84C249.784 19.8133 249.964 19.77 250.117 19.71C250.424 19.5967 250.647 19.41 250.787 19.15C250.934 18.8833 251.007 18.5933 251.007 18.28C251.007 17.9333 250.927 17.63 250.767 17.37C250.614 17.1033 250.377 16.92 250.057 16.82C249.844 16.74 249.604 16.6967 249.337 16.69C249.077 16.6767 248.911 16.67 248.837 16.67H246.307V19.87ZM255.396 26L255.386 15.2H257.176V19.11H258.826C259.139 19.11 259.459 19.1167 259.786 19.13C260.113 19.1433 260.396 19.1733 260.636 19.22C261.196 19.3333 261.686 19.5233 262.106 19.79C262.526 20.0567 262.853 20.4167 263.086 20.87C263.319 21.3233 263.436 21.8867 263.436 22.56C263.436 23.4933 263.193 24.2333 262.706 24.78C262.226 25.32 261.596 25.68 260.816 25.86C260.549 25.92 260.243 25.96 259.896 25.98C259.556 25.9933 259.233 26 258.926 26H255.396ZM257.176 24.53H258.956C259.156 24.53 259.379 24.5233 259.626 24.51C259.873 24.4967 260.093 24.4633 260.286 24.41C260.626 24.31 260.929 24.1133 261.196 23.82C261.469 23.5267 261.606 23.1067 261.606 22.56C261.606 22.0067 261.473 21.58 261.206 21.28C260.946 20.98 260.603 20.7833 260.176 20.69C259.983 20.6433 259.779 20.6133 259.566 20.6C259.353 20.5867 259.149 20.58 258.956 20.58H257.176V24.53ZM264.676 26V15.2H266.456V26H264.676ZM269.263 26V11.6H280.503V26H278.723V13.29H271.043V26H269.263ZM287.906 26.3C286.833 26.3 285.906 26.0567 285.126 25.57C284.353 25.0833 283.756 24.41 283.336 23.55C282.916 22.69 282.706 21.7033 282.706 20.59C282.706 19.4567 282.92 18.4633 283.346 17.61C283.773 16.7567 284.376 16.0933 285.156 15.62C285.936 15.14 286.853 14.9 287.906 14.9C288.986 14.9 289.916 15.1433 290.696 15.63C291.476 16.11 292.073 16.78 292.486 17.64C292.906 18.4933 293.116 19.4767 293.116 20.59C293.116 21.7167 292.906 22.71 292.486 23.57C292.066 24.4233 291.466 25.0933 290.686 25.58C289.906 26.06 288.98 26.3 287.906 26.3ZM287.906 24.61C289.026 24.61 289.86 24.2367 290.406 23.49C290.953 22.7433 291.226 21.7767 291.226 20.59C291.226 19.37 290.95 18.4 290.396 17.68C289.843 16.9533 289.013 16.59 287.906 16.59C287.153 16.59 286.533 16.76 286.046 17.1C285.56 17.44 285.196 17.91 284.956 18.51C284.716 19.11 284.596 19.8033 284.596 20.59C284.596 21.8033 284.876 22.7767 285.436 23.51C285.996 24.2433 286.82 24.61 287.906 24.61ZM294.518 28.4V24.53C295.125 24.53 295.558 24.3333 295.818 23.94C296.078 23.54 296.288 22.8833 296.448 21.97C296.555 21.3967 296.641 20.7833 296.708 20.13C296.775 19.4767 296.831 18.75 296.878 17.95C296.931 17.1433 296.981 16.2267 297.028 15.2H304.468V24.53H305.518V28.4H303.818V26H296.218V28.4H294.518ZM297.258 24.53H302.688V16.67H298.638C298.618 17.1433 298.591 17.64 298.558 18.16C298.525 18.6733 298.485 19.1867 298.438 19.7C298.398 20.2133 298.348 20.7 298.288 21.16C298.235 21.6133 298.171 22.02 298.098 22.38C298.011 22.88 297.911 23.3033 297.798 23.65C297.685 23.9967 297.505 24.29 297.258 24.53ZM312.485 26.3C311.472 26.3 310.618 26.05 309.925 25.55C309.232 25.0433 308.705 24.36 308.345 23.5C307.992 22.6333 307.815 21.6633 307.815 20.59C307.815 19.5033 307.992 18.53 308.345 17.67C308.705 16.81 309.232 16.1333 309.925 15.64C310.625 15.1467 311.482 14.9 312.495 14.9C313.495 14.9 314.355 15.15 315.075 15.65C315.802 16.1433 316.358 16.82 316.745 17.68C317.132 18.54 317.325 19.51 317.325 20.59C317.325 21.67 317.132 22.64 316.745 23.5C316.358 24.36 315.802 25.0433 315.075 25.55C314.355 26.05 313.492 26.3 312.485 26.3ZM307.515 30.8V15.2H309.105V23.15H309.305V30.8H307.515ZM312.265 24.67C312.978 24.67 313.568 24.49 314.035 24.13C314.502 23.77 314.852 23.2833 315.085 22.67C315.318 22.05 315.435 21.3567 315.435 20.59C315.435 19.83 315.318 19.1433 315.085 18.53C314.858 17.9167 314.505 17.43 314.025 17.07C313.552 16.71 312.948 16.53 312.215 16.53C311.515 16.53 310.935 16.7033 310.475 17.05C310.015 17.39 309.672 17.8667 309.445 18.48C309.218 19.0867 309.105 19.79 309.105 20.59C309.105 21.3767 309.215 22.08 309.435 22.7C309.662 23.3133 310.008 23.7967 310.475 24.15C310.942 24.4967 311.538 24.67 312.265 24.67ZM324.117 26.3C323.044 26.3 322.117 26.0567 321.337 25.57C320.564 25.0833 319.967 24.41 319.547 23.55C319.127 22.69 318.917 21.7033 318.917 20.59C318.917 19.4567 319.131 18.4633 319.557 17.61C319.984 16.7567 320.587 16.0933 321.367 15.62C322.147 15.14 323.064 14.9 324.117 14.9C325.197 14.9 326.127 15.1433 326.907 15.63C327.687 16.11 328.284 16.78 328.697 17.64C329.117 18.4933 329.327 19.4767 329.327 20.59C329.327 21.7167 329.117 22.71 328.697 23.57C328.277 24.4233 327.677 25.0933 326.897 25.58C326.117 26.06 325.191 26.3 324.117 26.3ZM324.117 24.61C325.237 24.61 326.071 24.2367 326.617 23.49C327.164 22.7433 327.437 21.7767 327.437 20.59C327.437 19.37 327.161 18.4 326.607 17.68C326.054 16.9533 325.224 16.59 324.117 16.59C323.364 16.59 322.744 16.76 322.257 17.1C321.771 17.44 321.407 17.91 321.167 18.51C320.927 19.11 320.807 19.8033 320.807 20.59C320.807 21.8033 321.087 22.7767 321.647 23.51C322.207 24.2433 323.031 24.61 324.117 24.61ZM336.079 26.3C334.986 26.3 334.056 26.0567 333.289 25.57C332.529 25.0767 331.949 24.4 331.549 23.54C331.149 22.68 330.942 21.7 330.929 20.6C330.942 19.4733 331.152 18.4833 331.559 17.63C331.972 16.77 332.562 16.1 333.329 15.62C334.096 15.14 335.019 14.9 336.099 14.9C337.239 14.9 338.219 15.18 339.039 15.74C339.866 16.3 340.419 17.0667 340.699 18.04L338.939 18.57C338.712 17.9433 338.342 17.4567 337.829 17.11C337.322 16.7633 336.739 16.59 336.079 16.59C335.339 16.59 334.729 16.7633 334.249 17.11C333.769 17.45 333.412 17.9233 333.179 18.53C332.946 19.13 332.826 19.82 332.819 20.6C332.832 21.8 333.109 22.77 333.649 23.51C334.196 24.2433 335.006 24.61 336.079 24.61C336.786 24.61 337.372 24.45 337.839 24.13C338.306 23.8033 338.659 23.3333 338.899 22.72L340.699 23.19C340.326 24.1967 339.742 24.9667 338.949 25.5C338.156 26.0333 337.199 26.3 336.079 26.3ZM345.405 26V16.82H341.645V15.2H350.945V16.82H347.185V26H345.405ZM352.828 26L352.838 15.2H354.638V20.4L359.168 15.2H361.478L356.708 20.6L362.038 26H359.548L354.638 20.8V26H352.828ZM371.873 15.2V26H370.153V18.04L364.493 26H363.023V15.2H364.743V23.05L370.413 15.2H371.873ZM19.53 56.06C18.75 55.16 18.08 54.15 17.52 53.03C16.96 51.91 16.53 50.7333 16.23 49.5C15.93 48.2667 15.7867 47.0333 15.8 45.8C15.7867 44.56 15.93 43.3233 16.23 42.09C16.53 40.8567 16.96 39.6833 17.52 38.57C18.08 37.45 18.75 36.44 19.53 35.54L20.85 36.54C20.0633 37.4733 19.4167 38.4433 18.91 39.45C18.41 40.4567 18.04 41.4933 17.8 42.56C17.56 43.62 17.4367 44.7 17.43 45.8C17.4367 46.8867 17.56 47.9667 17.8 49.04C18.0467 50.1067 18.42 51.1467 18.92 52.16C19.4267 53.1667 20.07 54.13 20.85 55.05L19.53 56.06ZM22.6914 52.99L22.7014 51.39L29.0914 45.64C29.6247 45.16 29.9814 44.7067 30.1614 44.28C30.3481 43.8467 30.4414 43.4033 30.4414 42.95C30.4414 42.3967 30.3147 41.8967 30.0614 41.45C29.8081 41.0033 29.4614 40.65 29.0214 40.39C28.5881 40.13 28.0947 40 27.5414 40C26.9681 40 26.4581 40.1367 26.0114 40.41C25.5647 40.6767 25.2114 41.0333 24.9514 41.48C24.6981 41.9267 24.5747 42.4133 24.5814 42.94H22.7614C22.7614 42.0333 22.9714 41.2333 23.3914 40.54C23.8114 39.84 24.3814 39.2933 25.1014 38.9C25.8281 38.5 26.6514 38.3 27.5714 38.3C28.4647 38.3 29.2647 38.5067 29.9714 38.92C30.6781 39.3267 31.2347 39.8833 31.6414 40.59C32.0547 41.29 32.2614 42.0833 32.2614 42.97C32.2614 43.5967 32.1814 44.14 32.0214 44.6C31.8681 45.06 31.6281 45.4867 31.3014 45.88C30.9747 46.2667 30.5647 46.68 30.0714 47.12L24.7614 51.89L24.5314 51.29H32.2614V52.99H22.6914ZM38.9139 53.3C38.1739 53.3 37.4839 53.1467 36.8439 52.84C36.2106 52.5333 35.6672 52.1133 35.2139 51.58C34.7672 51.04 34.4472 50.42 34.2539 49.72L35.9639 49.26C36.0839 49.7333 36.2972 50.1433 36.6039 50.49C36.9106 50.83 37.2672 51.0967 37.6739 51.29C38.0872 51.4767 38.5172 51.57 38.9639 51.57C39.5506 51.57 40.0772 51.43 40.5439 51.15C41.0172 50.8633 41.3906 50.4867 41.6639 50.02C41.9372 49.5467 42.0739 49.03 42.0739 48.47C42.0739 47.89 41.9306 47.3667 41.6439 46.9C41.3639 46.4267 40.9872 46.0533 40.5139 45.78C40.0406 45.5067 39.5239 45.37 38.9639 45.37C38.3306 45.37 37.7872 45.5033 37.3339 45.77C36.8872 46.03 36.5339 46.35 36.2739 46.73L34.6939 46.13L35.1339 38.6H42.8639V40.29H35.9939L36.7839 39.55L36.4139 45.58L36.0239 45.07C36.4239 44.6433 36.9006 44.3133 37.4539 44.08C38.0139 43.8467 38.5839 43.73 39.1639 43.73C40.0572 43.73 40.8572 43.94 41.5639 44.36C42.2706 44.7733 42.8306 45.34 43.2439 46.06C43.6572 46.7733 43.8639 47.5767 43.8639 48.47C43.8639 49.3567 43.6372 50.1667 43.1839 50.9C42.7306 51.6267 42.1272 52.21 41.3739 52.65C40.6272 53.0833 39.8072 53.3 38.9139 53.3ZM55.1194 53.3C54.186 53.3 53.3527 53.09 52.6194 52.67C51.8927 52.2433 51.316 51.6667 50.8894 50.94C50.4694 50.2067 50.2594 49.3733 50.2594 48.44V43.16C50.2594 42.2267 50.4694 41.3933 50.8894 40.66C51.316 39.9267 51.8927 39.35 52.6194 38.93C53.3527 38.51 54.186 38.3 55.1194 38.3C56.0527 38.3 56.886 38.51 57.6194 38.93C58.3527 39.35 58.9294 39.9267 59.3494 40.66C59.7694 41.3933 59.9794 42.2267 59.9794 43.16V48.44C59.9794 49.3733 59.7694 50.2067 59.3494 50.94C58.9294 51.6667 58.3527 52.2433 57.6194 52.67C56.886 53.09 56.0527 53.3 55.1194 53.3ZM55.1194 51.59C55.686 51.59 56.1994 51.4533 56.6594 51.18C57.1194 50.9067 57.486 50.54 57.7594 50.08C58.0327 49.6133 58.1694 49.1 58.1694 48.54V43.05C58.1694 42.4833 58.0327 41.97 57.7594 41.51C57.486 41.05 57.1194 40.6833 56.6594 40.41C56.1994 40.1367 55.686 40 55.1194 40C54.5594 40 54.046 40.1367 53.5794 40.41C53.1194 40.6833 52.7527 41.05 52.4794 41.51C52.206 41.97 52.0694 42.4833 52.0694 43.05V48.54C52.0694 49.1 52.206 49.6133 52.4794 50.08C52.7527 50.54 53.1194 50.9067 53.5794 51.18C54.046 51.4533 54.5594 51.59 55.1194 51.59ZM67.6389 53.3C66.7056 53.3 65.8722 53.09 65.1389 52.67C64.4122 52.2433 63.8356 51.6667 63.4089 50.94C62.9889 50.2067 62.7789 49.3733 62.7789 48.44V43.16C62.7789 42.2267 62.9889 41.3933 63.4089 40.66C63.8356 39.9267 64.4122 39.35 65.1389 38.93C65.8722 38.51 66.7056 38.3 67.6389 38.3C68.5722 38.3 69.4056 38.51 70.1389 38.93C70.8722 39.35 71.4489 39.9267 71.8689 40.66C72.2889 41.3933 72.4989 42.2267 72.4989 43.16V48.44C72.4989 49.3733 72.2889 50.2067 71.8689 50.94C71.4489 51.6667 70.8722 52.2433 70.1389 52.67C69.4056 53.09 68.5722 53.3 67.6389 53.3ZM67.6389 51.59C68.2056 51.59 68.7189 51.4533 69.1789 51.18C69.6389 50.9067 70.0056 50.54 70.2789 50.08C70.5522 49.6133 70.6889 49.1 70.6889 48.54V43.05C70.6889 42.4833 70.5522 41.97 70.2789 41.51C70.0056 41.05 69.6389 40.6833 69.1789 40.41C68.7189 40.1367 68.2056 40 67.6389 40C67.0789 40 66.5656 40.1367 66.0989 40.41C65.6389 40.6833 65.2722 41.05 64.9989 41.51C64.7256 41.97 64.5889 42.4833 64.5889 43.05V48.54C64.5889 49.1 64.7256 49.6133 64.9989 50.08C65.2722 50.54 65.6389 50.9067 66.0989 51.18C66.5656 51.4533 67.0789 51.59 67.6389 51.59ZM80.1584 53.3C79.2251 53.3 78.3918 53.09 77.6584 52.67C76.9318 52.2433 76.3551 51.6667 75.9284 50.94C75.5084 50.2067 75.2984 49.3733 75.2984 48.44V43.16C75.2984 42.2267 75.5084 41.3933 75.9284 40.66C76.3551 39.9267 76.9318 39.35 77.6584 38.93C78.3918 38.51 79.2251 38.3 80.1584 38.3C81.0918 38.3 81.9251 38.51 82.6584 38.93C83.3918 39.35 83.9684 39.9267 84.3884 40.66C84.8084 41.3933 85.0184 42.2267 85.0184 43.16V48.44C85.0184 49.3733 84.8084 50.2067 84.3884 50.94C83.9684 51.6667 83.3918 52.2433 82.6584 52.67C81.9251 53.09 81.0918 53.3 80.1584 53.3ZM80.1584 51.59C80.7251 51.59 81.2384 51.4533 81.6984 51.18C82.1584 50.9067 82.5251 50.54 82.7984 50.08C83.0718 49.6133 83.2084 49.1 83.2084 48.54V43.05C83.2084 42.4833 83.0718 41.97 82.7984 41.51C82.5251 41.05 82.1584 40.6833 81.6984 40.41C81.2384 40.1367 80.7251 40 80.1584 40C79.5984 40 79.0851 40.1367 78.6184 40.41C78.1584 40.6833 77.7918 41.05 77.5184 41.51C77.2451 41.97 77.1084 42.4833 77.1084 43.05V48.54C77.1084 49.1 77.2451 49.6133 77.5184 50.08C77.7918 50.54 78.1584 50.9067 78.6184 51.18C79.0851 51.4533 79.5984 51.59 80.1584 51.59ZM91.438 50.35V46.53H87.618V45.06H91.438V41.25H92.908V45.06H96.718V46.53H92.908V50.35H91.438ZM103.316 53V42.2H112.166V53H110.386V43.89H105.096V53H103.316ZM119.566 53.3C118.493 53.3 117.566 53.0567 116.786 52.57C116.013 52.0833 115.416 51.41 114.996 50.55C114.576 49.69 114.366 48.7033 114.366 47.59C114.366 46.4567 114.58 45.4633 115.006 44.61C115.433 43.7567 116.036 43.0933 116.816 42.62C117.596 42.14 118.513 41.9 119.566 41.9C120.646 41.9 121.576 42.1433 122.356 42.63C123.136 43.11 123.733 43.78 124.146 44.64C124.566 45.4933 124.776 46.4767 124.776 47.59C124.776 48.7167 124.566 49.71 124.146 50.57C123.726 51.4233 123.126 52.0933 122.346 52.58C121.566 53.06 120.64 53.3 119.566 53.3ZM119.566 51.61C120.686 51.61 121.52 51.2367 122.066 50.49C122.613 49.7433 122.886 48.7767 122.886 47.59C122.886 46.37 122.61 45.4 122.056 44.68C121.503 43.9533 120.673 43.59 119.566 43.59C118.813 43.59 118.193 43.76 117.706 44.1C117.22 44.44 116.856 44.91 116.616 45.51C116.376 46.11 116.256 46.8033 116.256 47.59C116.256 48.8033 116.536 49.7767 117.096 50.51C117.656 51.2433 118.48 51.61 119.566 51.61ZM126.178 55.4V51.53C126.785 51.53 127.218 51.3333 127.478 50.94C127.738 50.54 127.948 49.8833 128.108 48.97C128.215 48.3967 128.301 47.7833 128.368 47.13C128.435 46.4767 128.491 45.75 128.538 44.95C128.591 44.1433 128.641 43.2267 128.688 42.2H136.128V51.53H137.178V55.4H135.478V53H127.878V55.4H126.178ZM128.918 51.53H134.348V43.67H130.298C130.278 44.1433 130.251 44.64 130.218 45.16C130.185 45.6733 130.145 46.1867 130.098 46.7C130.058 47.2133 130.008 47.7 129.948 48.16C129.895 48.6133 129.831 49.02 129.758 49.38C129.671 49.88 129.571 50.3033 129.458 50.65C129.345 50.9967 129.165 51.29 128.918 51.53ZM139.175 53V42.2H148.025V53H146.245V43.89H140.955V53H139.175ZM159.666 42.2V53H157.946V45.04L152.286 53H150.816V42.2H152.536V50.05L158.206 42.2H159.666ZM167.016 53.3C165.923 53.3 164.993 53.0567 164.226 52.57C163.466 52.0767 162.886 51.4 162.486 50.54C162.086 49.68 161.88 48.7 161.866 47.6C161.88 46.4733 162.09 45.4833 162.496 44.63C162.91 43.77 163.5 43.1 164.266 42.62C165.033 42.14 165.956 41.9 167.036 41.9C168.176 41.9 169.156 42.18 169.976 42.74C170.803 43.3 171.356 44.0667 171.636 45.04L169.876 45.57C169.65 44.9433 169.28 44.4567 168.766 44.11C168.26 43.7633 167.676 43.59 167.016 43.59C166.276 43.59 165.666 43.7633 165.186 44.11C164.706 44.45 164.35 44.9233 164.116 45.53C163.883 46.13 163.763 46.82 163.756 47.6C163.77 48.8 164.046 49.77 164.586 50.51C165.133 51.2433 165.943 51.61 167.016 51.61C167.723 51.61 168.31 51.45 168.776 51.13C169.243 50.8033 169.596 50.3333 169.836 49.72L171.636 50.19C171.263 51.1967 170.68 51.9667 169.886 52.5C169.093 53.0333 168.136 53.3 167.016 53.3ZM180.177 53V49.11C179.817 49.29 179.381 49.4433 178.867 49.57C178.361 49.6967 177.817 49.76 177.237 49.76C176.137 49.76 175.251 49.5133 174.577 49.02C173.904 48.5267 173.464 47.8167 173.257 46.89C173.197 46.61 173.154 46.32 173.127 46.02C173.107 45.72 173.094 45.4467 173.087 45.2C173.081 44.9533 173.077 44.7733 173.077 44.66V42.2H174.877V44.66C174.877 44.8533 174.884 45.0933 174.897 45.38C174.911 45.66 174.944 45.9333 174.997 46.2C175.131 46.86 175.407 47.3567 175.827 47.69C176.254 48.0233 176.854 48.19 177.627 48.19C178.147 48.19 178.627 48.1233 179.067 47.99C179.507 47.8567 179.877 47.68 180.177 47.46V42.2H181.967V53H180.177ZM193.611 42.2V53H191.891V45.04L186.231 53H184.761V42.2H186.481V50.05L192.151 42.2H193.611ZM196.402 53L196.412 42.2H198.212V47.4L202.742 42.2H205.052L200.282 47.6L205.612 53H203.122L198.212 47.8V53H196.402ZM211.012 53.3C209.938 53.3 209.012 53.0567 208.232 52.57C207.458 52.0833 206.862 51.41 206.442 50.55C206.022 49.69 205.812 48.7033 205.812 47.59C205.812 46.4567 206.025 45.4633 206.452 44.61C206.878 43.7567 207.482 43.0933 208.262 42.62C209.042 42.14 209.958 41.9 211.012 41.9C212.092 41.9 213.022 42.1433 213.802 42.63C214.582 43.11 215.178 43.78 215.592 44.64C216.012 45.4933 216.222 46.4767 216.222 47.59C216.222 48.7167 216.012 49.71 215.592 50.57C215.172 51.4233 214.572 52.0933 213.792 52.58C213.012 53.06 212.085 53.3 211.012 53.3ZM211.012 51.61C212.132 51.61 212.965 51.2367 213.512 50.49C214.058 49.7433 214.332 48.7767 214.332 47.59C214.332 46.37 214.055 45.4 213.502 44.68C212.948 43.9533 212.118 43.59 211.012 43.59C210.258 43.59 209.638 43.76 209.152 44.1C208.665 44.44 208.302 44.91 208.062 45.51C207.822 46.11 207.702 46.8033 207.702 47.59C207.702 48.8033 207.982 49.7767 208.542 50.51C209.102 51.2433 209.925 51.61 211.012 51.61ZM218.413 53V42.2H223.013C223.287 42.2 223.58 42.2167 223.893 42.25C224.213 42.2767 224.503 42.3267 224.763 42.4C225.343 42.5533 225.82 42.87 226.193 43.35C226.573 43.8233 226.763 44.4233 226.763 45.15C226.763 45.5567 226.7 45.91 226.573 46.21C226.453 46.51 226.28 46.77 226.053 46.99C225.953 47.09 225.843 47.18 225.723 47.26C225.603 47.34 225.483 47.4033 225.363 47.45C225.597 47.49 225.833 47.58 226.073 47.72C226.453 47.9267 226.75 48.2167 226.963 48.59C227.183 48.9633 227.293 49.44 227.293 50.02C227.293 50.7533 227.117 51.36 226.763 51.84C226.41 52.3133 225.923 52.64 225.303 52.82C225.043 52.8933 224.757 52.9433 224.443 52.97C224.13 52.99 223.827 53 223.533 53H218.413ZM220.213 51.55H223.433C223.573 51.55 223.74 51.5367 223.933 51.51C224.133 51.4833 224.31 51.45 224.463 51.41C224.81 51.31 225.06 51.1233 225.213 50.85C225.373 50.5767 225.453 50.28 225.453 49.96C225.453 49.5333 225.333 49.1867 225.093 48.92C224.86 48.6533 224.55 48.4867 224.163 48.42C224.023 48.38 223.87 48.3567 223.703 48.35C223.543 48.3433 223.4 48.34 223.273 48.34H220.213V51.55ZM220.213 46.87H222.893C223.08 46.87 223.277 46.86 223.483 46.84C223.69 46.8133 223.87 46.77 224.023 46.71C224.33 46.5967 224.553 46.41 224.693 46.15C224.84 45.8833 224.913 45.5933 224.913 45.28C224.913 44.9333 224.833 44.63 224.673 44.37C224.52 44.1033 224.283 43.92 223.963 43.82C223.75 43.74 223.51 43.6967 223.243 43.69C222.983 43.6767 222.817 43.67 222.743 43.67H220.213V46.87ZM230.072 56.66L228.752 55.65C229.532 54.73 230.172 53.7667 230.672 52.76C231.179 51.7467 231.556 50.7067 231.802 49.64C232.049 48.5667 232.172 47.4867 232.172 46.4C232.172 45.3 232.049 44.22 231.802 43.16C231.562 42.0933 231.189 41.0567 230.682 40.05C230.182 39.0433 229.539 38.0733 228.752 37.14L230.072 36.14C230.852 37.04 231.522 38.05 232.082 39.17C232.649 40.2833 233.079 41.4567 233.372 42.69C233.672 43.9233 233.816 45.16 233.802 46.4C233.816 47.6333 233.672 48.8667 233.372 50.1C233.079 51.3333 232.649 52.51 232.082 53.63C231.522 54.75 230.852 55.76 230.072 56.66Z" fill="#130531"></path></svg> 